<svg width="1205" height="653" viewBox="0 0 1205 653" fill="none" xmlns="http://www.w3.org/2000/svg">
<g filter="url(#filter0_d_1991_2782)">
<rect x="63" y="49.001" width="1050" height="554" rx="12" fill="white"/>
<rect x="63" y="49.001" width="1050" height="554" rx="12" stroke="#EDEFF0"/>
</g>
<path d="M1073 491.001H604V152.001" stroke="#D1D9DC" stroke-width="0.963303"/>
<path d="M592.673 490.116C594.528 490.116 595.596 488.544 595.596 485.797C595.596 483.072 594.512 481.479 592.673 481.479C590.834 481.479 589.75 483.072 589.75 485.797C589.75 488.544 590.817 490.116 592.673 490.116ZM592.673 489.213C591.449 489.213 590.735 487.985 590.735 485.797C590.735 483.614 591.458 482.366 592.673 482.366C593.888 482.366 594.61 483.614 594.61 485.797C594.61 487.985 593.896 489.213 592.673 489.213Z" fill="#768C95"/>
<path d="M573.635 447.052H574.308V446.136C576.032 446.017 577.001 444.999 577.001 443.719C577.001 442.142 575.507 441.633 574.636 441.403L574.308 441.313V438.394C575.178 438.481 575.81 438.949 575.901 439.696H576.886C576.845 438.497 575.794 437.586 574.308 437.487V436.543H573.635V437.5C572.227 437.643 571.172 438.538 571.172 439.827C571.172 440.96 571.993 441.633 573.306 442.011L573.635 442.105V445.213C572.773 445.123 572.067 444.679 571.993 443.834H570.942C571.036 445.127 572.022 446.03 573.635 446.136V447.052ZM574.308 445.213V442.298L574.341 442.306C575.228 442.553 576.016 442.865 576.016 443.702C576.016 444.527 575.301 445.102 574.308 445.213ZM573.635 441.132C573.011 440.956 572.157 440.611 572.157 439.778C572.157 439.068 572.732 438.526 573.635 438.407V441.132ZM581.483 437.594H580.464L578.363 438.99V440.024L580.415 438.661H580.464V446.001H581.483V437.594ZM586.642 446.116C588.498 446.116 589.565 444.544 589.565 441.797C589.565 439.072 588.482 437.479 586.642 437.479C584.803 437.479 583.72 439.072 583.72 441.797C583.72 444.544 584.787 446.116 586.642 446.116ZM586.642 445.213C585.419 445.213 584.705 443.985 584.705 441.797C584.705 439.614 585.427 438.366 586.642 438.366C587.858 438.366 588.58 439.614 588.58 441.797C588.58 443.985 587.866 445.213 586.642 445.213ZM591.142 446.001H592.11V443.641L592.788 443.013L595.148 446.001H596.38L593.518 442.389L596.182 439.696H594.984L592.225 442.504H592.11V437.594H591.142V446.001Z" fill="#768C95"/>
<path d="M573.635 404.052H574.308V403.136C576.032 403.017 577.001 401.999 577.001 400.719C577.001 399.142 575.507 398.633 574.636 398.403L574.308 398.313V395.394C575.178 395.481 575.81 395.949 575.901 396.696H576.886C576.845 395.497 575.794 394.586 574.308 394.487V393.543H573.635V394.5C572.227 394.643 571.172 395.538 571.172 396.827C571.172 397.96 571.993 398.633 573.306 399.011L573.635 399.105V402.213C572.773 402.123 572.067 401.679 571.993 400.834H570.942C571.036 402.127 572.022 403.03 573.635 403.136V404.052ZM574.308 402.213V399.298L574.341 399.306C575.228 399.553 576.016 399.865 576.016 400.702C576.016 401.527 575.301 402.102 574.308 402.213ZM573.635 398.132C573.011 397.956 572.157 397.611 572.157 396.778C572.157 396.068 572.732 395.526 573.635 395.407V398.132ZM578.527 403.001H583.831V402.098H579.923V402.032L581.811 400.013C583.256 398.465 583.683 397.742 583.683 396.811C583.683 395.513 582.632 394.479 581.154 394.479C579.68 394.479 578.56 395.481 578.56 396.958H579.529C579.529 396.002 580.148 395.366 581.121 395.366C582.033 395.366 582.73 395.924 582.73 396.811C582.73 397.587 582.275 398.161 581.302 399.224L578.527 402.262V403.001ZM588.268 403.116C590.124 403.116 591.191 401.544 591.191 398.797C591.191 396.072 590.107 394.479 588.268 394.479C586.429 394.479 585.345 396.072 585.345 398.797C585.345 401.544 586.413 403.116 588.268 403.116ZM588.268 402.213C587.045 402.213 586.331 400.985 586.331 398.797C586.331 396.614 587.053 395.366 588.268 395.366C589.483 395.366 590.206 396.614 590.206 398.797C590.206 400.985 589.491 402.213 588.268 402.213ZM592.767 403.001H593.736V400.641L594.413 400.013L596.774 403.001H598.005L595.144 399.389L597.808 396.696H596.609L593.851 399.504H593.736V394.594H592.767V403.001Z" fill="#768C95"/>
<path d="M573.635 360.052H574.308V359.136C576.032 359.017 577.001 357.999 577.001 356.719C577.001 355.142 575.507 354.633 574.636 354.403L574.308 354.313V351.394C575.178 351.481 575.81 351.949 575.901 352.696H576.886C576.845 351.497 575.794 350.586 574.308 350.487V349.543H573.635V350.5C572.227 350.643 571.172 351.538 571.172 352.827C571.172 353.96 571.993 354.633 573.306 355.011L573.635 355.105V358.213C572.773 358.123 572.067 357.679 571.993 356.834H570.942C571.036 358.127 572.022 359.03 573.635 359.136V360.052ZM574.308 358.213V355.298L574.341 355.306C575.228 355.553 576.016 355.865 576.016 356.702C576.016 357.527 575.301 358.102 574.308 358.213ZM573.635 354.132C573.011 353.956 572.157 353.611 572.157 352.778C572.157 352.068 572.732 351.526 573.635 351.407V354.132ZM581.368 359.116C582.997 359.116 584.208 358.094 584.208 356.719C584.208 355.651 583.576 354.875 582.517 354.699V354.633C583.367 354.375 583.896 353.677 583.896 352.729C583.896 351.538 582.956 350.479 581.4 350.479C579.947 350.479 578.74 351.374 578.691 352.696H579.676C579.713 351.858 580.51 351.366 581.384 351.366C582.312 351.366 582.911 351.928 582.911 352.778C582.911 353.664 582.217 354.239 581.22 354.239H580.547V355.142H581.22C582.496 355.142 583.207 355.791 583.207 356.719C583.207 357.609 582.431 358.213 581.351 358.213C580.378 358.213 579.607 357.712 579.545 356.899H578.511C578.572 358.221 579.738 359.116 581.368 359.116ZM588.629 359.116C590.485 359.116 591.552 357.544 591.552 354.797C591.552 352.072 590.468 350.479 588.629 350.479C586.79 350.479 585.707 352.072 585.707 354.797C585.707 357.544 586.774 359.116 588.629 359.116ZM588.629 358.213C587.406 358.213 586.692 356.985 586.692 354.797C586.692 352.614 587.414 351.366 588.629 351.366C589.844 351.366 590.567 352.614 590.567 354.797C590.567 356.985 589.853 358.213 588.629 358.213ZM593.128 359.001H594.097V356.641L594.774 356.013L597.135 359.001H598.366L595.505 355.389L598.169 352.696H596.971L594.212 355.504H594.097V350.594H593.128V359.001Z" fill="#768C95"/>
<path d="M573.635 316.052H574.308V315.136C576.032 315.017 577.001 313.999 577.001 312.719C577.001 311.142 575.507 310.633 574.636 310.403L574.308 310.313V307.394C575.178 307.481 575.81 307.949 575.901 308.696H576.886C576.845 307.497 575.794 306.586 574.308 306.487V305.543H573.635V306.5C572.227 306.643 571.172 307.538 571.172 308.827C571.172 309.96 571.993 310.633 573.306 311.011L573.635 311.105V314.213C572.773 314.123 572.067 313.679 571.993 312.834H570.942C571.036 314.127 572.022 315.03 573.635 315.136V316.052ZM574.308 314.213V311.298L574.341 311.306C575.228 311.553 576.016 311.865 576.016 312.702C576.016 313.527 575.301 314.102 574.308 314.213ZM573.635 310.132C573.011 309.956 572.157 309.611 572.157 308.778C572.157 308.068 572.732 307.526 573.635 307.407V310.132ZM578.33 313.277H582.287V315.001H583.256V313.277H584.405V312.374H583.256V306.594H582.024L578.33 312.439V313.277ZM582.287 312.374H579.43V312.308L582.221 307.891H582.287V312.374ZM588.686 315.116C590.541 315.116 591.608 313.544 591.608 310.797C591.608 308.072 590.525 306.479 588.686 306.479C586.847 306.479 585.763 308.072 585.763 310.797C585.763 313.544 586.83 315.116 588.686 315.116ZM588.686 314.213C587.462 314.213 586.748 312.985 586.748 310.797C586.748 308.614 587.471 307.366 588.686 307.366C589.901 307.366 590.623 308.614 590.623 310.797C590.623 312.985 589.909 314.213 588.686 314.213ZM593.185 315.001H594.154V312.641L594.831 312.013L597.191 315.001H598.423L595.562 311.389L598.226 308.696H597.027L594.269 311.504H594.154V306.594H593.185V315.001Z" fill="#768C95"/>
<path d="M573.635 271.052H574.308V270.136C576.032 270.017 577.001 268.999 577.001 267.719C577.001 266.142 575.507 265.633 574.636 265.403L574.308 265.313V262.394C575.178 262.481 575.81 262.949 575.901 263.696H576.886C576.845 262.497 575.794 261.586 574.308 261.487V260.543H573.635V261.5C572.227 261.643 571.172 262.538 571.172 263.827C571.172 264.96 571.993 265.633 573.306 266.011L573.635 266.105V269.213C572.773 269.123 572.067 268.679 571.993 267.834H570.942C571.036 269.127 572.022 270.03 573.635 270.136V271.052ZM574.308 269.213V266.298L574.341 266.306C575.228 266.553 576.016 266.865 576.016 267.702C576.016 268.527 575.301 269.102 574.308 269.213ZM573.635 265.132C573.011 264.956 572.157 264.611 572.157 263.778C572.157 263.068 572.732 262.526 573.635 262.407V265.132ZM581.154 270.116C582.755 270.116 583.929 268.934 583.929 267.325C583.929 265.695 582.796 264.5 581.253 264.5C580.686 264.5 580.136 264.701 579.791 264.976H579.742L580.038 262.497H583.551V261.594H579.184L578.675 265.732L579.627 265.847C579.976 265.596 580.571 265.416 581.088 265.42C582.16 265.428 582.944 266.241 582.944 267.341C582.944 268.421 582.189 269.213 581.154 269.213C580.292 269.213 579.607 268.659 579.529 267.899H578.543C578.605 269.18 579.709 270.116 581.154 270.116ZM588.302 270.116C590.157 270.116 591.225 268.544 591.225 265.797C591.225 263.072 590.141 261.479 588.302 261.479C586.463 261.479 585.379 263.072 585.379 265.797C585.379 268.544 586.446 270.116 588.302 270.116ZM588.302 269.213C587.079 269.213 586.364 267.985 586.364 265.797C586.364 263.614 587.087 262.366 588.302 262.366C589.517 262.366 590.239 263.614 590.239 265.797C590.239 267.985 589.525 269.213 588.302 269.213ZM592.801 270.001H593.77V267.641L594.447 267.013L596.807 270.001H598.039L595.178 266.389L597.842 263.696H596.643L593.885 266.504H593.77V261.594H592.801V270.001Z" fill="#768C95"/>
<path d="M573.635 227.052H574.308V226.136C576.032 226.017 577.001 224.999 577.001 223.719C577.001 222.142 575.507 221.633 574.636 221.403L574.308 221.313V218.394C575.178 218.481 575.81 218.949 575.901 219.696H576.886C576.845 218.497 575.794 217.586 574.308 217.487V216.543H573.635V217.5C572.227 217.643 571.172 218.538 571.172 219.827C571.172 220.96 571.993 221.633 573.306 222.011L573.635 222.105V225.213C572.773 225.123 572.067 224.679 571.993 223.834H570.942C571.036 225.127 572.022 226.03 573.635 226.136V227.052ZM574.308 225.213V222.298L574.341 222.306C575.228 222.553 576.016 222.865 576.016 223.702C576.016 224.527 575.301 225.102 574.308 225.213ZM573.635 221.132C573.011 220.956 572.157 220.611 572.157 219.778C572.157 219.068 572.732 218.526 573.635 218.407V221.132ZM581.318 226.116C583.018 226.136 584.126 224.856 584.126 223.292C584.126 221.666 582.923 220.5 581.483 220.5C580.616 220.5 579.873 220.923 579.414 221.617H579.348C579.352 219.568 580.148 218.382 581.45 218.382C582.336 218.382 582.87 218.94 583.059 219.696H584.06C583.855 218.39 582.862 217.479 581.45 217.479C579.557 217.479 578.396 219.154 578.396 222.126C578.396 225.233 579.939 226.099 581.318 226.116ZM581.318 225.213C580.263 225.213 579.492 224.314 579.496 223.308C579.5 222.302 580.309 221.403 581.351 221.403C582.382 221.403 583.141 222.249 583.141 223.292C583.141 224.359 582.349 225.213 581.318 225.213ZM588.483 226.116C590.338 226.116 591.405 224.544 591.405 221.797C591.405 219.072 590.322 217.479 588.483 217.479C586.644 217.479 585.56 219.072 585.56 221.797C585.56 224.544 586.627 226.116 588.483 226.116ZM588.483 225.213C587.259 225.213 586.545 223.985 586.545 221.797C586.545 219.614 587.267 218.366 588.483 218.366C589.698 218.366 590.42 219.614 590.42 221.797C590.42 223.985 589.706 225.213 588.483 225.213ZM592.982 226.001H593.95V223.641L594.628 223.013L596.988 226.001H598.22L595.358 222.389L598.023 219.696H596.824L594.065 222.504H593.95V217.594H592.982V226.001Z" fill="#768C95"/>
<path d="M573.635 182.052H574.308V181.136C576.032 181.017 577.001 179.999 577.001 178.719C577.001 177.142 575.507 176.633 574.636 176.403L574.308 176.313V173.394C575.178 173.481 575.81 173.949 575.901 174.696H576.886C576.845 173.497 575.794 172.586 574.308 172.487V171.543H573.635V172.5C572.227 172.643 571.172 173.538 571.172 174.827C571.172 175.96 571.993 176.633 573.306 177.011L573.635 177.105V180.213C572.773 180.123 572.067 179.679 571.993 178.834H570.942C571.036 180.127 572.022 181.03 573.635 181.136V182.052ZM574.308 180.213V177.298L574.341 177.306C575.228 177.553 576.016 177.865 576.016 178.702C576.016 179.527 575.301 180.102 574.308 180.213ZM573.635 176.132C573.011 175.956 572.157 175.611 572.157 174.778C572.157 174.068 572.732 173.526 573.635 173.407V176.132ZM578.79 181.001H579.857L583.601 173.546V172.594H578.215V173.497H582.55V173.563L578.79 181.001ZM587.692 181.116C589.548 181.116 590.615 179.544 590.615 176.797C590.615 174.072 589.531 172.479 587.692 172.479C585.853 172.479 584.77 174.072 584.77 176.797C584.77 179.544 585.837 181.116 587.692 181.116ZM587.692 180.213C586.469 180.213 585.755 178.985 585.755 176.797C585.755 174.614 586.477 173.366 587.692 173.366C588.907 173.366 589.63 174.614 589.63 176.797C589.63 178.985 588.916 180.213 587.692 180.213ZM592.191 181.001H593.16V178.641L593.838 178.013L596.198 181.001H597.429L594.568 177.389L597.232 174.696H596.034L593.275 177.504H593.16V172.594H592.191V181.001Z" fill="#768C95"/>
<path d="M579.779 505.232H578.761L576.659 506.628V507.662L578.712 506.299H578.761V513.639H579.779V505.232ZM585.153 505.232H584.135L582.033 506.628V507.662L584.085 506.299H584.135V513.639H585.153V505.232ZM590.559 504.838H589.672L586.963 514.903H587.85L590.559 504.838ZM594.532 513.754C596.161 513.754 597.372 512.732 597.372 511.357C597.372 510.289 596.74 509.514 595.681 509.337V509.271C596.531 509.013 597.06 508.315 597.06 507.367C597.06 506.176 596.12 505.117 594.564 505.117C593.111 505.117 591.904 506.012 591.855 507.334H592.84C592.877 506.496 593.674 506.004 594.548 506.004C595.476 506.004 596.075 506.566 596.075 507.416C596.075 508.303 595.381 508.877 594.384 508.877H593.711V509.78H594.384C595.66 509.78 596.371 510.429 596.371 511.357C596.371 512.248 595.595 512.851 594.515 512.851C593.542 512.851 592.77 512.35 592.709 511.537H591.674C591.736 512.859 592.902 513.754 594.532 513.754ZM601.793 513.754C603.649 513.754 604.716 512.182 604.716 509.436C604.716 506.71 603.632 505.117 601.793 505.117C599.954 505.117 598.871 506.71 598.871 509.436C598.871 512.182 599.938 513.754 601.793 513.754ZM601.793 512.851C600.57 512.851 599.856 511.624 599.856 509.436C599.856 507.252 600.578 506.004 601.793 506.004C603.008 506.004 603.731 507.252 603.731 509.436C603.731 511.624 603.017 512.851 601.793 512.851ZM609.264 504.838H608.378L605.668 514.903H606.555L609.264 504.838ZM610.396 513.639H615.7V512.736H611.792V512.67L613.68 510.651C615.125 509.103 615.552 508.381 615.552 507.449C615.552 506.152 614.501 505.117 613.023 505.117C611.55 505.117 610.429 506.119 610.429 507.597H611.398C611.398 506.64 612.018 506.004 612.991 506.004C613.902 506.004 614.6 506.562 614.6 507.449C614.6 508.225 614.144 508.799 613.171 509.863L610.396 512.9V513.639ZM620.351 505.232H619.333L617.231 506.628V507.662L619.284 506.299H619.333V513.639H620.351V505.232Z" fill="#A4B2B9"/>
<path d="M639.107 505.232H638.089L635.987 506.628V507.662L638.039 506.299H638.089V513.639H639.107V505.232ZM641.524 513.639H646.828V512.736H642.92V512.67L644.808 510.651C646.253 509.103 646.68 508.381 646.68 507.449C646.68 506.152 645.629 505.117 644.152 505.117C642.678 505.117 641.557 506.119 641.557 507.597H642.526C642.526 506.64 643.146 506.004 644.119 506.004C645.03 506.004 645.728 506.562 645.728 507.449C645.728 508.225 645.272 508.799 644.299 509.863L641.524 512.9V513.639ZM651.512 504.838H650.625L647.916 514.903H648.803L651.512 504.838ZM655.484 513.754C657.114 513.754 658.325 512.732 658.325 511.357C658.325 510.289 657.693 509.514 656.634 509.337V509.271C657.484 509.013 658.013 508.315 658.013 507.367C658.013 506.176 657.073 505.117 655.517 505.117C654.064 505.117 652.857 506.012 652.808 507.334H653.793C653.83 506.496 654.627 506.004 655.501 506.004C656.429 506.004 657.028 506.566 657.028 507.416C657.028 508.303 656.334 508.877 655.337 508.877H654.663V509.78H655.337C656.613 509.78 657.323 510.429 657.323 511.357C657.323 512.248 656.548 512.851 655.468 512.851C654.495 512.851 653.723 512.35 653.662 511.537H652.627C652.689 512.859 653.855 513.754 655.484 513.754ZM662.96 505.232H661.942L659.84 506.628V507.662L661.892 506.299H661.942V513.639H662.96V505.232ZM668.366 504.838H667.479L664.77 514.903H665.657L668.366 504.838ZM669.498 513.639H674.801V512.736H670.894V512.67L672.782 510.651C674.227 509.103 674.654 508.381 674.654 507.449C674.654 506.152 673.603 505.117 672.125 505.117C670.651 505.117 669.531 506.119 669.531 507.597H670.499C670.499 506.64 671.119 506.004 672.092 506.004C673.003 506.004 673.701 506.562 673.701 507.449C673.701 508.225 673.246 508.799 672.273 509.863L669.498 512.9V513.639ZM679.452 505.232H678.434L676.333 506.628V507.662L678.385 506.299H678.434V513.639H679.452V505.232Z" fill="#A4B2B9"/>
<path d="M700.492 513.754C702.093 513.754 703.267 512.572 703.267 510.963C703.267 509.333 702.134 508.138 700.591 508.138C700.024 508.138 699.474 508.34 699.129 508.615H699.08L699.376 506.135H702.889V505.232H698.522L698.013 509.37L698.965 509.485C699.314 509.235 699.909 509.054 700.426 509.058C701.498 509.066 702.282 509.879 702.282 510.979C702.282 512.059 701.527 512.851 700.492 512.851C699.63 512.851 698.945 512.297 698.867 511.537H697.881C697.943 512.818 699.047 513.754 700.492 513.754ZM707.886 504.838H707L704.29 514.903H705.177L707.886 504.838ZM711.859 513.754C713.489 513.754 714.7 512.732 714.7 511.357C714.7 510.289 714.067 509.514 713.008 509.337V509.271C713.858 509.013 714.388 508.315 714.388 507.367C714.388 506.176 713.448 505.117 711.892 505.117C710.439 505.117 709.232 506.012 709.182 507.334H710.168C710.205 506.496 711.001 506.004 711.875 506.004C712.803 506.004 713.402 506.566 713.402 507.416C713.402 508.303 712.709 508.877 711.711 508.877H711.038V509.78H711.711C712.988 509.78 713.698 510.429 713.698 511.357C713.698 512.248 712.922 512.851 711.842 512.851C710.87 512.851 710.098 512.35 710.036 511.537H709.002C709.063 512.859 710.229 513.754 711.859 513.754ZM719.334 505.232H718.316L716.214 506.628V507.662L718.267 506.299H718.316V513.639H719.334V505.232ZM724.74 504.838H723.854L721.144 514.903H722.031L724.74 504.838ZM725.872 513.639H731.176V512.736H727.268V512.67L729.156 510.651C730.601 509.103 731.028 508.381 731.028 507.449C731.028 506.152 729.977 505.117 728.499 505.117C727.026 505.117 725.905 506.119 725.905 507.597H726.874C726.874 506.64 727.494 506.004 728.467 506.004C729.378 506.004 730.076 506.562 730.076 507.449C730.076 508.225 729.62 508.799 728.647 509.863L725.872 512.9V513.639ZM732.871 513.639H738.175V512.736H734.267V512.67L736.155 510.651C737.6 509.103 738.027 508.381 738.027 507.449C738.027 506.152 736.976 505.117 735.498 505.117C734.025 505.117 732.904 506.119 732.904 507.597H733.873C733.873 506.64 734.493 506.004 735.466 506.004C736.377 506.004 737.075 506.562 737.075 507.449C737.075 508.225 736.619 508.799 735.646 509.863L732.871 512.9V513.639Z" fill="#A4B2B9"/>
<path d="M760.48 505.232H759.462L757.36 506.628V507.662L759.413 506.299H759.462V513.639H760.48V505.232ZM765.886 504.838H765L762.29 514.903H763.177L765.886 504.838ZM769.859 513.754C771.489 513.754 772.7 512.732 772.7 511.357C772.7 510.289 772.067 509.514 771.008 509.337V509.271C771.858 509.013 772.388 508.315 772.388 507.367C772.388 506.176 771.448 505.117 769.892 505.117C768.439 505.117 767.232 506.012 767.182 507.334H768.168C768.205 506.496 769.001 506.004 769.875 506.004C770.803 506.004 771.402 506.566 771.402 507.416C771.402 508.303 770.709 508.877 769.711 508.877H769.038V509.78H769.711C770.988 509.78 771.698 510.429 771.698 511.357C771.698 512.248 770.922 512.851 769.842 512.851C768.87 512.851 768.098 512.35 768.036 511.537H767.002C767.063 512.859 768.229 513.754 769.859 513.754ZM777.334 505.232H776.316L774.214 506.628V507.662L776.267 506.299H776.316V513.639H777.334V505.232ZM782.74 504.838H781.854L779.144 514.903H780.031L782.74 504.838ZM783.872 513.639H789.176V512.736H785.268V512.67L787.156 510.651C788.601 509.103 789.028 508.381 789.028 507.449C789.028 506.152 787.977 505.117 786.499 505.117C785.026 505.117 783.905 506.119 783.905 507.597H784.874C784.874 506.64 785.494 506.004 786.467 506.004C787.378 506.004 788.076 506.562 788.076 507.449C788.076 508.225 787.62 508.799 786.647 509.863L783.872 512.9V513.639ZM790.871 513.639H796.175V512.736H792.267V512.67L794.155 510.651C795.6 509.103 796.027 508.381 796.027 507.449C796.027 506.152 794.976 505.117 793.498 505.117C792.025 505.117 790.904 506.119 790.904 507.597H791.873C791.873 506.64 792.493 506.004 793.466 506.004C794.377 506.004 795.075 506.562 795.075 507.449C795.075 508.225 794.619 508.799 793.646 509.863L790.871 512.9V513.639Z" fill="#A4B2B9"/>
<path d="M821.378 513.754C823.008 513.754 824.219 512.732 824.219 511.357C824.219 510.289 823.587 509.514 822.528 509.337V509.271C823.377 509.013 823.907 508.315 823.907 507.367C823.907 506.176 822.967 505.117 821.411 505.117C819.958 505.117 818.751 506.012 818.702 507.334H819.687C819.724 506.496 820.52 506.004 821.395 506.004C822.322 506.004 822.922 506.566 822.922 507.416C822.922 508.303 822.228 508.877 821.23 508.877H820.557V509.78H821.23C822.507 509.78 823.217 510.429 823.217 511.357C823.217 512.248 822.441 512.851 821.362 512.851C820.389 512.851 819.617 512.35 819.556 511.537H818.521C818.583 512.859 819.749 513.754 821.378 513.754ZM828.886 504.838H828L825.29 514.903H826.177L828.886 504.838ZM832.859 513.754C834.489 513.754 835.7 512.732 835.7 511.357C835.7 510.289 835.067 509.514 834.008 509.337V509.271C834.858 509.013 835.388 508.315 835.388 507.367C835.388 506.176 834.448 505.117 832.892 505.117C831.439 505.117 830.232 506.012 830.182 507.334H831.168C831.205 506.496 832.001 506.004 832.875 506.004C833.803 506.004 834.402 506.566 834.402 507.416C834.402 508.303 833.709 508.877 832.711 508.877H832.038V509.78H832.711C833.988 509.78 834.698 510.429 834.698 511.357C834.698 512.248 833.922 512.851 832.842 512.851C831.87 512.851 831.098 512.35 831.036 511.537H830.002C830.063 512.859 831.229 513.754 832.859 513.754ZM840.334 505.232H839.316L837.214 506.628V507.662L839.267 506.299H839.316V513.639H840.334V505.232ZM845.74 504.838H844.854L842.144 514.903H843.031L845.74 504.838ZM846.872 513.639H852.176V512.736H848.268V512.67L850.156 510.651C851.601 509.103 852.028 508.381 852.028 507.449C852.028 506.152 850.977 505.117 849.499 505.117C848.026 505.117 846.905 506.119 846.905 507.597H847.874C847.874 506.64 848.494 506.004 849.467 506.004C850.378 506.004 851.076 506.562 851.076 507.449C851.076 508.225 850.62 508.799 849.647 509.863L846.872 512.9V513.639ZM853.871 513.639H859.175V512.736H855.267V512.67L857.155 510.651C858.6 509.103 859.027 508.381 859.027 507.449C859.027 506.152 857.976 505.117 856.498 505.117C855.025 505.117 853.904 506.119 853.904 507.597H854.873C854.873 506.64 855.493 506.004 856.466 506.004C857.377 506.004 858.075 506.562 858.075 507.449C858.075 508.225 857.619 508.799 856.646 509.863L853.871 512.9V513.639Z" fill="#A4B2B9"/>
<path d="M875.433 511.915H879.39V513.639H880.359V511.915H881.508V511.012H880.359V505.232H879.127L875.433 511.078V511.915ZM879.39 511.012H876.533V510.946L879.324 506.529H879.39V511.012ZM886.035 504.838H885.148L882.439 514.903H883.326L886.035 504.838ZM890.008 513.754C891.637 513.754 892.848 512.732 892.848 511.357C892.848 510.289 892.216 509.514 891.157 509.337V509.271C892.007 509.013 892.536 508.315 892.536 507.367C892.536 506.176 891.596 505.117 890.04 505.117C888.587 505.117 887.38 506.012 887.331 507.334H888.316C888.353 506.496 889.15 506.004 890.024 506.004C890.952 506.004 891.551 506.566 891.551 507.416C891.551 508.303 890.857 508.877 889.86 508.877H889.187V509.78H889.86C891.136 509.78 891.847 510.429 891.847 511.357C891.847 512.248 891.071 512.851 889.991 512.851C889.018 512.851 888.246 512.35 888.185 511.537H887.15C887.212 512.859 888.378 513.754 890.008 513.754ZM897.269 513.754C899.125 513.754 900.192 512.182 900.192 509.436C900.192 506.71 899.108 505.117 897.269 505.117C895.43 505.117 894.346 506.71 894.346 509.436C894.346 512.182 895.414 513.754 897.269 513.754ZM897.269 512.851C896.046 512.851 895.332 511.624 895.332 509.436C895.332 507.252 896.054 506.004 897.269 506.004C898.484 506.004 899.207 507.252 899.207 509.436C899.207 511.624 898.493 512.851 897.269 512.851ZM904.74 504.838H903.854L901.144 514.903H902.031L904.74 504.838ZM905.872 513.639H911.176V512.736H907.268V512.67L909.156 510.651C910.601 509.103 911.028 508.381 911.028 507.449C911.028 506.152 909.977 505.117 908.499 505.117C907.026 505.117 905.905 506.119 905.905 507.597H906.874C906.874 506.64 907.494 506.004 908.467 506.004C909.378 506.004 910.076 506.562 910.076 507.449C910.076 508.225 909.62 508.799 908.647 509.863L905.872 512.9V513.639ZM912.871 513.639H918.175V512.736H914.267V512.67L916.155 510.651C917.6 509.103 918.027 508.381 918.027 507.449C918.027 506.152 916.976 505.117 915.498 505.117C914.025 505.117 912.904 506.119 912.904 507.597H913.873C913.873 506.64 914.493 506.004 915.466 506.004C916.377 506.004 917.075 506.562 917.075 507.449C917.075 508.225 916.619 508.799 915.646 509.863L912.871 512.9V513.639Z" fill="#A4B2B9"/>
<path d="M938.492 513.754C940.093 513.754 941.267 512.572 941.267 510.963C941.267 509.333 940.134 508.138 938.591 508.138C938.024 508.138 937.474 508.34 937.129 508.615H937.08L937.376 506.135H940.889V505.232H936.522L936.013 509.37L936.965 509.485C937.314 509.235 937.909 509.054 938.426 509.058C939.498 509.066 940.282 509.879 940.282 510.979C940.282 512.059 939.527 512.851 938.492 512.851C937.63 512.851 936.945 512.297 936.867 511.537H935.881C935.943 512.818 937.047 513.754 938.492 513.754ZM945.886 504.838H945L942.29 514.903H943.177L945.886 504.838ZM949.859 513.754C951.489 513.754 952.7 512.732 952.7 511.357C952.7 510.289 952.067 509.514 951.008 509.337V509.271C951.858 509.013 952.388 508.315 952.388 507.367C952.388 506.176 951.448 505.117 949.892 505.117C948.439 505.117 947.232 506.012 947.182 507.334H948.168C948.205 506.496 949.001 506.004 949.875 506.004C950.803 506.004 951.402 506.566 951.402 507.416C951.402 508.303 950.709 508.877 949.711 508.877H949.038V509.78H949.711C950.988 509.78 951.698 510.429 951.698 511.357C951.698 512.248 950.922 512.851 949.842 512.851C948.87 512.851 948.098 512.35 948.036 511.537H947.002C947.063 512.859 948.229 513.754 949.859 513.754ZM957.334 505.232H956.316L954.214 506.628V507.662L956.267 506.299H956.316V513.639H957.334V505.232ZM962.74 504.838H961.854L959.144 514.903H960.031L962.74 504.838ZM963.872 513.639H969.176V512.736H965.268V512.67L967.156 510.651C968.601 509.103 969.028 508.381 969.028 507.449C969.028 506.152 967.977 505.117 966.499 505.117C965.026 505.117 963.905 506.119 963.905 507.597H964.874C964.874 506.64 965.494 506.004 966.467 506.004C967.378 506.004 968.076 506.562 968.076 507.449C968.076 508.225 967.62 508.799 966.647 509.863L963.872 512.9V513.639ZM970.871 513.639H976.175V512.736H972.267V512.67L974.155 510.651C975.6 509.103 976.027 508.381 976.027 507.449C976.027 506.152 974.976 505.117 973.498 505.117C972.025 505.117 970.904 506.119 970.904 507.597H971.873C971.873 506.64 972.493 506.004 973.466 506.004C974.377 506.004 975.075 506.562 975.075 507.449C975.075 508.225 974.619 508.799 973.646 509.863L970.871 512.9V513.639Z" fill="#A4B2B9"/>
<path d="M994.624 513.754C996.324 513.775 997.432 512.494 997.432 510.93C997.432 509.304 996.229 508.138 994.789 508.138C993.922 508.138 993.179 508.561 992.72 509.255H992.654C992.658 507.207 993.454 506.02 994.756 506.02C995.642 506.02 996.176 506.579 996.365 507.334H997.367C997.161 506.029 996.168 505.117 994.756 505.117C992.863 505.117 991.702 506.792 991.702 509.764C991.702 512.872 993.245 513.738 994.624 513.754ZM994.624 512.851C993.569 512.851 992.798 511.952 992.802 510.946C992.806 509.941 993.615 509.042 994.657 509.042C995.688 509.042 996.447 509.887 996.447 510.93C996.447 511.997 995.655 512.851 994.624 512.851ZM1002.03 504.838H1001.15L998.439 514.903H999.326L1002.03 504.838ZM1006.01 513.754C1007.64 513.754 1008.85 512.732 1008.85 511.357C1008.85 510.289 1008.22 509.514 1007.16 509.337V509.271C1008.01 509.013 1008.54 508.315 1008.54 507.367C1008.54 506.176 1007.6 505.117 1006.04 505.117C1004.59 505.117 1003.38 506.012 1003.33 507.334H1004.32C1004.35 506.496 1005.15 506.004 1006.02 506.004C1006.95 506.004 1007.55 506.566 1007.55 507.416C1007.55 508.303 1006.86 508.877 1005.86 508.877H1005.19V509.78H1005.86C1007.14 509.78 1007.85 510.429 1007.85 511.357C1007.85 512.248 1007.07 512.851 1005.99 512.851C1005.02 512.851 1004.25 512.35 1004.18 511.537H1003.15C1003.21 512.859 1004.38 513.754 1006.01 513.754ZM1013.27 513.754C1015.12 513.754 1016.19 512.182 1016.19 509.436C1016.19 506.71 1015.11 505.117 1013.27 505.117C1011.43 505.117 1010.35 506.71 1010.35 509.436C1010.35 512.182 1011.41 513.754 1013.27 513.754ZM1013.27 512.851C1012.05 512.851 1011.33 511.624 1011.33 509.436C1011.33 507.252 1012.05 506.004 1013.27 506.004C1014.48 506.004 1015.21 507.252 1015.21 509.436C1015.21 511.624 1014.49 512.851 1013.27 512.851ZM1020.74 504.838H1019.85L1017.14 514.903H1018.03L1020.74 504.838ZM1021.87 513.639H1027.18V512.736H1023.27V512.67L1025.16 510.651C1026.6 509.103 1027.03 508.381 1027.03 507.449C1027.03 506.152 1025.98 505.117 1024.5 505.117C1023.03 505.117 1021.91 506.119 1021.91 507.597H1022.87C1022.87 506.64 1023.49 506.004 1024.47 506.004C1025.38 506.004 1026.08 506.562 1026.08 507.449C1026.08 508.225 1025.62 508.799 1024.65 509.863L1021.87 512.9V513.639ZM1028.87 513.639H1034.17V512.736H1030.27V512.67L1032.16 510.651C1033.6 509.103 1034.03 508.381 1034.03 507.449C1034.03 506.152 1032.98 505.117 1031.5 505.117C1030.02 505.117 1028.9 506.119 1028.9 507.597H1029.87C1029.87 506.64 1030.49 506.004 1031.47 506.004C1032.38 506.004 1033.07 506.562 1033.07 507.449C1033.07 508.225 1032.62 508.799 1031.65 509.863L1028.87 512.9V513.639Z" fill="#A4B2B9"/>
<path d="M1052.56 513.639H1053.62L1057.37 506.185V505.232H1051.98V506.135H1056.32V506.201L1052.56 513.639ZM1061.89 504.838H1061L1058.29 514.903H1059.18L1061.89 504.838ZM1065.86 513.754C1067.49 513.754 1068.7 512.732 1068.7 511.357C1068.7 510.289 1068.07 509.514 1067.01 509.337V509.271C1067.86 509.013 1068.39 508.315 1068.39 507.367C1068.39 506.176 1067.45 505.117 1065.89 505.117C1064.44 505.117 1063.23 506.012 1063.18 507.334H1064.17C1064.2 506.496 1065 506.004 1065.88 506.004C1066.8 506.004 1067.4 506.566 1067.4 507.416C1067.4 508.303 1066.71 508.877 1065.71 508.877H1065.04V509.78H1065.71C1066.99 509.78 1067.7 510.429 1067.7 511.357C1067.7 512.248 1066.92 512.851 1065.84 512.851C1064.87 512.851 1064.1 512.35 1064.04 511.537H1063C1063.06 512.859 1064.23 513.754 1065.86 513.754ZM1073.33 505.232H1072.32L1070.21 506.628V507.662L1072.27 506.299H1072.32V513.639H1073.33V505.232ZM1078.74 504.838H1077.85L1075.14 514.903H1076.03L1078.74 504.838ZM1079.87 513.639H1085.18V512.736H1081.27V512.67L1083.16 510.651C1084.6 509.103 1085.03 508.381 1085.03 507.449C1085.03 506.152 1083.98 505.117 1082.5 505.117C1081.03 505.117 1079.91 506.119 1079.91 507.597H1080.87C1080.87 506.64 1081.49 506.004 1082.47 506.004C1083.38 506.004 1084.08 506.562 1084.08 507.449C1084.08 508.225 1083.62 508.799 1082.65 509.863L1079.87 512.9V513.639ZM1086.87 513.639H1092.17V512.736H1088.27V512.67L1090.16 510.651C1091.6 509.103 1092.03 508.381 1092.03 507.449C1092.03 506.152 1090.98 505.117 1089.5 505.117C1088.02 505.117 1086.9 506.119 1086.9 507.597H1087.87C1087.87 506.64 1088.49 506.004 1089.47 506.004C1090.38 506.004 1091.07 506.562 1091.07 507.449C1091.07 508.225 1090.62 508.799 1089.65 509.863L1086.87 512.9V513.639Z" fill="#A4B2B9"/>
<line x1="540.766" y1="87.54" x2="540.766" y2="564.462" stroke="#2D3156" stroke-opacity="0.12" stroke-width="0.96248"/>
<path d="M103.69 432.135H107.587V442.83H109.853V432.135H113.751V430.22H103.69V432.135ZM118.408 443.015C120.612 443.015 122.127 441.937 122.521 440.293L120.44 440.059C120.138 440.86 119.399 441.279 118.438 441.279C116.997 441.279 116.043 440.33 116.025 438.711H122.613V438.027C122.613 434.709 120.618 433.249 118.291 433.249C115.581 433.249 113.814 435.238 113.814 438.157C113.814 441.125 115.557 443.015 118.408 443.015ZM116.031 437.209C116.098 436.002 116.991 434.986 118.321 434.986C119.602 434.986 120.464 435.922 120.476 437.209H116.031ZM124.499 442.83H126.728V437.27C126.728 436.069 127.633 435.22 128.858 435.22C129.234 435.22 129.702 435.287 129.893 435.349V433.299C129.69 433.262 129.339 433.237 129.092 433.237C128.009 433.237 127.103 433.853 126.759 434.949H126.66V433.372H124.499V442.83ZM131.374 442.83H133.603V437.079C133.603 435.915 134.378 435.127 135.339 435.127C136.281 435.127 136.928 435.762 136.928 436.734V442.83H139.114V436.931C139.114 435.866 139.748 435.127 140.825 435.127C141.724 435.127 142.439 435.657 142.439 436.827V442.83H144.674V436.482C144.674 434.37 143.455 433.249 141.718 433.249C140.345 433.249 139.298 433.927 138.88 434.98H138.781C138.418 433.908 137.5 433.249 136.226 433.249C134.957 433.249 134.009 433.902 133.615 434.98H133.504V433.372H131.374V442.83ZM154.41 435.872C154.102 434.271 152.822 433.249 150.605 433.249C148.327 433.249 146.775 434.37 146.781 436.119C146.775 437.498 147.625 438.409 149.441 438.785L151.054 439.124C151.923 439.314 152.329 439.665 152.329 440.201C152.329 440.848 151.627 441.334 150.568 441.334C149.546 441.334 148.881 440.891 148.69 440.041L146.516 440.25C146.794 441.987 148.253 443.015 150.574 443.015C152.939 443.015 154.607 441.79 154.613 439.998C154.607 438.649 153.739 437.824 151.953 437.436L150.34 437.092C149.38 436.876 148.998 436.544 149.004 435.996C148.998 435.355 149.706 434.912 150.636 434.912C151.664 434.912 152.206 435.472 152.378 436.094L154.41 435.872Z" fill="#1B3F4F"/>
<line x1="103" y1="459.924" x2="493.526" y2="459.924" stroke="#D1D9DC" stroke-width="0.963303"/>
<path fill-rule="evenodd" clip-rule="evenodd" d="M121.284 485.316C121.629 485.661 121.629 486.22 121.284 486.565L111.571 496.278C111.226 496.623 110.667 496.623 110.322 496.278L105.907 491.863C105.562 491.518 105.562 490.959 105.907 490.614C106.252 490.269 106.811 490.269 107.156 490.614L110.947 494.405L120.036 485.316C120.38 484.971 120.939 484.971 121.284 485.316Z" fill="#E09945"/>
<path d="M144.105 485.506H142.43V493.738H142.326L136.623 485.506H135.058V496.715H136.749V488.494H136.853L142.551 496.715H144.105V485.506ZM149.982 496.885C152.352 496.885 153.901 495.15 153.901 492.55C153.901 489.934 152.352 488.199 149.982 488.199C147.612 488.199 146.063 489.934 146.063 492.55C146.063 495.15 147.612 496.885 149.982 496.885ZM149.987 495.511C148.439 495.511 147.716 494.159 147.716 492.545C147.716 490.936 148.439 489.567 149.987 489.567C151.525 489.567 152.248 490.936 152.248 492.545C152.248 494.159 151.525 495.511 149.987 495.511ZM163.808 488.308H161.996V487.553C161.996 486.809 162.302 486.404 163.102 486.404C163.441 486.404 163.682 486.48 163.835 486.529L164.218 485.205C163.988 485.117 163.512 484.981 162.85 484.981C161.52 484.981 160.354 485.758 160.354 487.334V488.308H159.057V489.622H160.354V496.715H161.996V489.622H163.808V488.308ZM165.496 496.715H167.133V488.308H165.496V496.715ZM166.323 487.011C166.886 487.011 167.357 486.573 167.357 486.037C167.357 485.501 166.886 485.057 166.323 485.057C165.753 485.057 165.288 485.501 165.288 486.037C165.288 486.573 165.753 487.011 166.323 487.011ZM170.626 488.308H168.831L171.414 492.512L168.798 496.715H170.593L172.481 493.574L174.375 496.715H176.165L173.521 492.512L176.143 488.308H174.353L172.481 491.581L170.626 488.308ZM181.101 496.885C182.934 496.885 184.231 495.982 184.603 494.614L183.055 494.334C182.759 495.128 182.047 495.533 181.117 495.533C179.716 495.533 178.774 494.625 178.731 493.004H184.707V492.424C184.707 489.387 182.89 488.199 180.986 488.199C178.643 488.199 177.1 489.983 177.1 492.567C177.1 495.177 178.621 496.885 181.101 496.885ZM178.736 491.778C178.802 490.585 179.667 489.551 180.997 489.551C182.266 489.551 183.098 490.492 183.104 491.778H178.736ZM189.67 496.88C191.203 496.88 191.805 495.944 192.101 495.407H192.237V496.715H193.836V485.506H192.199V489.671H192.101C191.805 489.151 191.247 488.199 189.681 488.199C187.651 488.199 186.157 489.803 186.157 492.528C186.157 495.248 187.629 496.88 189.67 496.88ZM190.032 495.484C188.57 495.484 187.809 494.198 187.809 492.512C187.809 490.842 188.554 489.589 190.032 489.589C191.46 489.589 192.226 490.755 192.226 492.512C192.226 494.28 191.444 495.484 190.032 495.484ZM200.25 496.715H201.887V491.581C201.887 490.481 202.735 489.688 203.896 489.688C204.235 489.688 204.618 489.748 204.749 489.786V488.221C204.585 488.199 204.262 488.182 204.054 488.182C203.069 488.182 202.226 488.741 201.92 489.644H201.832V488.308H200.25V496.715ZM209.488 496.885C211.321 496.885 212.619 495.982 212.991 494.614L211.442 494.334C211.146 495.128 210.435 495.533 209.504 495.533C208.103 495.533 207.162 494.625 207.118 493.004H213.095V492.424C213.095 489.387 211.278 488.199 209.373 488.199C207.03 488.199 205.487 489.983 205.487 492.567C205.487 495.177 207.008 496.885 209.488 496.885ZM207.123 491.778C207.189 490.585 208.054 489.551 209.384 489.551C210.654 489.551 211.486 490.492 211.491 491.778H207.123ZM214.911 499.868H216.547V495.407H216.646C216.941 495.944 217.543 496.88 219.076 496.88C221.112 496.88 222.59 495.248 222.59 492.528C222.59 489.803 221.09 488.199 219.059 488.199C217.499 488.199 216.936 489.151 216.646 489.671H216.509V488.308H214.911V499.868ZM216.514 492.512C216.514 490.755 217.28 489.589 218.709 489.589C220.192 489.589 220.937 490.842 220.937 492.512C220.937 494.198 220.17 495.484 218.709 495.484C217.302 495.484 216.514 494.28 216.514 492.512ZM226.87 496.901C228.26 496.901 229.043 496.195 229.355 495.566H229.42V496.715H231.019V491.133C231.019 488.686 229.092 488.199 227.756 488.199C226.235 488.199 224.834 488.812 224.286 490.344L225.824 490.695C226.065 490.098 226.678 489.523 227.778 489.523C228.835 489.523 229.377 490.076 229.377 491.029V491.067C229.377 491.663 228.764 491.653 227.253 491.828C225.66 492.014 224.029 492.43 224.029 494.34C224.029 495.993 225.272 496.901 226.87 496.901ZM227.225 495.588C226.301 495.588 225.633 495.172 225.633 494.362C225.633 493.486 226.41 493.174 227.357 493.048C227.888 492.977 229.147 492.835 229.382 492.599V493.683C229.382 494.679 228.588 495.588 227.225 495.588ZM233.932 499.868C235.284 499.868 236.137 499.162 236.625 497.837L240.1 488.325L238.332 488.308L236.203 494.833H236.116L233.986 488.308H232.235L235.311 496.825L235.108 497.383C234.692 498.5 234.107 498.593 233.209 498.346L232.815 499.687C233.012 499.775 233.439 499.868 233.932 499.868ZM241.642 496.715H243.279V491.532C243.279 490.399 244.072 489.611 245.003 489.611C245.911 489.611 246.541 490.213 246.541 491.127V496.715H248.172V491.357C248.172 490.344 248.79 489.611 249.858 489.611C250.722 489.611 251.434 490.093 251.434 491.231V496.715H253.07V491.078C253.07 489.157 251.998 488.199 250.476 488.199C249.267 488.199 248.358 488.779 247.953 489.677H247.865C247.499 488.757 246.727 488.199 245.605 488.199C244.494 488.199 243.667 488.752 243.317 489.677H243.213V488.308H241.642V496.715ZM258.887 496.885C260.721 496.885 262.018 495.982 262.39 494.614L260.841 494.334C260.546 495.128 259.834 495.533 258.904 495.533C257.502 495.533 256.561 494.625 256.517 493.004H262.494V492.424C262.494 489.387 260.677 488.199 258.772 488.199C256.43 488.199 254.886 489.983 254.886 492.567C254.886 495.177 256.408 496.885 258.887 496.885ZM256.523 491.778C256.588 490.585 257.453 489.551 258.783 489.551C260.053 489.551 260.885 490.492 260.89 491.778H256.523ZM265.946 491.724C265.946 490.383 266.767 489.616 267.906 489.616C269.017 489.616 269.69 490.344 269.69 491.565V496.715H271.327V491.368C271.327 489.288 270.183 488.199 268.464 488.199C267.2 488.199 266.373 488.785 265.985 489.677H265.881V488.308H264.31V496.715H265.946V491.724ZM277.446 488.308H275.722V486.294H274.085V488.308H272.854V489.622H274.085V494.586C274.08 496.113 275.246 496.852 276.537 496.825C277.057 496.819 277.408 496.721 277.599 496.65L277.304 495.298C277.194 495.32 276.992 495.369 276.729 495.369C276.198 495.369 275.722 495.194 275.722 494.247V489.622H277.446V488.308ZM286.482 496.88C288.015 496.88 288.617 495.944 288.912 495.407H289.049V496.715H290.647V485.506H289.011V489.671H288.912C288.617 489.151 288.059 488.199 286.493 488.199C284.463 488.199 282.968 489.803 282.968 492.528C282.968 495.248 284.441 496.88 286.482 496.88ZM286.844 495.484C285.382 495.484 284.621 494.198 284.621 492.512C284.621 490.842 285.366 489.589 286.844 489.589C288.272 489.589 289.038 490.755 289.038 492.512C289.038 494.28 288.256 495.484 286.844 495.484ZM295.43 496.901C296.82 496.901 297.603 496.195 297.915 495.566H297.98V496.715H299.579V491.133C299.579 488.686 297.652 488.199 296.316 488.199C294.795 488.199 293.394 488.812 292.846 490.344L294.384 490.695C294.625 490.098 295.238 489.523 296.338 489.523C297.395 489.523 297.937 490.076 297.937 491.029V491.067C297.937 491.663 297.324 491.653 295.813 491.828C294.22 492.014 292.589 492.43 292.589 494.34C292.589 495.993 293.832 496.901 295.43 496.901ZM295.786 495.588C294.861 495.588 294.193 495.172 294.193 494.362C294.193 493.486 294.97 493.174 295.917 493.048C296.448 492.977 297.707 492.835 297.942 492.599V493.683C297.942 494.679 297.148 495.588 295.786 495.588ZM305.683 488.308H303.959V486.294H302.322V488.308H301.091V489.622H302.322V494.586C302.317 496.113 303.482 496.852 304.774 496.825C305.294 496.819 305.644 496.721 305.836 496.65L305.54 495.298C305.431 495.32 305.228 495.369 304.966 495.369C304.435 495.369 303.959 495.194 303.959 494.247V489.622H305.683V488.308ZM311.026 496.885C312.86 496.885 314.157 495.982 314.529 494.614L312.98 494.334C312.684 495.128 311.973 495.533 311.042 495.533C309.641 495.533 308.7 494.625 308.656 493.004H314.633V492.424C314.633 489.387 312.816 488.199 310.911 488.199C308.568 488.199 307.025 489.983 307.025 492.567C307.025 495.177 308.547 496.885 311.026 496.885ZM308.662 491.778C308.727 490.585 309.592 489.551 310.922 489.551C312.192 489.551 313.024 490.492 313.029 491.778H308.662Z" fill="#1B3F4F"/>
<path fill-rule="evenodd" clip-rule="evenodd" d="M121.284 537.344C121.629 537.689 121.629 538.248 121.284 538.592L111.571 548.306C111.226 548.651 110.667 548.651 110.322 548.306L105.907 543.891C105.562 543.546 105.562 542.987 105.907 542.642C106.252 542.297 106.811 542.297 107.156 542.642L110.947 546.433L120.036 537.344C120.38 536.999 120.939 536.999 121.284 537.344Z" fill="#E09945"/>
<path d="M144.105 537.534H142.43V545.766H142.326L136.623 537.534H135.058V548.743H136.749V540.522H136.853L142.551 548.743H144.105V537.534ZM149.982 548.913C152.352 548.913 153.901 547.178 153.901 544.578C153.901 541.962 152.352 540.227 149.982 540.227C147.612 540.227 146.063 541.962 146.063 544.578C146.063 547.178 147.612 548.913 149.982 548.913ZM149.987 547.539C148.439 547.539 147.716 546.187 147.716 544.573C147.716 542.963 148.439 541.595 149.987 541.595C151.525 541.595 152.248 542.963 152.248 544.573C152.248 546.187 151.525 547.539 149.987 547.539ZM163.43 548.913C165.264 548.913 166.561 548.01 166.933 546.642L165.384 546.362C165.088 547.156 164.377 547.561 163.446 547.561C162.045 547.561 161.104 546.652 161.06 545.032H167.037V544.452C167.037 541.415 165.22 540.227 163.315 540.227C160.972 540.227 159.429 542.011 159.429 544.595C159.429 547.205 160.951 548.913 163.43 548.913ZM161.065 543.806C161.131 542.613 161.996 541.579 163.326 541.579C164.596 541.579 165.428 542.52 165.433 543.806H161.065ZM176.165 551.896V540.336H174.567V541.699H174.43C174.14 541.179 173.576 540.227 172.016 540.227C169.986 540.227 168.486 541.83 168.486 544.556C168.486 547.276 169.964 548.907 172 548.907C173.532 548.907 174.134 547.972 174.43 547.435H174.528V551.896H176.165ZM174.561 544.54C174.561 546.308 173.773 547.512 172.366 547.512C170.905 547.512 170.139 546.226 170.139 544.54C170.139 542.87 170.883 541.617 172.366 541.617C173.795 541.617 174.561 542.783 174.561 544.54ZM183.691 545.257C183.696 546.685 182.634 547.364 181.715 547.364C180.702 547.364 180.002 546.631 180.002 545.487V540.336H178.365V545.684C178.365 547.769 179.509 548.853 181.124 548.853C182.388 548.853 183.247 548.185 183.636 547.287H183.724V548.743H185.333V540.336H183.691V545.257ZM187.532 548.743H189.168V540.336H187.532V548.743ZM188.358 539.039C188.922 539.039 189.393 538.601 189.393 538.065C189.393 537.528 188.922 537.085 188.358 537.085C187.789 537.085 187.324 537.528 187.324 538.065C187.324 538.601 187.789 539.039 188.358 539.039ZM195.294 540.336H193.57V538.322H191.934V540.336H190.702V541.65H191.934V546.614C191.928 548.141 193.094 548.88 194.386 548.853C194.906 548.847 195.256 548.749 195.447 548.678L195.152 547.326C195.042 547.348 194.84 547.397 194.577 547.397C194.046 547.397 193.57 547.222 193.57 546.275V541.65H195.294V540.336ZM198.139 551.896C199.491 551.896 200.345 551.19 200.832 549.865L204.307 540.353L202.539 540.336L200.41 546.86H200.323L198.194 540.336H196.442L199.518 548.853L199.316 549.411C198.9 550.528 198.314 550.621 197.416 550.374L197.022 551.715C197.219 551.803 197.646 551.896 198.139 551.896Z" fill="#1B3F4F"/>
<path fill-rule="evenodd" clip-rule="evenodd" d="M346.073 485.316C346.418 485.661 346.418 486.22 346.073 486.565L336.36 496.278C336.015 496.623 335.456 496.623 335.111 496.278L330.696 491.863C330.351 491.518 330.351 490.959 330.696 490.614C331.041 490.269 331.6 490.269 331.945 490.614L335.736 494.405L344.825 485.316C345.169 484.971 345.729 484.971 346.073 485.316Z" fill="#E09945"/>
<path d="M368.894 485.506H367.219V493.738H367.115L361.412 485.506H359.847V496.715H361.538V488.494H361.642L367.34 496.715H368.894V485.506ZM374.771 496.885C377.141 496.885 378.69 495.15 378.69 492.55C378.69 489.934 377.141 488.199 374.771 488.199C372.401 488.199 370.852 489.934 370.852 492.55C370.852 495.15 372.401 496.885 374.771 496.885ZM374.777 495.511C373.228 495.511 372.505 494.159 372.505 492.545C372.505 490.936 373.228 489.567 374.777 489.567C376.315 489.567 377.037 490.936 377.037 492.545C377.037 494.159 376.315 495.511 374.777 495.511ZM384.596 499.868H386.232V495.407H386.331C386.626 495.944 387.228 496.88 388.761 496.88C390.797 496.88 392.275 495.248 392.275 492.528C392.275 489.803 390.775 488.199 388.744 488.199C387.185 488.199 386.621 489.151 386.331 489.671H386.194V488.308H384.596V499.868ZM386.199 492.512C386.199 490.755 386.966 489.589 388.394 489.589C389.877 489.589 390.622 490.842 390.622 492.512C390.622 494.198 389.856 495.484 388.394 495.484C386.988 495.484 386.199 494.28 386.199 492.512ZM397.732 496.885C399.565 496.885 400.862 495.982 401.235 494.614L399.686 494.334C399.39 495.128 398.679 495.533 397.748 495.533C396.347 495.533 395.405 494.625 395.362 493.004H401.339V492.424C401.339 489.387 399.521 488.199 397.617 488.199C395.274 488.199 393.731 489.983 393.731 492.567C393.731 495.177 395.252 496.885 397.732 496.885ZM395.367 491.778C395.433 490.585 396.298 489.551 397.628 489.551C398.897 489.551 399.729 490.492 399.735 491.778H395.367ZM403.154 496.715H404.791V491.581C404.791 490.481 405.639 489.688 406.8 489.688C407.139 489.688 407.522 489.748 407.653 489.786V488.221C407.489 488.199 407.166 488.182 406.958 488.182C405.973 488.182 405.13 488.741 404.824 489.644H404.736V488.308H403.154V496.715ZM415.369 490.361C415.03 489.053 414.007 488.199 412.189 488.199C410.29 488.199 408.944 489.2 408.944 490.689C408.944 491.882 409.666 492.676 411.242 493.026L412.666 493.338C413.476 493.519 413.853 493.88 413.853 494.406C413.853 495.057 413.158 495.566 412.085 495.566C411.106 495.566 410.476 495.144 410.279 494.318L408.697 494.559C408.971 496.048 410.208 496.885 412.096 496.885C414.127 496.885 415.534 495.807 415.534 494.285C415.534 493.097 414.778 492.364 413.235 492.008L411.899 491.702C410.974 491.483 410.575 491.171 410.58 490.602C410.575 489.956 411.275 489.496 412.206 489.496C413.224 489.496 413.695 490.06 413.886 490.624L415.369 490.361ZM420.874 496.885C423.244 496.885 424.793 495.15 424.793 492.55C424.793 489.934 423.244 488.199 420.874 488.199C418.504 488.199 416.955 489.934 416.955 492.55C416.955 495.15 418.504 496.885 420.874 496.885ZM420.88 495.511C419.331 495.511 418.608 494.159 418.608 492.545C418.608 490.936 419.331 489.567 420.88 489.567C422.418 489.567 423.14 490.936 423.14 492.545C423.14 494.159 422.418 495.511 420.88 495.511ZM428.256 491.724C428.256 490.383 429.077 489.616 430.216 489.616C431.327 489.616 432 490.344 432 491.565V496.715H433.637V491.368C433.637 489.288 432.493 488.199 430.774 488.199C429.51 488.199 428.683 488.785 428.295 489.677H428.191V488.308H426.62V496.715H428.256V491.724ZM438.278 496.901C439.668 496.901 440.451 496.195 440.763 495.566H440.828V496.715H442.427V491.133C442.427 488.686 440.5 488.199 439.165 488.199C437.643 488.199 436.242 488.812 435.695 490.344L437.233 490.695C437.473 490.098 438.086 489.523 439.186 489.523C440.243 489.523 440.785 490.076 440.785 491.029V491.067C440.785 491.663 440.172 491.653 438.661 491.828C437.068 492.014 435.437 492.43 435.437 494.34C435.437 495.993 436.68 496.901 438.278 496.901ZM438.634 495.588C437.709 495.588 437.041 495.172 437.041 494.362C437.041 493.486 437.818 493.174 438.765 493.048C439.296 492.977 440.555 492.835 440.79 492.599V493.683C440.79 494.679 439.997 495.588 438.634 495.588ZM446.243 485.506H444.606V496.715H446.243V485.506ZM456.048 500.043C458.188 500.043 459.841 499.063 459.841 496.901V488.308H458.238V489.671H458.117C457.827 489.151 457.247 488.199 455.682 488.199C453.651 488.199 452.157 489.803 452.157 492.479C452.157 495.161 453.684 496.589 455.671 496.589C457.214 496.589 457.811 495.719 458.106 495.183H458.21V496.836C458.21 498.155 457.307 498.724 456.065 498.724C454.702 498.724 454.171 498.04 453.881 497.558L452.474 498.138C452.918 499.167 454.04 500.043 456.048 500.043ZM456.032 495.232C454.571 495.232 453.81 494.11 453.81 492.457C453.81 490.842 454.554 489.589 456.032 489.589C457.461 489.589 458.227 490.755 458.227 492.457C458.227 494.192 457.444 495.232 456.032 495.232ZM467.362 493.229C467.367 494.657 466.305 495.336 465.386 495.336C464.373 495.336 463.673 494.603 463.673 493.459V488.308H462.036V493.656C462.036 495.741 463.18 496.825 464.795 496.825C466.059 496.825 466.918 496.157 467.307 495.259H467.395V496.715H469.004V488.308H467.362V493.229ZM471.203 496.715H472.839V491.581C472.839 490.481 473.688 489.688 474.848 489.688C475.187 489.688 475.57 489.748 475.702 489.786V488.221C475.537 488.199 475.215 488.182 475.007 488.182C474.021 488.182 473.178 488.741 472.872 489.644H472.784V488.308H471.203V496.715ZM479.489 496.901C480.879 496.901 481.662 496.195 481.974 495.566H482.04V496.715H483.638V491.133C483.638 488.686 481.711 488.199 480.376 488.199C478.854 488.199 477.453 488.812 476.906 490.344L478.444 490.695C478.685 490.098 479.298 489.523 480.398 489.523C481.454 489.523 481.996 490.076 481.996 491.029V491.067C481.996 491.663 481.383 491.653 479.872 491.828C478.28 492.014 476.649 492.43 476.649 494.34C476.649 495.993 477.891 496.901 479.489 496.901ZM479.845 495.588C478.92 495.588 478.252 495.172 478.252 494.362C478.252 493.486 479.029 493.174 479.976 493.048C480.507 492.977 481.766 492.835 482.001 492.599V493.683C482.001 494.679 481.208 495.588 479.845 495.588ZM487.454 491.724C487.454 490.383 488.275 489.616 489.414 489.616C490.525 489.616 491.198 490.344 491.198 491.565V496.715H492.835V491.368C492.835 489.288 491.691 488.199 489.972 488.199C488.708 488.199 487.881 488.785 487.493 489.677H487.389V488.308H485.818V496.715H487.454V491.724ZM498.954 488.308H497.23V486.294H495.593V488.308H494.362V489.622H495.593V494.586C495.588 496.113 496.753 496.852 498.045 496.825C498.565 496.819 498.915 496.721 499.107 496.65L498.811 495.298C498.702 495.32 498.499 495.369 498.237 495.369C497.706 495.369 497.23 495.194 497.23 494.247V489.622H498.954V488.308ZM504.297 496.885C506.131 496.885 507.428 495.982 507.8 494.614L506.251 494.334C505.955 495.128 505.244 495.533 504.313 495.533C502.912 495.533 501.971 494.625 501.927 493.004H507.904V492.424C507.904 489.387 506.087 488.199 504.182 488.199C501.839 488.199 500.296 489.983 500.296 492.567C500.296 495.177 501.818 496.885 504.297 496.885ZM501.933 491.778C501.998 490.585 502.863 489.551 504.193 489.551C505.463 489.551 506.295 490.492 506.3 491.778H501.933ZM513.343 496.885C515.177 496.885 516.474 495.982 516.846 494.614L515.297 494.334C515.001 495.128 514.29 495.533 513.359 495.533C511.958 495.533 511.017 494.625 510.973 493.004H516.95V492.424C516.95 489.387 515.133 488.199 513.228 488.199C510.886 488.199 509.342 489.983 509.342 492.567C509.342 495.177 510.864 496.885 513.343 496.885ZM510.979 491.778C511.044 490.585 511.909 489.551 513.239 489.551C514.509 489.551 515.341 490.492 515.346 491.778H510.979Z" fill="#1B3F4F"/>
<path fill-rule="evenodd" clip-rule="evenodd" d="M346.073 537.344C346.418 537.689 346.418 538.248 346.073 538.592L336.36 548.306C336.015 548.651 335.456 548.651 335.111 548.306L330.696 543.891C330.351 543.546 330.351 542.987 330.696 542.642C331.041 542.297 331.6 542.297 331.945 542.642L335.736 546.433L344.825 537.344C345.169 536.999 345.729 536.999 346.073 537.344Z" fill="#E09945"/>
<path d="M368.894 537.534H367.219V545.766H367.115L361.412 537.534H359.847V548.743H361.538V540.522H361.642L367.34 548.743H368.894V537.534ZM374.771 548.913C377.141 548.913 378.69 547.178 378.69 544.578C378.69 541.962 377.141 540.227 374.771 540.227C372.401 540.227 370.852 541.962 370.852 544.578C370.852 547.178 372.401 548.913 374.771 548.913ZM374.777 547.539C373.228 547.539 372.505 546.187 372.505 544.573C372.505 542.963 373.228 541.595 374.777 541.595C376.315 541.595 377.037 542.963 377.037 544.573C377.037 546.187 376.315 547.539 374.777 547.539ZM386.232 543.752C386.232 542.411 387.081 541.644 388.246 541.644C389.374 541.644 390.047 542.361 390.047 543.593V548.743H391.684V543.396C391.684 541.3 390.534 540.227 388.805 540.227C387.497 540.227 386.708 540.796 386.314 541.705H386.21V537.534H384.596V548.743H386.232V543.752ZM393.867 548.743H395.504V540.336H393.867V548.743ZM394.694 539.039C395.258 539.039 395.728 538.601 395.728 538.065C395.728 537.528 395.258 537.085 394.694 537.085C394.125 537.085 393.659 537.528 393.659 538.065C393.659 538.601 394.125 539.039 394.694 539.039ZM400.853 548.907C402.385 548.907 402.987 547.972 403.283 547.435H403.42V548.743H405.018V537.534H403.381V541.699H403.283C402.987 541.179 402.429 540.227 400.864 540.227C398.833 540.227 397.339 541.83 397.339 544.556C397.339 547.276 398.811 548.907 400.853 548.907ZM401.214 547.512C399.753 547.512 398.992 546.226 398.992 544.54C398.992 542.87 399.736 541.617 401.214 541.617C402.643 541.617 403.409 542.783 403.409 544.54C403.409 546.308 402.626 547.512 401.214 547.512ZM410.501 548.907C412.033 548.907 412.635 547.972 412.931 547.435H413.068V548.743H414.666V537.534H413.03V541.699H412.931C412.635 541.179 412.077 540.227 410.512 540.227C408.481 540.227 406.987 541.83 406.987 544.556C406.987 547.276 408.459 548.907 410.501 548.907ZM410.862 547.512C409.401 547.512 408.64 546.226 408.64 544.54C408.64 542.87 409.384 541.617 410.862 541.617C412.291 541.617 413.057 542.783 413.057 544.54C413.057 546.308 412.274 547.512 410.862 547.512ZM420.625 548.913C422.459 548.913 423.756 548.01 424.128 546.642L422.579 546.362C422.284 547.156 421.572 547.561 420.642 547.561C419.24 547.561 418.299 546.652 418.255 545.032H424.232V544.452C424.232 541.415 422.415 540.227 420.51 540.227C418.168 540.227 416.624 542.011 416.624 544.595C416.624 547.205 418.146 548.913 420.625 548.913ZM418.261 543.806C418.326 542.613 419.191 541.579 420.521 541.579C421.791 541.579 422.623 542.52 422.628 543.806H418.261ZM427.684 543.752C427.684 542.411 428.505 541.644 429.644 541.644C430.755 541.644 431.428 542.372 431.428 543.593V548.743H433.065V543.396C433.065 541.316 431.921 540.227 430.202 540.227C428.938 540.227 428.111 540.812 427.723 541.705H427.619V540.336H426.048V548.743H427.684V543.752ZM442.88 548.913C444.866 548.913 446.153 547.72 446.333 546.083H444.741C444.533 546.992 443.826 547.528 442.891 547.528C441.506 547.528 440.614 546.373 440.614 544.54C440.614 542.739 441.522 541.606 442.891 541.606C443.93 541.606 444.565 542.263 444.741 543.051H446.333C446.158 541.354 444.773 540.227 442.863 540.227C440.493 540.227 438.961 542.011 438.961 544.578C438.961 547.112 440.439 548.913 442.88 548.913ZM451.625 548.913C453.995 548.913 455.543 547.178 455.543 544.578C455.543 541.962 453.995 540.227 451.625 540.227C449.255 540.227 447.706 541.962 447.706 544.578C447.706 547.178 449.255 548.913 451.625 548.913ZM451.63 547.539C450.081 547.539 449.359 546.187 449.359 544.573C449.359 542.963 450.081 541.595 451.63 541.595C453.168 541.595 453.891 542.963 453.891 544.573C453.891 546.187 453.168 547.539 451.63 547.539ZM463.67 542.389C463.331 541.081 462.307 540.227 460.49 540.227C458.591 540.227 457.244 541.228 457.244 542.717C457.244 543.91 457.967 544.704 459.543 545.054L460.966 545.366C461.776 545.547 462.154 545.908 462.154 546.434C462.154 547.085 461.459 547.594 460.386 547.594C459.406 547.594 458.777 547.172 458.58 546.346L456.998 546.587C457.272 548.076 458.509 548.913 460.397 548.913C462.428 548.913 463.834 547.835 463.834 546.313C463.834 545.125 463.079 544.392 461.535 544.036L460.2 543.73C459.275 543.511 458.875 543.199 458.881 542.63C458.875 541.984 459.576 541.524 460.506 541.524C461.524 541.524 461.995 542.088 462.187 542.651L463.67 542.389ZM469.558 540.336H467.834V538.322H466.197V540.336H464.966V541.65H466.197V546.614C466.192 548.141 467.358 548.88 468.649 548.853C469.169 548.847 469.52 548.749 469.711 548.678L469.416 547.326C469.306 547.348 469.104 547.397 468.841 547.397C468.31 547.397 467.834 547.222 467.834 546.275V541.65H469.558V540.336ZM477.533 542.389C477.193 541.081 476.17 540.227 474.353 540.227C472.453 540.227 471.107 541.228 471.107 542.717C471.107 543.91 471.829 544.704 473.406 545.054L474.829 545.366C475.639 545.547 476.016 545.908 476.016 546.434C476.016 547.085 475.321 547.594 474.249 547.594C473.269 547.594 472.639 547.172 472.442 546.346L470.861 546.587C471.134 548.076 472.371 548.913 474.259 548.913C476.29 548.913 477.697 547.835 477.697 546.313C477.697 545.125 476.941 544.392 475.398 544.036L474.062 543.73C473.137 543.511 472.738 543.199 472.743 542.63C472.738 541.984 473.438 541.524 474.369 541.524C475.387 541.524 475.858 542.088 476.049 542.651L477.533 542.389Z" fill="#1B3F4F"/>
<path d="M186.96 167.019C191.7 167.019 195.006 163.801 195.006 159.345C195.006 155.032 192.007 151.924 187.934 151.924C186.117 151.924 184.508 152.646 183.676 153.631H183.545L184.191 147.687H193.835V144.294H180.83L179.659 155.853L183.326 156.455C184.081 155.624 185.504 155.065 186.851 155.076C189.314 155.087 191.087 156.904 191.076 159.444C191.087 161.951 189.357 163.735 186.96 163.735C184.935 163.735 183.304 162.454 183.162 160.615H179.221C179.33 164.337 182.581 167.019 186.96 167.019ZM206.96 167.139C212.367 167.15 215.596 162.881 215.596 155.525C215.596 148.213 212.345 143.987 206.96 143.987C201.574 143.987 198.334 148.202 198.323 155.525C198.323 162.87 201.552 167.139 206.96 167.139ZM206.96 163.713C204.168 163.713 202.417 160.911 202.428 155.525C202.439 150.183 204.179 147.37 206.96 147.37C209.751 147.37 211.491 150.183 211.502 155.525C211.502 160.911 209.762 163.713 206.96 163.713ZM223.057 163.647H219.554L219.477 164.873C219.291 167.84 218.514 170.861 218.196 172.186H220.867C221.393 170.807 222.608 167.61 222.914 164.852L223.057 163.647ZM234.865 167.139C240.273 167.15 243.502 162.881 243.502 155.525C243.502 148.213 240.251 143.987 234.865 143.987C229.48 143.987 226.239 148.202 226.228 155.525C226.228 162.87 229.458 167.139 234.865 167.139ZM234.865 163.713C232.074 163.713 230.322 160.911 230.333 155.525C230.344 150.183 232.085 147.37 234.865 147.37C237.657 147.37 239.397 150.183 239.408 155.525C239.408 160.911 237.668 163.713 234.865 163.713ZM255.426 167.139C260.833 167.15 264.063 162.881 264.063 155.525C264.063 148.213 260.812 143.987 255.426 143.987C250.04 143.987 246.8 148.202 246.789 155.525C246.789 162.87 250.018 167.139 255.426 167.139ZM255.426 163.713C252.634 163.713 250.883 160.911 250.894 155.525C250.905 150.183 252.645 147.37 255.426 147.37C258.217 147.37 259.958 150.183 259.969 155.525C259.969 160.911 258.228 163.713 255.426 163.713ZM275.986 167.139C281.394 167.15 284.623 162.881 284.623 155.525C284.623 148.213 281.372 143.987 275.986 143.987C270.601 143.987 267.36 148.202 267.349 155.525C267.349 162.87 270.579 167.139 275.986 167.139ZM275.986 163.713C273.195 163.713 271.443 160.911 271.454 155.525C271.465 150.183 273.206 147.37 275.986 147.37C278.778 147.37 280.518 150.183 280.529 155.525C280.529 160.911 278.789 163.713 275.986 163.713Z" fill="#183947"/>
<rect x="112.633" y="136.674" width="45.2752" height="38.5321" rx="5" fill="#F4F8FC"/>
<path d="M134.003 164.032H135.309L135.315 162.622C137.957 162.431 139.471 160.978 139.477 158.915C139.471 156.729 137.667 155.732 135.771 155.282L135.364 155.177L135.389 151.661C136.374 151.834 137.008 152.425 137.107 153.312H139.305C139.268 151.354 137.729 149.925 135.401 149.703L135.407 148.269H134.102L134.096 149.703C131.787 149.937 130.124 151.354 130.13 153.392C130.13 155.202 131.417 156.243 133.492 156.778L134.047 156.92L134.022 160.645C132.92 160.473 132.125 159.845 132.045 158.73H129.798C129.884 161.039 131.473 162.412 134.01 162.622L134.003 164.032ZM135.327 160.645L135.352 157.265C136.473 157.591 137.187 158.022 137.193 158.896C137.187 159.808 136.454 160.46 135.327 160.645ZM134.059 154.845C133.209 154.574 132.433 154.124 132.446 153.25C132.452 152.456 133.049 151.84 134.084 151.661L134.059 154.845Z" fill="#131313"/>
<rect x="103.481" y="127.524" width="395.918" height="56.8462" rx="9.51876" stroke="#2D3156" stroke-opacity="0.12" stroke-width="0.96248"/>
<path d="M104.385 94.9295V107.54H106.196V98.4085H106.313L110.032 107.522H111.534L115.253 98.4147H115.37V107.54H117.181V94.9295H114.872L110.857 104.732H110.709L106.694 94.9295H104.385ZM123.783 107.731C126.449 107.731 128.192 105.779 128.192 102.854C128.192 99.9109 126.449 97.959 123.783 97.959C121.117 97.959 119.374 99.9109 119.374 102.854C119.374 105.779 121.117 107.731 123.783 107.731ZM123.789 106.185C122.047 106.185 121.234 104.664 121.234 102.848C121.234 101.038 122.047 99.4984 123.789 99.4984C125.519 99.4984 126.332 101.038 126.332 102.848C126.332 104.664 125.519 106.185 123.789 106.185ZM132.088 101.924C132.088 100.416 133.012 99.5538 134.292 99.5538C135.542 99.5538 136.3 100.373 136.3 101.746V107.54H138.141V101.524C138.141 99.1843 136.854 97.959 134.92 97.959C133.498 97.959 132.568 98.6179 132.131 99.6215H132.014V98.0822H130.247V107.54H132.088V101.924ZM145.025 98.0822H143.085V95.8162H141.244V98.0822H139.859V99.56H141.244V105.145C141.238 106.863 142.549 107.694 144.003 107.663C144.588 107.657 144.982 107.546 145.197 107.466L144.865 105.945C144.742 105.97 144.514 106.025 144.218 106.025C143.621 106.025 143.085 105.828 143.085 104.763V99.56H145.025V98.0822ZM149.106 101.924C149.106 100.416 150.06 99.5538 151.372 99.5538C152.64 99.5538 153.397 100.36 153.397 101.746V107.54H155.238V101.524C155.238 99.1659 153.945 97.959 152 97.959C150.528 97.959 149.641 98.5994 149.198 99.6215H149.081V94.9295H147.265V107.54H149.106V101.924ZM159.536 94.9295H157.695V107.54H159.536V94.9295ZM163.177 111.087C164.698 111.087 165.658 110.292 166.206 108.802L170.116 98.1006L168.128 98.0822L165.732 105.422H165.634L163.239 98.0822H161.268L164.729 107.663L164.501 108.291C164.033 109.547 163.374 109.652 162.364 109.375L161.921 110.884C162.143 110.982 162.623 111.087 163.177 111.087ZM176.588 107.54H178.491V102.768H181.077C181.12 102.768 181.157 102.768 181.2 102.768L183.761 107.54H185.929L183.133 102.435C184.679 101.863 185.449 100.576 185.449 98.8826C185.449 96.5613 184.008 94.9295 181.083 94.9295H176.588V107.54ZM178.491 101.13V96.5613H180.88C182.758 96.5613 183.534 97.4541 183.534 98.8826C183.534 100.305 182.758 101.13 180.904 101.13H178.491ZM191.574 107.731C193.636 107.731 195.096 106.715 195.515 105.176L193.772 104.862C193.439 105.754 192.639 106.21 191.592 106.21C190.016 106.21 188.957 105.188 188.908 103.365H195.632V102.713C195.632 99.2952 193.587 97.959 191.444 97.959C188.809 97.959 187.073 99.9663 187.073 102.873C187.073 105.81 188.784 107.731 191.574 107.731ZM188.914 101.986C188.988 100.644 189.96 99.4799 191.457 99.4799C192.885 99.4799 193.821 100.539 193.827 101.986H188.914ZM205.477 98.0822H203.501L201.112 105.36H201.013L198.618 98.0822H196.641L200.077 107.54H202.048L205.477 98.0822ZM210.945 107.731C213.008 107.731 214.467 106.715 214.886 105.176L213.143 104.862C212.811 105.754 212.01 106.21 210.964 106.21C209.387 106.21 208.328 105.188 208.279 103.365H215.003V102.713C215.003 99.2952 212.959 97.959 210.816 97.959C208.18 97.959 206.444 99.9663 206.444 102.873C206.444 105.81 208.156 107.731 210.945 107.731ZM208.285 101.986C208.359 100.644 209.332 99.4799 210.828 99.4799C212.257 99.4799 213.193 100.539 213.199 101.986H208.285ZM218.887 101.924C218.887 100.416 219.81 99.5538 221.091 99.5538C222.341 99.5538 223.098 100.373 223.098 101.746V107.54H224.94V101.524C224.94 99.1843 223.653 97.959 221.719 97.959C220.297 97.959 219.367 98.6179 218.93 99.6215H218.813V98.0822H217.046V107.54H218.887V101.924ZM233.4 103.618C233.406 105.225 232.212 105.988 231.177 105.988C230.038 105.988 229.25 105.163 229.25 103.876V98.0822H227.409V104.098C227.409 106.444 228.696 107.663 230.512 107.663C231.934 107.663 232.901 106.912 233.338 105.902H233.437V107.54H235.247V98.0822H233.4V103.618ZM241.797 107.731C243.86 107.731 245.319 106.715 245.738 105.176L243.995 104.862C243.663 105.754 242.862 106.21 241.816 106.21C240.239 106.21 239.18 105.188 239.131 103.365H245.855V102.713C245.855 99.2952 243.811 97.959 241.668 97.959C239.032 97.959 237.296 99.9663 237.296 102.873C237.296 105.81 239.008 107.731 241.797 107.731ZM239.137 101.986C239.211 100.644 240.184 99.4799 241.68 99.4799C243.109 99.4799 244.045 100.539 244.051 101.986H239.137Z" fill="#1B3F4F"/>
<path d="M179.166 292.928H194.535V289.535H184.771V289.381L188.635 285.451C192.992 281.27 194.196 279.234 194.196 276.705C194.196 272.95 191.142 270.203 186.632 270.203C182.187 270.203 179.035 272.961 179.035 277.22H182.899C182.899 274.932 184.344 273.498 186.577 273.498C188.712 273.498 190.299 274.8 190.299 276.913C190.299 278.785 189.16 280.12 186.949 282.365L179.166 289.994V292.928ZM206.106 293.235C210.846 293.235 214.152 290.016 214.152 285.561C214.152 281.248 211.152 278.139 207.08 278.139C205.263 278.139 203.654 278.862 202.822 279.847H202.69L203.336 273.903H212.98V270.509H199.976L198.804 282.069L202.471 282.671C203.227 281.839 204.65 281.281 205.996 281.292C208.459 281.303 210.233 283.12 210.222 285.659C210.233 288.166 208.503 289.951 206.106 289.951C204.081 289.951 202.45 288.67 202.307 286.831H198.366C198.476 290.553 201.727 293.235 206.106 293.235Z" fill="#183947"/>
<rect x="112.633" y="262.889" width="45.2752" height="38.5321" rx="5" fill="#F4F8FC"/>
<path d="M136.873 286.307C136.879 287.772 137.809 289.022 139.539 289.022C141.263 289.022 142.211 287.772 142.205 286.307V285.642C142.211 284.164 141.288 282.926 139.539 282.926C137.833 282.926 136.879 284.176 136.873 285.642V286.307ZM130.463 279.09C130.469 280.556 131.399 281.793 133.135 281.793C134.853 281.793 135.801 280.568 135.795 279.09V278.425C135.801 276.947 134.878 275.71 133.135 275.71C131.436 275.71 130.469 276.947 130.463 278.425V279.09ZM131.017 288.671H132.563L141.232 276.061H139.687L131.017 288.671ZM138.48 285.642C138.486 284.989 138.763 284.33 139.539 284.33C140.352 284.33 140.592 284.989 140.586 285.642V286.307C140.592 286.959 140.327 287.606 139.539 287.606C138.751 287.606 138.486 286.953 138.48 286.307V285.642ZM132.082 278.425C132.089 277.779 132.353 277.114 133.135 277.114C133.948 277.114 134.182 277.772 134.176 278.425V279.09C134.182 279.743 133.923 280.389 133.135 280.389C132.347 280.389 132.089 279.743 132.082 279.09V278.425Z" fill="#131313"/>
<rect x="103.481" y="253.739" width="395.918" height="56.8462" rx="9.51876" stroke="#2D3156" stroke-opacity="0.12" stroke-width="0.96248"/>
<path d="M112.92 225.129H114.872C114.447 222.672 112.347 220.973 109.625 220.973C106.362 220.973 103.979 223.429 103.979 227.456C103.979 231.447 106.294 233.928 109.712 233.928C112.772 233.928 114.958 231.921 114.958 228.737V227.303H110.001V228.873H113.117C113.074 230.905 111.731 232.192 109.712 232.192C107.489 232.192 105.869 230.511 105.869 227.444C105.869 224.39 107.501 222.709 109.638 222.709C111.313 222.709 112.446 223.633 112.92 225.129ZM117.225 233.756H119.066V227.98C119.066 226.742 120.021 225.849 121.326 225.849C121.708 225.849 122.139 225.917 122.287 225.96V224.199C122.102 224.175 121.739 224.156 121.505 224.156C120.396 224.156 119.448 224.784 119.103 225.8H119.005V224.298H117.225V233.756ZM127.525 233.946C130.191 233.946 131.934 231.995 131.934 229.07C131.934 226.126 130.191 224.175 127.525 224.175C124.859 224.175 123.116 226.126 123.116 229.07C123.116 231.995 124.859 233.946 127.525 233.946ZM127.531 232.401C125.789 232.401 124.976 230.88 124.976 229.064C124.976 227.253 125.789 225.714 127.531 225.714C129.262 225.714 130.074 227.253 130.074 229.064C130.074 230.88 129.262 232.401 127.531 232.401ZM135.752 233.756H137.623L139.545 226.927H139.686L141.607 233.756H143.485L146.262 224.298H144.36L142.519 231.213H142.426L140.579 224.298H138.676L136.817 231.243H136.724L134.871 224.298H132.968L135.752 233.756ZM152.425 224.298H150.485V222.032H148.644V224.298H147.258V225.775H148.644V231.36C148.638 233.078 149.949 233.909 151.402 233.879C151.987 233.873 152.381 233.762 152.597 233.682L152.264 232.161C152.141 232.185 151.913 232.241 151.618 232.241C151.021 232.241 150.485 232.044 150.485 230.979V225.775H152.425V224.298ZM156.505 228.14C156.505 226.631 157.46 225.769 158.771 225.769C160.04 225.769 160.797 226.576 160.797 227.961V233.756H162.638V227.74C162.638 225.381 161.345 224.175 159.399 224.175C157.928 224.175 157.041 224.815 156.598 225.837H156.481V221.145H154.664V233.756H156.505V228.14ZM169.832 233.756H171.734V228.984H174.32C174.364 228.984 174.401 228.984 174.444 228.984L177.005 233.756H179.173L176.377 228.651C177.923 228.078 178.692 226.791 178.692 225.098C178.692 222.777 177.251 221.145 174.327 221.145H169.832V233.756ZM171.734 227.346V222.777H174.123C176.001 222.777 176.777 223.67 176.777 225.098C176.777 226.521 176.001 227.346 174.148 227.346H171.734ZM183.612 233.965C185.176 233.965 186.057 233.171 186.408 232.462H186.482V233.756H188.279V227.475C188.279 224.723 186.112 224.175 184.61 224.175C182.898 224.175 181.322 224.864 180.706 226.588L182.436 226.982C182.707 226.311 183.397 225.665 184.634 225.665C185.823 225.665 186.432 226.287 186.432 227.358V227.401C186.432 228.072 185.743 228.06 184.043 228.257C182.251 228.466 180.416 228.934 180.416 231.083C180.416 232.943 181.814 233.965 183.612 233.965ZM184.012 232.487C182.972 232.487 182.221 232.019 182.221 231.108C182.221 230.123 183.095 229.772 184.16 229.63C184.757 229.55 186.174 229.39 186.438 229.125V230.344C186.438 231.465 185.546 232.487 184.012 232.487ZM195.147 224.298H193.207V222.032H191.366V224.298H189.98V225.775H191.366V231.36C191.36 233.078 192.671 233.909 194.124 233.879C194.709 233.873 195.104 233.762 195.319 233.682L194.987 232.161C194.863 232.185 194.636 232.241 194.34 232.241C193.743 232.241 193.207 232.044 193.207 230.979V225.775H195.147V224.298ZM201.158 233.946C203.221 233.946 204.68 232.93 205.099 231.391L203.356 231.077C203.024 231.97 202.223 232.426 201.176 232.426C199.6 232.426 198.541 231.403 198.492 229.581H205.216V228.928C205.216 225.511 203.171 224.175 201.029 224.175C198.393 224.175 196.657 226.182 196.657 229.088C196.657 232.025 198.369 233.946 201.158 233.946ZM198.498 228.202C198.572 226.859 199.545 225.695 201.041 225.695C202.469 225.695 203.405 226.755 203.411 228.202H198.498Z" fill="#1B3F4F"/>
<rect x="103" y="338.044" width="154.128" height="46.247" rx="6" fill="#04AAC4"/>
<path d="M165.13 359.322C164.742 356.52 162.587 354.895 159.791 354.895C156.497 354.895 154.015 357.296 154.015 361.372C154.015 365.442 156.466 367.85 159.791 367.85C162.79 367.85 164.779 365.91 165.13 363.503L162.827 363.49C162.537 364.968 161.33 365.799 159.822 365.799C157.778 365.799 156.312 364.266 156.312 361.372C156.312 358.527 157.765 356.945 159.828 356.945C161.361 356.945 162.562 357.813 162.827 359.322H165.13ZM169.352 362.136C169.352 360.769 170.202 359.981 171.396 359.981C172.566 359.981 173.256 360.726 173.256 362V367.677H175.485V361.655C175.485 359.371 174.192 358.096 172.228 358.096C170.775 358.096 169.851 358.755 169.414 359.827H169.303V355.067H167.123V367.677H169.352V362.136ZM181.944 367.862C184.149 367.862 185.663 366.785 186.057 365.141L183.976 364.907C183.674 365.707 182.936 366.126 181.975 366.126C180.534 366.126 179.58 365.177 179.561 363.558H186.15V362.875C186.15 359.556 184.155 358.096 181.827 358.096C179.118 358.096 177.351 360.085 177.351 363.004C177.351 365.972 179.093 367.862 181.944 367.862ZM179.567 362.056C179.635 360.849 180.528 359.833 181.858 359.833C183.139 359.833 184.001 360.769 184.013 362.056H179.567ZM192.161 367.862C194.538 367.862 196.053 366.452 196.213 364.445H194.082C193.891 365.461 193.158 366.046 192.179 366.046C190.788 366.046 189.889 364.882 189.889 362.948C189.889 361.04 190.806 359.894 192.179 359.894C193.251 359.894 193.91 360.584 194.082 361.495H196.213C196.059 359.445 194.458 358.096 192.149 358.096C189.378 358.096 187.629 360.098 187.629 362.985C187.629 365.849 189.335 367.862 192.161 367.862ZM198.043 367.677H200.272V364.5L201.085 363.632L203.979 367.677H206.645L202.766 362.302L206.429 358.22H203.825L200.426 362.019H200.272V355.067H198.043V367.677Z" fill="white"/>
<defs>
<filter id="filter0_d_1991_2782" x="0.385319" y="0.835838" width="1204.13" height="708.128" filterUnits="userSpaceOnUse" color-interpolation-filters="sRGB">
<feFlood flood-opacity="0" result="BackgroundImageFix"/>
<feColorMatrix in="SourceAlpha" type="matrix" values="0 0 0 0 0 0 0 0 0 0 0 0 0 0 0 0 0 0 127 0" result="hardAlpha"/>
<feOffset dx="14.4495" dy="28.8991"/>
<feGaussianBlur stdDeviation="38.5321"/>
<feColorMatrix type="matrix" values="0 0 0 0 0.491354 0 0 0 0 0.584802 0 0 0 0 0.6625 0 0 0 0.2 0"/>
<feBlend mode="normal" in2="BackgroundImageFix" result="effect1_dropShadow_1991_2782"/>
<feBlend mode="normal" in="SourceGraphic" in2="effect1_dropShadow_1991_2782" result="shape"/>
</filter>
</defs>
</svg>
