<svg width="728" height="574" viewBox="0 0 728 574" fill="none" xmlns="http://www.w3.org/2000/svg">
<rect opacity="0.2" x="25" y="38" width="450" height="460" rx="10" fill="#EAF2F8"/>
<path d="M614.797 387.594C614.797 388.14 614.738 388.614 614.619 389.015C614.503 389.413 614.343 389.743 614.139 390.004C613.936 390.265 613.695 390.46 613.416 390.588C613.14 390.716 612.844 390.78 612.527 390.78C612.208 390.78 611.91 390.716 611.634 390.588C611.361 390.46 611.123 390.265 610.919 390.004C610.716 389.743 610.556 389.413 610.44 389.015C610.324 388.614 610.266 388.14 610.266 387.594C610.266 387.048 610.324 386.575 610.44 386.174C610.556 385.773 610.716 385.442 610.919 385.18C611.123 384.916 611.361 384.72 611.634 384.592C611.91 384.464 612.208 384.4 612.527 384.4C612.844 384.4 613.14 384.464 613.416 384.592C613.695 384.72 613.936 384.916 614.139 385.18C614.343 385.442 614.503 385.773 614.619 386.174C614.738 386.575 614.797 387.048 614.797 387.594ZM613.991 387.594C613.991 387.118 613.951 386.718 613.869 386.396C613.791 386.071 613.683 385.809 613.547 385.612C613.413 385.414 613.258 385.273 613.081 385.189C612.903 385.102 612.719 385.058 612.527 385.058C612.335 385.058 612.151 385.102 611.974 385.189C611.797 385.273 611.641 385.414 611.507 385.612C611.374 385.809 611.266 386.071 611.185 386.396C611.107 386.718 611.067 387.118 611.067 387.594C611.067 388.071 611.107 388.47 611.185 388.793C611.266 389.115 611.374 389.375 611.507 389.573C611.641 389.77 611.797 389.912 611.974 390C612.151 390.084 612.335 390.126 612.527 390.126C612.719 390.126 612.903 390.084 613.081 390C613.258 389.912 613.413 389.77 613.547 389.573C613.683 389.375 613.791 389.115 613.869 388.793C613.951 388.47 613.991 388.071 613.991 387.594Z" fill="#AEAEAE"/>
<path d="M609.998 331.731H609.34L607.982 332.633V333.302L609.308 332.421H609.34V337.164H609.998V331.731ZM611.571 337.164H612.197V335.639L612.635 335.233L614.16 337.164H614.956L613.107 334.83L614.828 333.089H614.054L612.271 334.904H612.197V331.731H611.571V337.164Z" fill="#768A8D"/>
<path d="M607.037 288.718H610.464V288.134H607.939V288.092L609.159 286.787C610.093 285.787 610.369 285.32 610.369 284.718C610.369 283.879 609.69 283.211 608.735 283.211C607.782 283.211 607.058 283.858 607.058 284.813H607.684C607.684 284.195 608.085 283.784 608.713 283.784C609.302 283.784 609.753 284.145 609.753 284.718C609.753 285.219 609.459 285.59 608.83 286.277L607.037 288.24V288.718ZM611.57 288.718H612.196V287.193L612.634 286.787L614.159 288.718H614.955L613.106 286.384L614.828 284.643H614.053L612.271 286.458H612.196V283.285H611.57V288.718Z" fill="#768A8D"/>
<path d="M608.639 239.726C609.692 239.726 610.474 239.066 610.474 238.177C610.474 237.488 610.066 236.986 609.381 236.872V236.83C609.93 236.663 610.273 236.212 610.273 235.599C610.273 234.83 609.665 234.145 608.66 234.145C607.721 234.145 606.941 234.723 606.909 235.578H607.546C607.57 235.036 608.084 234.718 608.649 234.718C609.249 234.718 609.636 235.082 609.636 235.631C609.636 236.204 609.188 236.575 608.543 236.575H608.108V237.159H608.543C609.368 237.159 609.827 237.578 609.827 238.177C609.827 238.753 609.326 239.143 608.628 239.143C607.999 239.143 607.501 238.819 607.461 238.294H606.792C606.832 239.148 607.586 239.726 608.639 239.726ZM611.57 239.652H612.196V238.127L612.634 237.721L614.159 239.652H614.955L613.106 237.318L614.827 235.578H614.053L612.27 237.392H612.196V234.219H611.57V239.652Z" fill="#768A8D"/>
<path d="M606.639 188.85H609.196V189.964H609.822V188.85H610.565V188.266H609.822V184.531H609.027L606.639 188.309V188.85ZM609.196 188.266H607.35V188.224L609.154 185.37H609.196V188.266ZM611.57 189.964H612.196V188.439L612.634 188.033L614.159 189.964H614.955L613.106 187.63L614.827 185.89H614.053L612.27 187.704H612.196V184.531H611.57V189.964Z" fill="#768A8D"/>
<g filter="url(#filter0_d_1764_6245)">
<rect x="140.002" y="78" width="510" height="352" rx="8" fill="white"/>
</g>
<path d="M162.412 397.864H161.754L160.396 398.766V399.434L161.722 398.553H161.754V403.297H162.412V397.864ZM169.142 399.222H169.778C169.749 398.402 168.993 397.79 167.943 397.79C166.903 397.79 166.086 398.394 166.086 399.307C166.086 400.039 166.616 400.474 167.465 400.718L168.134 400.909C168.707 401.068 169.216 401.27 169.216 401.811C169.216 402.405 168.643 402.798 167.89 402.798C167.242 402.798 166.669 402.511 166.616 401.896H165.937C166.001 402.787 166.722 403.392 167.89 403.392C169.142 403.392 169.853 402.702 169.853 401.822C169.853 400.803 168.887 400.474 168.325 400.325L167.773 400.177C167.37 400.071 166.722 399.859 166.722 399.275C166.722 398.755 167.2 398.373 167.921 398.373C168.579 398.373 169.078 398.686 169.142 399.222ZM172.558 403.381C173.385 403.381 173.99 402.968 174.181 402.352L173.576 402.182C173.417 402.607 173.048 402.819 172.558 402.819C171.823 402.819 171.316 402.344 171.287 401.471H174.245V401.206C174.245 399.689 173.343 399.169 172.494 399.169C171.39 399.169 170.658 400.039 170.658 401.291C170.658 402.543 171.38 403.381 172.558 403.381ZM171.287 400.93C171.329 400.296 171.778 399.731 172.494 399.731C173.173 399.731 173.608 400.241 173.608 400.93H171.287ZM175.197 404.824H175.823V402.67H175.876C176.014 402.893 176.279 403.381 177.065 403.381C178.083 403.381 178.794 402.564 178.794 401.27C178.794 399.986 178.083 399.169 177.054 399.169C176.258 399.169 176.014 399.657 175.876 399.869H175.802V399.222H175.197V404.824ZM175.812 401.259C175.812 400.347 176.216 399.731 176.98 399.731C177.775 399.731 178.168 400.4 178.168 401.259C178.168 402.129 177.765 402.819 176.98 402.819C176.226 402.819 175.812 402.182 175.812 401.259Z" fill="#768A8D"/>
<path d="M583.801 403.297H587.228V402.713H584.703V402.671L585.923 401.365C586.857 400.365 587.132 399.899 587.132 399.296C587.132 398.458 586.453 397.79 585.498 397.79C584.546 397.79 583.822 398.437 583.822 399.392H584.448C584.448 398.774 584.848 398.363 585.477 398.363C586.066 398.363 586.517 398.723 586.517 399.296C586.517 399.798 586.223 400.169 585.594 400.856L583.801 402.819V403.297ZM590.064 403.371C591.149 403.371 591.905 402.737 591.91 401.854C591.905 401.167 591.446 400.583 590.859 400.474V400.442C591.369 400.31 591.703 399.811 591.708 399.233C591.703 398.405 591.008 397.79 590.064 397.79C589.109 397.79 588.414 398.405 588.419 399.233C588.414 399.811 588.748 400.31 589.268 400.442V400.474C588.671 400.583 588.212 401.167 588.217 401.854C588.212 402.737 588.968 403.371 590.064 403.371ZM590.064 402.787C589.318 402.787 588.859 402.405 588.865 401.822C588.859 401.209 589.366 400.771 590.064 400.771C590.751 400.771 591.257 401.209 591.263 401.822C591.257 402.405 590.798 402.787 590.064 402.787ZM590.064 400.209C589.469 400.209 589.05 399.838 589.056 399.275C589.05 398.723 589.454 398.363 590.064 398.363C590.663 398.363 591.066 398.723 591.072 399.275C591.066 399.838 590.647 400.209 590.064 400.209ZM598.094 399.222H598.731C598.701 398.402 597.945 397.79 596.895 397.79C595.855 397.79 595.038 398.394 595.038 399.307C595.038 400.039 595.569 400.474 596.418 400.718L597.086 400.909C597.659 401.068 598.168 401.27 598.168 401.811C598.168 402.405 597.595 402.798 596.842 402.798C596.195 402.798 595.622 402.511 595.569 401.896H594.89C594.953 402.787 595.675 403.392 596.842 403.392C598.094 403.392 598.805 402.702 598.805 401.822C598.805 400.803 597.839 400.474 597.277 400.326L596.725 400.177C596.322 400.071 595.675 399.859 595.675 399.275C595.675 398.755 596.152 398.373 596.874 398.373C597.532 398.373 598.03 398.686 598.094 399.222ZM601.51 403.382C602.338 403.382 602.942 402.968 603.133 402.352L602.529 402.183C602.369 402.607 602.001 402.819 601.51 402.819C600.775 402.819 600.269 402.344 600.239 401.472H603.197V401.206C603.197 399.689 602.295 399.169 601.446 399.169C600.343 399.169 599.611 400.039 599.611 401.291C599.611 402.543 600.332 403.382 601.51 403.382ZM600.239 400.93C600.282 400.296 600.73 399.731 601.446 399.731C602.125 399.731 602.56 400.241 602.56 400.93H600.239ZM604.149 404.825H604.775V402.671H604.829C604.966 402.893 605.232 403.382 606.017 403.382C607.036 403.382 607.747 402.564 607.747 401.27C607.747 399.986 607.036 399.169 606.006 399.169C605.211 399.169 604.966 399.657 604.829 399.869H604.754V399.222H604.149V404.825ZM604.765 401.259C604.765 400.347 605.168 399.731 605.932 399.731C606.728 399.731 607.12 400.4 607.12 401.259C607.12 402.129 606.717 402.819 605.932 402.819C605.179 402.819 604.765 402.183 604.765 401.259Z" fill="#768A8D"/>
<path d="M478.11 104.904C477.811 103.037 476.35 101.946 474.505 101.946C472.246 101.946 470.58 103.638 470.58 106.429C470.58 109.22 472.238 110.912 474.505 110.912C476.422 110.912 477.824 109.71 478.11 107.985L476.78 107.98C476.554 109.097 475.617 109.71 474.513 109.71C473.017 109.71 471.888 108.564 471.888 106.429C471.888 104.311 473.013 103.148 474.517 103.148C475.63 103.148 476.563 103.774 476.78 104.904H478.11ZM480.364 110.793L481.165 108.483H484.574L485.371 110.793H486.769L483.628 102.066H482.107L478.966 110.793H480.364ZM481.549 107.375L482.836 103.651H482.904L484.191 107.375H481.549ZM494.868 104.904C494.569 103.037 493.108 101.946 491.262 101.946C489.004 101.946 487.338 103.638 487.338 106.429C487.338 109.22 488.995 110.912 491.262 110.912C493.18 110.912 494.582 109.71 494.868 107.985L493.538 107.98C493.312 109.097 492.375 109.71 491.271 109.71C489.775 109.71 488.646 108.564 488.646 106.429C488.646 104.311 489.771 103.148 491.275 103.148C492.387 103.148 493.321 103.774 493.538 104.904H494.868Z" fill="#768A8D"/>
<path d="M475.105 154.241H476.307L476.314 152.802C479.017 152.604 480.564 151.057 480.564 148.986C480.564 146.628 478.461 145.714 476.799 145.305L476.333 145.183L476.346 141.079C477.541 141.239 478.359 141.904 478.48 142.952H480.385C480.334 141.003 478.723 139.545 476.352 139.354L476.358 137.877H475.157L475.15 139.366C472.855 139.596 471.174 141.028 471.174 143.093C471.174 144.915 472.478 145.982 474.581 146.551L475.131 146.698L475.118 151.051C473.872 150.898 472.907 150.22 472.804 148.986H470.823C470.944 151.192 472.536 152.611 475.112 152.802L475.105 154.241ZM476.32 151.051L476.333 147.03C477.63 147.388 478.608 147.861 478.608 148.967C478.608 150.086 477.675 150.872 476.32 151.051ZM475.137 144.864C474.185 144.582 473.137 144.077 473.143 142.978C473.143 142.019 473.904 141.271 475.144 141.086L475.137 144.864ZM482.746 152.604H491.362V150.91H485.469V150.815L488.07 148.092C490.467 145.669 491.151 144.512 491.151 143.048C491.151 140.945 489.438 139.334 486.971 139.334C484.523 139.334 482.733 140.92 482.733 143.31H484.618C484.612 141.904 485.52 140.984 486.932 140.984C488.262 140.984 489.272 141.802 489.272 143.106C489.272 144.263 488.581 145.094 487.175 146.583L482.746 151.172V152.604ZM498.342 152.783C501.014 152.783 502.976 151.185 502.97 149.012C502.976 147.356 501.973 146.168 500.234 145.899V145.797C501.602 145.445 502.491 144.371 502.484 142.901C502.491 140.977 500.912 139.334 498.393 139.334C495.99 139.334 494.059 140.785 493.996 142.914H495.907C495.952 141.712 497.083 140.984 498.368 140.984C499.704 140.984 500.579 141.795 500.573 143.003C500.579 144.269 499.563 145.1 498.112 145.1H497.006V146.711H498.112C499.927 146.711 500.976 147.631 500.976 148.948C500.976 150.22 499.87 151.083 498.329 151.083C496.91 151.083 495.805 150.354 495.728 149.191H493.721C493.804 151.326 495.696 152.783 498.342 152.783Z" fill="#1A3C41"/>
<path d="M476.635 121.182C476.365 119.691 475.172 118.81 473.709 118.81C471.848 118.81 470.499 120.245 470.499 122.546C470.499 124.847 471.848 126.282 473.709 126.282C475.172 126.282 476.365 125.401 476.635 123.91H475.755C475.542 124.918 474.675 125.458 473.709 125.458C472.388 125.458 471.351 124.435 471.351 122.546C471.351 120.657 472.388 119.634 473.709 119.634C474.675 119.634 475.542 120.174 475.755 121.182H476.635ZM481.382 123.952C481.382 124.975 480.601 125.444 479.976 125.444C479.28 125.444 478.783 124.932 478.783 124.137V120.728H477.945V124.194C477.945 125.586 478.683 126.253 479.706 126.253C480.53 126.253 481.07 125.813 481.325 125.259H481.382V126.182H482.22V120.728H481.382V123.952ZM487.619 121.949C487.356 121.175 486.767 120.657 485.687 120.657C484.537 120.657 483.684 121.31 483.684 122.234C483.684 122.986 484.132 123.491 485.133 123.725L486.042 123.938C486.593 124.066 486.852 124.329 486.852 124.705C486.852 125.174 486.355 125.557 485.574 125.557C484.888 125.557 484.458 125.263 484.309 124.677L483.514 124.876C483.709 125.802 484.473 126.296 485.588 126.296C486.855 126.296 487.718 125.604 487.718 124.663C487.718 123.903 487.243 123.423 486.27 123.185L485.46 122.986C484.814 122.827 484.522 122.61 484.522 122.191C484.522 121.722 485.02 121.381 485.687 121.381C486.419 121.381 486.721 121.786 486.866 122.163L487.619 121.949ZM491.352 120.728H490.187V119.421H489.349V120.728H488.525V121.438H489.349V124.847C489.349 125.799 490.116 126.253 490.827 126.253C491.139 126.253 491.338 126.197 491.452 126.154L491.281 125.401C491.21 125.415 491.096 125.444 490.912 125.444C490.542 125.444 490.187 125.33 490.187 124.62V121.438H491.352V120.728ZM494.77 126.296C496.247 126.296 497.242 125.174 497.242 123.484C497.242 121.779 496.247 120.657 494.77 120.657C493.293 120.657 492.298 121.779 492.298 123.484C492.298 125.174 493.293 126.296 494.77 126.296ZM494.77 125.543C493.648 125.543 493.137 124.577 493.137 123.484C493.137 122.39 493.648 121.41 494.77 121.41C495.892 121.41 496.404 122.39 496.404 123.484C496.404 124.577 495.892 125.543 494.77 125.543ZM498.521 126.182H499.359V122.773C499.359 121.974 499.941 121.41 500.595 121.41C501.23 121.41 501.674 121.825 501.674 122.447V126.182H502.527V122.631C502.527 121.928 502.967 121.41 503.734 121.41C504.331 121.41 504.842 121.726 504.842 122.532V126.182H505.68V122.532C505.68 121.25 504.991 120.657 504.018 120.657C503.237 120.657 502.665 121.016 502.385 121.58H502.328C502.058 120.998 501.582 120.657 500.865 120.657C500.154 120.657 499.629 120.998 499.402 121.58H499.331V120.728H498.521V126.182ZM509.499 126.296C510.607 126.296 511.417 125.742 511.673 124.918L510.863 124.691C510.65 125.259 510.156 125.543 509.499 125.543C508.516 125.543 507.837 124.908 507.798 123.739H511.758V123.384C511.758 121.353 510.55 120.657 509.414 120.657C507.937 120.657 506.957 121.822 506.957 123.498C506.957 125.174 507.923 126.296 509.499 126.296ZM507.798 123.015C507.855 122.166 508.455 121.41 509.414 121.41C510.323 121.41 510.906 122.092 510.906 123.015H507.798ZM513.033 126.182H513.871V122.731C513.871 121.992 514.453 121.452 515.249 121.452C515.472 121.452 515.703 121.495 515.76 121.509V120.657C515.664 120.65 515.444 120.643 515.32 120.643C514.666 120.643 514.098 121.012 513.899 121.552H513.842V120.728H513.033V126.182ZM521.171 126.31C522.123 126.31 522.62 125.799 522.79 125.444H522.833V126.182H523.671V122.589C523.671 120.856 522.35 120.657 521.654 120.657C520.83 120.657 519.893 120.941 519.466 121.935L520.262 122.219C520.447 121.822 520.883 121.396 521.682 121.396C522.453 121.396 522.833 121.804 522.833 122.503V122.532C522.833 122.937 522.421 122.901 521.427 123.029C520.415 123.16 519.31 123.384 519.31 124.634C519.31 125.699 520.134 126.31 521.171 126.31ZM521.299 125.557C520.631 125.557 520.148 125.259 520.148 124.677C520.148 124.038 520.731 123.839 521.384 123.753C521.739 123.711 522.691 123.611 522.833 123.441V124.208C522.833 124.89 522.293 125.557 521.299 125.557ZM527.417 126.296C528.624 126.296 529.419 125.557 529.561 124.592H528.723C528.567 125.188 528.07 125.543 527.417 125.543C526.422 125.543 525.783 124.719 525.783 123.455C525.783 122.219 526.436 121.41 527.417 121.41C528.155 121.41 528.596 121.864 528.723 122.361H529.561C529.419 121.339 528.553 120.657 527.402 120.657C525.925 120.657 524.945 121.822 524.945 123.484C524.945 125.117 525.882 126.296 527.417 126.296ZM535.346 128.228V120.728H534.537V121.594H534.437C534.252 121.31 533.926 120.657 532.86 120.657C531.483 120.657 530.531 121.751 530.531 123.469C530.531 125.202 531.483 126.296 532.846 126.296C533.897 126.296 534.252 125.643 534.437 125.344H534.508V128.228H535.346ZM534.522 123.455C534.522 124.691 533.968 125.543 532.96 125.543C531.909 125.543 531.369 124.62 531.369 123.455C531.369 122.305 531.895 121.41 532.96 121.41C533.983 121.41 534.522 122.234 534.522 123.455ZM540.318 123.952C540.318 124.975 539.537 125.444 538.912 125.444C538.216 125.444 537.718 124.932 537.718 124.137V120.728H536.88V124.194C536.88 125.586 537.619 126.253 538.642 126.253C539.466 126.253 540.005 125.813 540.261 125.259H540.318V126.182H541.156V120.728H540.318V123.952ZM542.691 126.182H543.529V120.728H542.691V126.182ZM543.117 119.819C543.444 119.819 543.714 119.563 543.714 119.251C543.714 118.938 543.444 118.682 543.117 118.682C542.79 118.682 542.52 118.938 542.52 119.251C542.52 119.563 542.79 119.819 543.117 119.819ZM548.928 121.949C548.665 121.175 548.075 120.657 546.996 120.657C545.845 120.657 544.993 121.31 544.993 122.234C544.993 122.986 545.44 123.491 546.442 123.725L547.351 123.938C547.901 124.066 548.161 124.329 548.161 124.705C548.161 125.174 547.663 125.557 546.882 125.557C546.197 125.557 545.767 125.263 545.618 124.677L544.822 124.876C545.018 125.802 545.781 126.296 546.896 126.296C548.164 126.296 549.027 125.604 549.027 124.663C549.027 123.903 548.551 123.423 547.578 123.185L546.768 122.986C546.122 122.827 545.831 122.61 545.831 122.191C545.831 121.722 546.328 121.381 546.996 121.381C547.727 121.381 548.029 121.786 548.175 122.163L548.928 121.949ZM550.289 126.182H551.127V120.728H550.289V126.182ZM550.715 119.819C551.041 119.819 551.311 119.563 551.311 119.251C551.311 118.938 551.041 118.682 550.715 118.682C550.388 118.682 550.118 118.938 550.118 119.251C550.118 119.563 550.388 119.819 550.715 119.819ZM555.034 120.728H553.869V119.421H553.031V120.728H552.207V121.438H553.031V124.847C553.031 125.799 553.798 126.253 554.508 126.253C554.821 126.253 555.02 126.197 555.133 126.154L554.963 125.401C554.892 125.415 554.778 125.444 554.593 125.444C554.224 125.444 553.869 125.33 553.869 124.62V121.438H555.034V120.728ZM556.294 126.182H557.132V120.728H556.294V126.182ZM556.721 119.819C557.047 119.819 557.317 119.563 557.317 119.251C557.317 118.938 557.047 118.682 556.721 118.682C556.394 118.682 556.124 118.938 556.124 119.251C556.124 119.563 556.394 119.819 556.721 119.819ZM560.883 126.296C562.361 126.296 563.355 125.174 563.355 123.484C563.355 121.779 562.361 120.657 560.883 120.657C559.406 120.657 558.412 121.779 558.412 123.484C558.412 125.174 559.406 126.296 560.883 126.296ZM560.883 125.543C559.761 125.543 559.25 124.577 559.25 123.484C559.25 122.39 559.761 121.41 560.883 121.41C562.006 121.41 562.517 122.39 562.517 123.484C562.517 124.577 562.006 125.543 560.883 125.543ZM565.472 122.901C565.472 121.949 566.062 121.41 566.864 121.41C567.642 121.41 568.114 121.918 568.114 122.773V126.182H568.952V122.717C568.952 121.324 568.21 120.657 567.106 120.657C566.282 120.657 565.771 121.026 565.515 121.58H565.444V120.728H564.634V126.182H565.472V122.901ZM575.512 126.296C576.72 126.296 577.515 125.557 577.657 124.592H576.819C576.663 125.188 576.166 125.543 575.512 125.543C574.518 125.543 573.879 124.719 573.879 123.455C573.879 122.219 574.532 121.41 575.512 121.41C576.251 121.41 576.691 121.864 576.819 122.361H577.657C577.515 121.339 576.649 120.657 575.498 120.657C574.021 120.657 573.041 121.822 573.041 123.484C573.041 125.117 573.978 126.296 575.512 126.296ZM581.098 126.296C582.575 126.296 583.57 125.174 583.57 123.484C583.57 121.779 582.575 120.657 581.098 120.657C579.621 120.657 578.627 121.779 578.627 123.484C578.627 125.174 579.621 126.296 581.098 126.296ZM581.098 125.543C579.976 125.543 579.465 124.577 579.465 123.484C579.465 122.39 579.976 121.41 581.098 121.41C582.22 121.41 582.732 122.39 582.732 123.484C582.732 124.577 582.22 125.543 581.098 125.543ZM588.713 121.949C588.45 121.175 587.86 120.657 586.781 120.657C585.63 120.657 584.778 121.31 584.778 122.234C584.778 122.986 585.225 123.491 586.227 123.725L587.136 123.938C587.686 124.066 587.946 124.329 587.946 124.705C587.946 125.174 587.449 125.557 586.667 125.557C585.982 125.557 585.552 125.263 585.403 124.677L584.608 124.876C584.803 125.802 585.566 126.296 586.681 126.296C587.949 126.296 588.812 125.604 588.812 124.663C588.812 123.903 588.336 123.423 587.363 123.185L586.554 122.986C585.907 122.827 585.616 122.61 585.616 122.191C585.616 121.722 586.113 121.381 586.781 121.381C587.512 121.381 587.814 121.786 587.96 122.163L588.713 121.949ZM592.446 120.728H591.281V119.421H590.443V120.728H589.619V121.438H590.443V124.847C590.443 125.799 591.21 126.253 591.92 126.253C592.233 126.253 592.432 126.197 592.545 126.154L592.375 125.401C592.304 125.415 592.19 125.444 592.006 125.444C591.636 125.444 591.281 125.33 591.281 124.62V121.438H592.446V120.728Z" fill="#768A8D"/>
<path d="M323.905 102.066H322.601V108.475H322.52L318.08 102.066H316.861V110.793H318.178V104.392H318.259L322.695 110.793H323.905V102.066ZM325.826 110.793H327.143V107.725H328.933C330.957 107.725 331.958 106.502 331.958 104.891C331.958 103.284 330.965 102.066 328.937 102.066H325.826V110.793ZM327.143 106.608V103.195H328.796C330.1 103.195 330.633 103.902 330.633 104.891C330.633 105.879 330.1 106.608 328.813 106.608H327.143ZM338.262 104.358H339.532C339.493 102.96 338.257 101.946 336.485 101.946C334.733 101.946 333.391 102.948 333.391 104.452C333.391 105.666 334.26 106.378 335.662 106.757L336.694 107.039C337.627 107.286 338.347 107.593 338.347 108.368C338.347 109.22 337.533 109.783 336.412 109.783C335.398 109.783 334.554 109.331 334.478 108.381H333.157C333.242 109.962 334.465 110.938 336.421 110.938C338.471 110.938 339.651 109.86 339.651 108.381C339.651 106.808 338.249 106.199 337.141 105.926L336.289 105.705C335.607 105.53 334.699 105.21 334.703 104.375C334.703 103.634 335.381 103.084 336.455 103.084C337.456 103.084 338.168 103.553 338.262 104.358Z" fill="#768A8D"/>
<path d="M321.483 153.005C324.116 153.005 325.995 151.145 325.989 148.595C325.995 146.064 324.231 144.223 321.847 144.223C320.875 144.223 319.974 144.594 319.463 145.092H319.386L319.801 141.429H325.356V139.736H318.159L317.424 146.332L319.233 146.601C319.725 146.16 320.607 145.859 321.4 145.859C322.953 145.872 324.078 147.035 324.078 148.633C324.078 150.206 322.985 151.344 321.483 151.344C320.217 151.344 319.213 150.538 319.111 149.413H317.194C317.27 151.497 319.079 153.005 321.483 153.005ZM332.881 153.044C335.905 153.044 337.675 150.576 337.675 146.287C337.675 142.03 335.879 139.557 332.881 139.557C329.877 139.557 328.087 142.024 328.081 146.287C328.081 150.57 329.851 153.037 332.881 153.044ZM332.881 151.337C331.111 151.337 330.043 149.56 330.043 146.287C330.05 143.027 331.117 141.231 332.881 141.231C334.639 141.231 335.713 143.027 335.713 146.287C335.713 149.56 334.645 151.337 332.881 151.337Z" fill="#1A3C41"/>
<path d="M322.55 118.847H321.684V124.572H321.613L317.635 118.847H316.783V126.12H317.664V120.41H317.735L321.698 126.12H322.55V118.847ZM326.486 126.234C327.594 126.234 328.403 125.68 328.659 124.856L327.849 124.629C327.636 125.197 327.143 125.481 326.486 125.481C325.502 125.481 324.824 124.845 324.785 123.677H328.744V123.322C328.744 121.291 327.537 120.594 326.4 120.594C324.923 120.594 323.943 121.759 323.943 123.435C323.943 125.112 324.909 126.234 326.486 126.234ZM324.785 122.952C324.841 122.104 325.442 121.347 326.4 121.347C327.309 121.347 327.892 122.029 327.892 122.952H324.785ZM332.391 120.666H331.226V119.359H330.388V120.666H329.564V121.376H330.388V124.785C330.388 125.737 331.155 126.191 331.866 126.191C332.178 126.191 332.377 126.134 332.491 126.092L332.32 125.339C332.249 125.353 332.135 125.381 331.951 125.381C331.581 125.381 331.226 125.268 331.226 124.558V121.376H332.391V120.666ZM336.578 126.12H337.459V123.464H339.05C340.743 123.464 341.507 122.434 341.507 121.148C341.507 119.863 340.743 118.847 339.035 118.847H336.578V126.12ZM337.459 122.683V119.629H339.007C340.189 119.629 340.64 120.275 340.64 121.148C340.64 122.022 340.189 122.683 339.021 122.683H337.459ZM342.812 126.12H343.65V122.668C343.65 121.93 344.232 121.39 345.028 121.39C345.252 121.39 345.482 121.433 345.539 121.447V120.594C345.443 120.587 345.223 120.58 345.099 120.58C344.445 120.58 343.877 120.95 343.678 121.489H343.622V120.666H342.812V126.12ZM348.583 126.234C350.06 126.234 351.054 125.112 351.054 123.421C351.054 121.717 350.06 120.594 348.583 120.594C347.105 120.594 346.111 121.717 346.111 123.421C346.111 125.112 347.105 126.234 348.583 126.234ZM348.583 125.481C347.46 125.481 346.949 124.515 346.949 123.421C346.949 122.327 347.46 121.347 348.583 121.347C349.705 121.347 350.216 122.327 350.216 123.421C350.216 124.515 349.705 125.481 348.583 125.481ZM352.333 126.12H353.172V122.711C353.172 121.912 353.754 121.347 354.407 121.347C355.043 121.347 355.487 121.763 355.487 122.384V126.12H356.339V122.569C356.339 121.866 356.779 121.347 357.547 121.347C358.143 121.347 358.654 121.663 358.654 122.469V126.12H359.493V122.469C359.493 121.188 358.804 120.594 357.831 120.594C357.049 120.594 356.478 120.953 356.197 121.518H356.14C355.87 120.935 355.395 120.594 354.677 120.594C353.967 120.594 353.441 120.935 353.214 121.518H353.143V120.666H352.333V126.12ZM363.241 126.234C364.718 126.234 365.712 125.112 365.712 123.421C365.712 121.717 364.718 120.594 363.241 120.594C361.763 120.594 360.769 121.717 360.769 123.421C360.769 125.112 361.763 126.234 363.241 126.234ZM363.241 125.481C362.119 125.481 361.607 124.515 361.607 123.421C361.607 122.327 362.119 121.347 363.241 121.347C364.363 121.347 364.874 122.327 364.874 123.421C364.874 124.515 364.363 125.481 363.241 125.481ZM369.364 120.666H368.199V119.359H367.361V120.666H366.537V121.376H367.361V124.785C367.361 125.737 368.128 126.191 368.838 126.191C369.151 126.191 369.35 126.134 369.463 126.092L369.293 125.339C369.222 125.353 369.108 125.381 368.923 125.381C368.554 125.381 368.199 125.268 368.199 124.558V121.376H369.364V120.666ZM372.853 126.234C373.961 126.234 374.77 125.68 375.026 124.856L374.216 124.629C374.003 125.197 373.51 125.481 372.853 125.481C371.869 125.481 371.191 124.845 371.152 123.677H375.111V123.322C375.111 121.291 373.904 120.594 372.768 120.594C371.29 120.594 370.31 121.759 370.31 123.435C370.31 125.112 371.276 126.234 372.853 126.234ZM371.152 122.952C371.209 122.104 371.809 121.347 372.768 121.347C373.677 121.347 374.259 122.029 374.259 122.952H371.152ZM376.386 126.12H377.224V122.668C377.224 121.93 377.807 121.39 378.602 121.39C378.826 121.39 379.057 121.433 379.113 121.447V120.594C379.018 120.587 378.797 120.58 378.673 120.58C378.02 120.58 377.452 120.95 377.253 121.489H377.196V120.666H376.386V126.12ZM387.01 120.666H387.863C387.824 119.568 386.811 118.748 385.405 118.748C384.013 118.748 382.919 119.558 382.919 120.779C382.919 121.759 383.63 122.342 384.766 122.668L385.661 122.924C386.428 123.137 387.11 123.407 387.11 124.131C387.11 124.927 386.343 125.452 385.334 125.452C384.468 125.452 383.701 125.069 383.63 124.245H382.721C382.806 125.438 383.772 126.248 385.334 126.248C387.01 126.248 387.962 125.325 387.962 124.146C387.962 122.782 386.669 122.342 385.917 122.143L385.178 121.944C384.638 121.802 383.772 121.518 383.772 120.737C383.772 120.041 384.411 119.529 385.377 119.529C386.257 119.529 386.925 119.948 387.01 120.666ZM391.512 126.234C392.72 126.234 393.515 125.495 393.657 124.529H392.819C392.663 125.126 392.166 125.481 391.512 125.481C390.518 125.481 389.879 124.657 389.879 123.393C389.879 122.157 390.532 121.347 391.512 121.347C392.251 121.347 392.691 121.802 392.819 122.299H393.657C393.515 121.276 392.649 120.594 391.498 120.594C390.021 120.594 389.041 121.759 389.041 123.421C389.041 125.055 389.978 126.234 391.512 126.234ZM397.098 126.234C398.575 126.234 399.57 125.112 399.57 123.421C399.57 121.717 398.575 120.594 397.098 120.594C395.621 120.594 394.627 121.717 394.627 123.421C394.627 125.112 395.621 126.234 397.098 126.234ZM397.098 125.481C395.976 125.481 395.465 124.515 395.465 123.421C395.465 122.327 395.976 121.347 397.098 121.347C398.22 121.347 398.732 122.327 398.732 123.421C398.732 124.515 398.22 125.481 397.098 125.481ZM400.849 126.12H401.687V122.668C401.687 121.93 402.27 121.39 403.065 121.39C403.289 121.39 403.52 121.433 403.576 121.447V120.594C403.48 120.587 403.26 120.58 403.136 120.58C402.483 120.58 401.914 120.95 401.716 121.489H401.659V120.666H400.849V126.12ZM406.691 126.234C407.799 126.234 408.608 125.68 408.864 124.856L408.054 124.629C407.841 125.197 407.348 125.481 406.691 125.481C405.707 125.481 405.029 124.845 404.99 123.677H408.949V123.322C408.949 121.291 407.742 120.594 406.605 120.594C405.128 120.594 404.148 121.759 404.148 123.435C404.148 125.112 405.114 126.234 406.691 126.234ZM404.99 122.952C405.047 122.104 405.647 121.347 406.605 121.347C407.515 121.347 408.097 122.029 408.097 122.952H404.99Z" fill="#768A8D"/>
<path d="M178.11 104.904C177.811 103.038 176.35 101.947 174.505 101.947C172.246 101.947 170.58 103.639 170.58 106.43C170.58 109.221 172.238 110.913 174.505 110.913C176.422 110.913 177.824 109.711 178.11 107.985L176.78 107.981C176.554 109.097 175.617 109.711 174.513 109.711C173.017 109.711 171.888 108.565 171.888 106.43C171.888 104.312 173.013 103.149 174.517 103.149C175.63 103.149 176.563 103.775 176.78 104.904H178.11ZM183.729 108.079C183.734 109.191 182.907 109.72 182.191 109.72C181.403 109.72 180.857 109.149 180.857 108.258V104.248H179.583V108.411C179.583 110.035 180.474 110.879 181.731 110.879C182.715 110.879 183.384 110.359 183.687 109.66H183.755V110.793H185.008V104.248H183.729V108.079ZM191.625 105.846C191.36 104.827 190.564 104.163 189.149 104.163C187.67 104.163 186.622 104.943 186.622 106.102C186.622 107.031 187.184 107.649 188.412 107.921L189.52 108.164C190.15 108.305 190.444 108.586 190.444 108.995C190.444 109.502 189.903 109.899 189.068 109.899C188.305 109.899 187.815 109.57 187.662 108.927L186.43 109.114C186.643 110.274 187.606 110.925 189.076 110.925C190.657 110.925 191.752 110.086 191.752 108.901C191.752 107.977 191.164 107.406 189.963 107.129L188.923 106.89C188.203 106.72 187.892 106.477 187.896 106.033C187.892 105.531 188.437 105.173 189.162 105.173C189.954 105.173 190.321 105.612 190.47 106.05L191.625 105.846ZM196.209 104.248H194.866V102.68H193.592V104.248H192.634V105.271H193.592V109.136C193.588 110.325 194.496 110.9 195.501 110.879C195.906 110.874 196.179 110.798 196.328 110.742L196.098 109.69C196.013 109.707 195.855 109.745 195.651 109.745C195.237 109.745 194.866 109.609 194.866 108.872V105.271H196.209V104.248ZM200.305 110.925C202.15 110.925 203.356 109.575 203.356 107.55C203.356 105.514 202.15 104.163 200.305 104.163C198.46 104.163 197.254 105.514 197.254 107.55C197.254 109.575 198.46 110.925 200.305 110.925ZM200.309 109.856C199.103 109.856 198.541 108.803 198.541 107.546C198.541 106.293 199.103 105.228 200.309 105.228C201.507 105.228 202.069 106.293 202.069 107.546C202.069 108.803 201.507 109.856 200.309 109.856ZM204.778 110.793H206.053V106.758C206.053 105.876 206.67 105.262 207.395 105.262C208.102 105.262 208.592 105.731 208.592 106.443V110.793H209.862V106.622C209.862 105.833 210.344 105.262 211.175 105.262C211.848 105.262 212.402 105.637 212.402 106.524V110.793H213.676V106.404C213.676 104.908 212.841 104.163 211.656 104.163C210.714 104.163 210.007 104.614 209.692 105.313H209.624C209.338 104.597 208.737 104.163 207.864 104.163C206.999 104.163 206.355 104.593 206.082 105.313H206.001V104.248H204.778V110.793ZM218.205 110.925C219.632 110.925 220.642 110.222 220.932 109.157L219.726 108.94C219.496 109.558 218.942 109.873 218.218 109.873C217.127 109.873 216.394 109.166 216.36 107.904H221.013V107.452C221.013 105.087 219.598 104.163 218.115 104.163C216.292 104.163 215.09 105.552 215.09 107.563C215.09 109.596 216.275 110.925 218.205 110.925ZM216.364 106.95C216.415 106.021 217.088 105.215 218.124 105.215C219.113 105.215 219.76 105.948 219.765 106.95H216.364ZM222.427 110.793H223.701V106.796C223.701 105.94 224.362 105.322 225.265 105.322C225.529 105.322 225.827 105.369 225.93 105.399V104.18C225.802 104.163 225.55 104.15 225.388 104.15C224.621 104.15 223.965 104.585 223.727 105.288H223.658V104.248H222.427V110.793ZM233.263 104.248H231.921V102.68H230.647V104.248H229.688V105.271H230.647V109.136C230.643 110.325 231.55 110.9 232.556 110.879C232.961 110.874 233.234 110.798 233.383 110.742L233.153 109.69C233.067 109.707 232.91 109.745 232.705 109.745C232.292 109.745 231.921 109.609 231.921 108.872V105.271H233.263V104.248ZM237.36 110.925C239.205 110.925 240.411 109.575 240.411 107.55C240.411 105.514 239.205 104.163 237.36 104.163C235.515 104.163 234.309 105.514 234.309 107.55C234.309 109.575 235.515 110.925 237.36 110.925ZM237.364 109.856C236.158 109.856 235.596 108.803 235.596 107.546C235.596 106.293 236.158 105.228 237.364 105.228C238.561 105.228 239.124 106.293 239.124 107.546C239.124 108.803 238.561 109.856 237.364 109.856ZM244.888 104.248H243.546V102.68H242.272V104.248H241.313V105.271H242.272V109.136C242.268 110.325 243.175 110.9 244.181 110.879C244.586 110.874 244.859 110.798 245.008 110.742L244.778 109.69C244.692 109.707 244.535 109.745 244.33 109.745C243.917 109.745 243.546 109.609 243.546 108.872V105.271H244.888V104.248ZM248.203 110.938C249.285 110.938 249.895 110.389 250.137 109.899H250.189V110.793H251.433V106.447C251.433 104.542 249.933 104.163 248.893 104.163C247.708 104.163 246.618 104.64 246.191 105.833L247.389 106.106C247.576 105.641 248.054 105.194 248.91 105.194C249.733 105.194 250.154 105.624 250.154 106.366V106.396C250.154 106.86 249.677 106.852 248.501 106.988C247.261 107.133 245.991 107.457 245.991 108.944C245.991 110.231 246.958 110.938 248.203 110.938ZM248.48 109.916C247.76 109.916 247.24 109.592 247.24 108.961C247.24 108.279 247.845 108.036 248.582 107.938C248.995 107.883 249.975 107.772 250.159 107.589V108.433C250.159 109.208 249.541 109.916 248.48 109.916ZM254.404 102.066H253.13V110.793H254.404V102.066Z" fill="#768A8D"/>
<path d="M174.758 120.666H175.611C175.572 119.568 174.559 118.748 173.153 118.748C171.761 118.748 170.667 119.558 170.667 120.779C170.667 121.759 171.378 122.342 172.514 122.668L173.409 122.924C174.176 123.137 174.858 123.407 174.858 124.132C174.858 124.927 174.091 125.453 173.082 125.453C172.216 125.453 171.449 125.069 171.378 124.245H170.469C170.554 125.438 171.52 126.248 173.082 126.248C174.758 126.248 175.71 125.325 175.71 124.146C175.71 122.782 174.417 122.342 173.665 122.143L172.926 121.944C172.386 121.802 171.52 121.518 171.52 120.737C171.52 120.041 172.159 119.529 173.125 119.529C174.006 119.529 174.673 119.948 174.758 120.666ZM177.044 126.12H177.882V120.666H177.044V126.12ZM177.471 119.757C177.797 119.757 178.067 119.501 178.067 119.188C178.067 118.876 177.797 118.62 177.471 118.62C177.144 118.62 176.874 118.876 176.874 119.188C176.874 119.501 177.144 119.757 177.471 119.757ZM180.256 122.839C180.256 121.887 180.845 121.347 181.648 121.347C182.425 121.347 182.898 121.855 182.898 122.711V126.12H183.736V122.654C183.736 121.262 182.993 120.595 181.889 120.595C181.065 120.595 180.554 120.964 180.298 121.518H180.227V120.666H179.417V126.12H180.256V122.839ZM187.483 126.234C188.69 126.234 189.486 125.495 189.628 124.529H188.79C188.634 125.126 188.136 125.481 187.483 125.481C186.489 125.481 185.849 124.657 185.849 123.393C185.849 122.157 186.503 121.347 187.483 121.347C188.222 121.347 188.662 121.802 188.79 122.299H189.628C189.486 121.276 188.619 120.595 187.469 120.595C185.991 120.595 185.011 121.759 185.011 123.421C185.011 125.055 185.949 126.234 187.483 126.234ZM193.14 126.234C194.248 126.234 195.058 125.68 195.313 124.856L194.504 124.629C194.29 125.197 193.797 125.481 193.14 125.481C192.156 125.481 191.478 124.845 191.439 123.677H195.398V123.322C195.398 121.291 194.191 120.595 193.055 120.595C191.577 120.595 190.597 121.759 190.597 123.436C190.597 125.112 191.563 126.234 193.14 126.234ZM191.439 122.953C191.496 122.104 192.096 121.347 193.055 121.347C193.964 121.347 194.546 122.029 194.546 122.953H191.439ZM203.349 121.887C203.087 121.113 202.497 120.595 201.418 120.595C200.267 120.595 199.415 121.248 199.415 122.171C199.415 122.924 199.862 123.428 200.864 123.663L201.773 123.876C202.323 124.004 202.582 124.266 202.582 124.643C202.582 125.112 202.085 125.495 201.304 125.495C200.619 125.495 200.189 125.2 200.04 124.614L199.244 124.813C199.44 125.74 200.203 126.234 201.318 126.234C202.586 126.234 203.449 125.541 203.449 124.6C203.449 123.84 202.973 123.361 202 123.123L201.19 122.924C200.544 122.764 200.253 122.548 200.253 122.129C200.253 121.66 200.75 121.319 201.418 121.319C202.149 121.319 202.451 121.724 202.597 122.1L203.349 121.887ZM204.71 126.12H205.548V120.666H204.71V126.12ZM205.137 119.757C205.463 119.757 205.733 119.501 205.733 119.188C205.733 118.876 205.463 118.62 205.137 118.62C204.81 118.62 204.54 118.876 204.54 119.188C204.54 119.501 204.81 119.757 205.137 119.757ZM209.285 128.279C210.592 128.279 211.643 127.683 211.643 126.276V120.666H210.833V121.532H210.748C210.564 121.248 210.223 120.595 209.157 120.595C207.779 120.595 206.828 121.688 206.828 123.364C206.828 125.069 207.822 126.035 209.143 126.035C210.208 126.035 210.549 125.41 210.734 125.112H210.805V126.22C210.805 127.129 210.166 127.541 209.285 127.541C208.294 127.541 207.946 127.019 207.723 126.717L207.055 127.186C207.396 127.757 208.067 128.279 209.285 128.279ZM209.257 125.282C208.206 125.282 207.666 124.487 207.666 123.35C207.666 122.242 208.191 121.347 209.257 121.347C210.279 121.347 210.819 122.171 210.819 123.35C210.819 124.558 210.265 125.282 209.257 125.282ZM214.015 122.839C214.015 121.887 214.605 121.347 215.407 121.347C216.185 121.347 216.657 121.855 216.657 122.711V126.12H217.495V122.654C217.495 121.262 216.753 120.595 215.649 120.595C214.825 120.595 214.314 120.964 214.058 121.518H213.987V120.666H213.177V126.12H214.015V122.839ZM222.464 123.89C222.464 124.913 221.683 125.382 221.058 125.382C220.362 125.382 219.865 124.87 219.865 124.075V120.666H219.027V124.132C219.027 125.524 219.765 126.191 220.788 126.191C221.612 126.191 222.152 125.751 222.407 125.197H222.464V126.12H223.302V120.666H222.464V123.89ZM224.837 128.166H225.675V125.282H225.746C225.931 125.58 226.286 126.234 227.337 126.234C228.701 126.234 229.653 125.14 229.653 123.407C229.653 121.688 228.701 120.595 227.323 120.595C226.258 120.595 225.931 121.248 225.746 121.532H225.647V120.666H224.837V128.166ZM225.661 123.393C225.661 122.171 226.201 121.347 227.224 121.347C228.289 121.347 228.815 122.242 228.815 123.393C228.815 124.558 228.275 125.481 227.224 125.481C226.215 125.481 225.661 124.629 225.661 123.393Z" fill="#768A8D"/>
<path d="M170.885 150.27H177.091V152.827H178.977V150.27H180.709V148.596H178.977V139.736H176.542L170.885 148.672V150.27ZM177.104 148.596H172.956V148.493L177.002 142.088H177.104V148.596ZM187.258 153.006C189.892 153.006 191.771 151.146 191.764 148.596C191.771 146.064 190.007 144.223 187.622 144.223C186.651 144.223 185.749 144.594 185.238 145.093H185.161L185.577 141.43H191.132V139.736H183.934L183.199 146.333L185.008 146.601C185.5 146.16 186.382 145.86 187.175 145.86C188.728 145.873 189.853 147.036 189.853 148.634C189.853 150.206 188.76 151.344 187.258 151.344C185.992 151.344 184.989 150.539 184.887 149.414H182.969C183.046 151.498 184.855 153.006 187.258 153.006ZM198.657 153.044C201.68 153.044 203.451 150.577 203.451 146.288C203.451 142.031 201.654 139.557 198.657 139.557C195.652 139.557 193.863 142.025 193.856 146.288C193.856 150.571 195.627 153.038 198.657 153.044ZM198.657 151.338C196.886 151.338 195.819 149.561 195.819 146.288C195.825 143.028 196.892 141.232 198.657 141.232C200.414 141.232 201.488 143.028 201.488 146.288C201.488 149.561 200.421 151.338 198.657 151.338Z" fill="#1A3C41"/>
<path fill-rule="evenodd" clip-rule="evenodd" d="M159.938 342.261H609.381V342.882H159.938V342.261Z" fill="#F0F0F0"/>
<path fill-rule="evenodd" clip-rule="evenodd" d="M159.938 291.952H609.381V292.573H159.938V291.952Z" fill="#F0F0F0"/>
<path fill-rule="evenodd" clip-rule="evenodd" d="M159.938 241.644H609.381V242.266H159.938V241.644Z" fill="#F0F0F0"/>
<path d="M260.504 191.957L260.504 191.647H262.987V191.336H265.47L265.47 191.646H262.987V191.957H260.504ZM260.504 191.336L260.504 191.646H258.021V191.957H255.537V191.647H258.021V191.336H260.504ZM253.054 191.336H255.537V191.646H253.054V191.957H250.571V191.647H253.054V191.336ZM248.088 191.646V191.957H245.605V191.647H248.088V191.336H250.571V191.646H248.088ZM243.122 191.646V191.957H240.639V191.647H243.122V191.336H245.605V191.646H243.122ZM238.156 191.646V191.957H235.673V191.647H238.156V191.336H240.639V191.646H238.156ZM233.189 191.646V191.957H230.706V191.647H233.189V191.336H235.672V191.646H233.189ZM228.223 191.646V191.957H225.74V191.647H228.223V191.336H230.706V191.646H228.223ZM223.257 191.646V191.957H220.774V191.647H223.257V191.336H225.74V191.646H223.257ZM218.291 191.646V191.957H215.808V191.647H218.291V191.336H220.774V191.646H218.291ZM213.324 191.646V191.957H210.841V191.647H213.324V191.336H215.807V191.646H213.324ZM208.358 191.646V191.957H205.875V191.647H208.358V191.336H210.841V191.646H208.358ZM203.392 191.646V191.957H200.909V191.647H203.392V191.336H205.875V191.646H203.392ZM198.426 191.646V191.957H195.943V191.647H198.426V191.336H200.909V191.646H198.426ZM193.46 191.646V191.957H190.976V191.647H193.459V191.336H195.942V191.646H193.46ZM188.493 191.646V191.957H186.01V191.647H188.493V191.336H190.976V191.646H188.493ZM183.527 191.646V191.957H181.044V191.647H183.527V191.336H186.01V191.646H183.527ZM178.561 191.646V191.957H176.078V191.647H178.561V191.336H181.044V191.646H178.561ZM173.595 191.646V191.957H171.112V191.647H173.594V191.336H176.077V191.646H173.595ZM168.628 191.646V191.957H166.145V191.647H168.628V191.336H171.111V191.646H168.628ZM163.662 191.646V191.957H161.179V191.647H163.662V191.336H166.145V191.646H163.662ZM160.249 191.336H161.179V191.646H160.249V191.336ZM267.953 191.647V191.336H270.436L270.436 191.646H267.953V191.957H265.47L265.47 191.647H267.953ZM272.919 191.647V191.336H275.402L275.402 191.646H272.919V191.957H270.436L270.436 191.647H272.919ZM277.886 191.646V191.336H280.369V191.647H282.852L282.852 191.957H280.369V191.646H277.886ZM282.852 191.646L282.852 191.336H285.335L285.335 191.646H282.852ZM287.818 191.646L287.818 191.336H290.301V191.647H292.784L292.784 191.957H290.301V191.646H287.818ZM292.784 191.646L292.784 191.336H295.267V191.647H297.751L297.75 191.957H295.267V191.646H292.784ZM297.75 191.646L297.751 191.336H300.234V191.647H302.717L302.717 191.957H300.234V191.646H297.75ZM302.717 191.646L302.717 191.336H305.2V191.647H307.683V191.957H305.2V191.646H302.717ZM307.683 191.646V191.336H310.166V191.647H312.649V191.957H310.166V191.646H307.683ZM312.649 191.646V191.336H315.132V191.647H317.615V191.957H315.132V191.646H312.649ZM317.615 191.646V191.336H320.099V191.647H322.581V191.957H320.098V191.646H317.615ZM322.582 191.646V191.336H325.065V191.647H327.548V191.957H325.065V191.646H322.582ZM327.548 191.646V191.336H330.031V191.647H332.514V191.957H330.031V191.646H327.548ZM332.514 191.646V191.336H334.997V191.647H337.48V191.957H334.997V191.646H332.514ZM337.48 191.646V191.336H339.964V191.647H342.446V191.957H339.963V191.646H337.48ZM342.447 191.646V191.336H344.93V191.647H347.413V191.957H344.929V191.646H342.447ZM347.413 191.646V191.336H349.896V191.647H352.379V191.957H349.896V191.646H347.413ZM352.379 191.646V191.336H354.862V191.647H357.345V191.957H354.862V191.646H352.379ZM357.345 191.646V191.336H359.829V191.647H362.311V191.957H359.828V191.646H357.345ZM362.312 191.646V191.336H364.795V191.647H367.277V191.957H364.794V191.646H362.312ZM367.278 191.646V191.336H369.761V191.647H372.244V191.957H369.761V191.646H367.278ZM372.244 191.646V191.336H374.727V191.647H377.21V191.957H374.727V191.646H372.244ZM377.21 191.646V191.336H379.693V191.647H382.176V191.957H379.693V191.646H377.21ZM382.177 191.646V191.336H384.66V191.647H387.142V191.957H384.659V191.646H382.177ZM387.143 191.646V191.336H389.626V191.647H392.109V191.957H389.625V191.646H387.143ZM392.109 191.646V191.336H394.592V191.647H397.075V191.957H394.592V191.646H392.109ZM397.075 191.646V191.336H399.558V191.647H402.041V191.957H399.558V191.646H397.075ZM402.041 191.646V191.336H404.525V191.647H407.007V191.957H404.524V191.646H402.041ZM407.008 191.646V191.336H409.491V191.647H411.973V191.957H409.49V191.646H407.008ZM411.974 191.646V191.336H414.457V191.647H416.94V191.957H414.457V191.646H411.974ZM416.94 191.646V191.336H419.423V191.647H421.906V191.957H419.423V191.646H416.94ZM421.906 191.646V191.336H424.389V191.647H426.872V191.957H424.389V191.646H421.906ZM426.872 191.646V191.336H429.356V191.647H431.838V191.957H429.355V191.646H426.872ZM431.839 191.646V191.336H434.322V191.647H436.805V191.957H434.322V191.646H431.839ZM436.805 191.646V191.336H439.288V191.647H441.771V191.957H439.288V191.646H436.805ZM441.771 191.646V191.336H444.254V191.647H446.737V191.957H444.254V191.646H441.771ZM446.737 191.646V191.336H449.22V191.647H451.704L451.703 191.957H449.22V191.646H446.737ZM451.703 191.646L451.704 191.336H454.187V191.647H456.67L456.67 191.957H454.186V191.646H451.703ZM456.67 191.646L456.67 191.336H459.153V191.647H461.636L461.636 191.957H459.153V191.646H456.67ZM461.636 191.646L461.636 191.336H464.119V191.647H466.602L466.602 191.957H464.119V191.646H461.636ZM466.602 191.646L466.602 191.336H469.085V191.647H471.568L471.568 191.957H469.085V191.646H466.602ZM471.568 191.646L471.568 191.336H474.052V191.647H476.535L476.535 191.957H474.051V191.646H471.568ZM476.535 191.646L476.535 191.336H479.018L479.018 191.646H476.535ZM481.501 191.646L481.501 191.336H483.984V191.646H481.501ZM486.467 191.646V191.336H488.95V191.646H486.467ZM491.433 191.646V191.336H493.916V191.646H491.433ZM496.4 191.646L496.4 191.336H498.883L498.883 191.646H496.4ZM501.366 191.646L501.366 191.336H503.849L503.849 191.646H501.366ZM503.849 191.957L503.849 191.647H506.332V191.336H508.815L508.815 191.646H506.332V191.957H503.849ZM508.815 191.957L508.815 191.647H511.298V191.336H513.781L513.781 191.646H511.298V191.957H508.815ZM513.781 191.957L513.781 191.647H516.264V191.336H518.748L518.748 191.646H516.265V191.957H513.781ZM518.748 191.957L518.748 191.647H521.231V191.336H523.714L523.714 191.646H521.231V191.957H518.748ZM523.714 191.957L523.714 191.647H526.197V191.336H528.68L528.68 191.646H526.197V191.957H523.714ZM528.68 191.957L528.68 191.647H531.163V191.336H533.646L533.646 191.646H531.163V191.957H528.68ZM533.646 191.957L533.646 191.647H536.129V191.336H538.613L538.613 191.646H536.13V191.957H533.646ZM538.613 191.957L538.613 191.647H541.096V191.336H543.579L543.579 191.646H541.096V191.957H538.613ZM543.579 191.957L543.579 191.647H546.062V191.336H548.545L548.545 191.646H546.062V191.957H543.579ZM548.545 191.957L548.545 191.647H551.028V191.336H553.511L553.511 191.646H551.028V191.957H548.545ZM553.511 191.957L553.511 191.647H555.994V191.336H558.477L558.478 191.646H555.995V191.957H553.511ZM558.478 191.957L558.477 191.647H560.961V191.336H563.444V191.646H560.961V191.957H558.478ZM565.927 191.647V191.336H568.41V191.646H565.927V191.957H563.444V191.647H565.927ZM570.893 191.647V191.336H573.376V191.646H570.893V191.957H568.41V191.647H570.893ZM575.859 191.647V191.336H578.342V191.646H575.86V191.957H573.376V191.647H575.859ZM580.826 191.647V191.336H583.309V191.646H580.826V191.957H578.343V191.647H580.826ZM585.792 191.647V191.336H588.275V191.646H585.792V191.957H583.309V191.647H585.792ZM590.758 191.647V191.336H593.241V191.646H590.758V191.957H588.275V191.647H590.758ZM595.724 191.647V191.336H598.207V191.646H595.725V191.957H593.241V191.647H595.724ZM600.69 191.647V191.336H603.174V191.646H600.691V191.957H598.208V191.647H600.69ZM605.657 191.647V191.336H608.14V191.646H605.657V191.957H603.174V191.647H605.657ZM608.14 191.647H609.07V191.957H608.14V191.647ZM501.366 191.647L501.366 191.957H498.883L498.883 191.647H501.366ZM496.4 191.647L496.4 191.957H493.916V191.647H496.4ZM491.433 191.647V191.957H488.95V191.647H491.433ZM486.467 191.647V191.957H483.984V191.647H486.467ZM481.501 191.647L481.501 191.957H479.018L479.018 191.647H481.501ZM287.818 191.647L287.818 191.957H285.335L285.335 191.647H287.818ZM277.886 191.647V191.957H275.402L275.402 191.647H277.886Z" stroke="#F0F0F0" stroke-width="0.622498" stroke-dasharray="2.49"/>
<path fill-rule="evenodd" clip-rule="evenodd" d="M159.938 392.569H609.381V393.19H159.938V392.569Z" fill="#F0F0F0"/>
<path d="M444.735 180.468H445.358V246.923H444.735V180.468Z" stroke="#2D81B9" stroke-width="0.622498"/>
<path d="M159.941 315.59L176.641 309.095L193.341 324.25L210.041 267.961L226.741 270.126L243.441 248.477L260.141 315.59L276.841 319.92L293.541 289.611L310.241 322.085L326.941 298.27L343.641 304.765L360.341 263.631L377.041 306.93L393.741 313.425L410.441 306.93L427.141 300.435L444.768 302.6L460.54 276.621L477.24 289.611L493.94 296.105L510.64 302.6L527.34 257.136L544.04 274.456H559.812L577.44 311.26L595.068 317.755" stroke="#979797" stroke-width="0.622498" stroke-dasharray="1.87"/>
<path d="M159.941 265.947L176.605 296.521L193.269 309.624L210.859 283.418L227.522 287.786L244.186 255.028L259.924 296.521L276.588 305.256L294.178 265.947L309.916 309.624L327.505 316.176L344.169 276.866L360.833 283.418L376.571 293.245L393.235 305.256L409.898 287.786L426.562 276.866L444.152 248.477L459.89 255.028L476.554 276.866L494.143 265.947L509.881 276.866L526.545 283.418L542.283 248.477L559.873 305.256L576.536 272.499L593.2 305.256" stroke="#2D81B9" stroke-width="1.245"/>
<path fill-rule="evenodd" clip-rule="evenodd" d="M445.046 252.203C446.765 252.203 448.159 250.813 448.159 249.098C448.159 247.383 446.765 245.992 445.046 245.992C443.327 245.992 441.934 247.383 441.934 249.098C441.934 250.813 443.327 252.203 445.046 252.203Z" fill="white" stroke="#2D81B9" stroke-width="1.245"/>
<g filter="url(#filter1_d_1764_6245)">
<path fill-rule="evenodd" clip-rule="evenodd" d="M426.99 165.256C426.99 163.881 428.105 162.766 429.48 162.766H460.605C461.98 162.766 463.095 163.881 463.095 165.256V175.803C463.095 177.179 461.98 178.293 460.605 178.293H447.743L444.953 181.399L442.128 178.293H429.48C428.105 178.293 426.99 177.179 426.99 175.803V165.256Z" fill="#FAFCFE"/>
</g>
<path d="M433.777 172.25H437.204V171.666H434.679V171.624L435.899 170.319C436.833 169.318 437.109 168.852 437.109 168.249C437.109 167.411 436.43 166.743 435.475 166.743C434.523 166.743 433.798 167.39 433.798 168.345H434.424C434.424 167.727 434.825 167.316 435.454 167.316C436.043 167.316 436.494 167.676 436.494 168.249C436.494 168.751 436.199 169.122 435.57 169.809L433.777 171.772V172.25ZM438.3 172.25H441.727V171.666H439.202V171.624L440.422 170.319C441.356 169.318 441.632 168.852 441.632 168.249C441.632 167.411 440.953 166.743 439.998 166.743C439.045 166.743 438.321 167.39 438.321 168.345H438.947C438.947 167.727 439.348 167.316 439.977 167.316C440.565 167.316 441.016 167.676 441.016 168.249C441.016 168.751 440.722 169.122 440.093 169.809L438.3 171.772V172.25ZM447.821 169.088C447.624 168.509 447.184 168.122 446.378 168.122C445.518 168.122 444.881 168.61 444.881 169.3C444.881 169.862 445.216 170.239 445.964 170.414L446.643 170.573C447.054 170.669 447.248 170.865 447.248 171.146C447.248 171.496 446.876 171.783 446.293 171.783C445.781 171.783 445.46 171.563 445.348 171.125L444.754 171.274C444.9 171.966 445.47 172.335 446.303 172.335C447.25 172.335 447.895 171.817 447.895 171.114C447.895 170.547 447.539 170.189 446.813 170.011L446.208 169.862C445.725 169.743 445.507 169.581 445.507 169.268C445.507 168.918 445.879 168.663 446.378 168.663C446.924 168.663 447.149 168.966 447.258 169.247L447.821 169.088ZM450.546 172.335C451.373 172.335 451.978 171.921 452.169 171.305L451.564 171.136C451.405 171.56 451.036 171.772 450.546 171.772C449.811 171.772 449.304 171.297 449.275 170.425H452.233V170.159C452.233 168.642 451.331 168.122 450.482 168.122C449.378 168.122 448.646 168.992 448.646 170.244C448.646 171.496 449.368 172.335 450.546 172.335ZM449.275 169.883C449.317 169.25 449.766 168.684 450.482 168.684C451.161 168.684 451.596 169.194 451.596 169.883H449.275ZM453.185 173.778H453.811V171.624H453.864C454.002 171.846 454.267 172.335 455.052 172.335C456.071 172.335 456.782 171.518 456.782 170.223C456.782 168.939 456.071 168.122 455.042 168.122C454.246 168.122 454.002 168.61 453.864 168.822H453.79V168.175H453.185V173.778ZM453.8 170.212C453.8 169.3 454.204 168.684 454.968 168.684C455.763 168.684 456.156 169.353 456.156 170.212C456.156 171.083 455.753 171.772 454.968 171.772C454.214 171.772 453.8 171.136 453.8 170.212Z" fill="#768A8D"/>
<g filter="url(#filter2_d_1764_6245)">
<rect x="250.871" y="352.535" width="188.719" height="105.47" rx="8" fill="white"/>
<path d="M281.917 378.164C281.569 375.986 279.864 374.714 277.711 374.714C275.076 374.714 273.132 376.687 273.132 379.944C273.132 383.2 275.066 385.174 277.711 385.174C279.948 385.174 281.584 383.772 281.917 381.758L280.366 381.753C280.102 383.056 279.009 383.772 277.721 383.772C275.976 383.772 274.659 382.435 274.659 379.944C274.659 377.473 275.971 376.116 277.726 376.116C279.024 376.116 280.112 376.846 280.366 378.164H281.917ZM288.473 381.868C288.478 383.165 287.514 383.782 286.679 383.782C285.759 383.782 285.123 383.116 285.123 382.077V377.398H283.636V382.256C283.636 384.15 284.675 385.134 286.142 385.134C287.29 385.134 288.071 384.528 288.424 383.712H288.503V385.035H289.965V377.398H288.473V381.868ZM291.962 385.035H293.449V380.327C293.449 379.297 294.17 378.582 295.015 378.582C295.84 378.582 296.412 379.128 296.412 379.959V385.035H297.893V380.167C297.893 379.248 298.455 378.582 299.425 378.582C300.21 378.582 300.856 379.019 300.856 380.053V385.035H302.343V379.914C302.343 378.169 301.368 377.299 299.986 377.299C298.888 377.299 298.062 377.826 297.694 378.641H297.615C297.282 377.806 296.581 377.299 295.562 377.299C294.552 377.299 293.802 377.801 293.483 378.641H293.389V377.398H291.962V385.035ZM309.173 381.868C309.178 383.165 308.213 383.782 307.378 383.782C306.458 383.782 305.822 383.116 305.822 382.077V377.398H304.335V382.256C304.335 384.15 305.374 385.134 306.841 385.134C307.989 385.134 308.77 384.528 309.123 383.712H309.202V385.035H310.664V377.398H309.173V381.868ZM314.148 374.853H312.661V385.035H314.148V374.853ZM318.37 385.204C319.633 385.204 320.344 384.562 320.627 383.991H320.687V385.035H322.138V379.964C322.138 377.741 320.388 377.299 319.175 377.299C317.793 377.299 316.521 377.856 316.023 379.248L317.42 379.566C317.639 379.024 318.196 378.502 319.195 378.502C320.155 378.502 320.647 379.004 320.647 379.869V379.904C320.647 380.446 320.09 380.436 318.718 380.595C317.271 380.764 315.79 381.142 315.79 382.877C315.79 384.378 316.918 385.204 318.37 385.204ZM318.693 384.011C317.853 384.011 317.246 383.633 317.246 382.897C317.246 382.101 317.952 381.818 318.812 381.704C319.295 381.639 320.438 381.51 320.652 381.296V382.28C320.652 383.185 319.931 384.011 318.693 384.011ZM327.683 377.398H326.117V375.569H324.631V377.398H323.512V378.591H324.631V383.101C324.626 384.488 325.684 385.159 326.858 385.134C327.33 385.129 327.648 385.04 327.822 384.975L327.554 383.747C327.454 383.767 327.27 383.812 327.032 383.812C326.55 383.812 326.117 383.653 326.117 382.792V378.591H327.683V377.398ZM329.327 385.035H330.814V377.398H329.327V385.035ZM330.078 376.22C330.59 376.22 331.018 375.822 331.018 375.335C331.018 374.848 330.59 374.445 330.078 374.445C329.561 374.445 329.138 374.848 329.138 375.335C329.138 375.822 329.561 376.22 330.078 376.22ZM339.346 377.398H337.751L335.822 383.275H335.742L333.808 377.398H332.212L334.986 385.035H336.577L339.346 377.398ZM343.761 385.189C345.427 385.189 346.605 384.368 346.943 383.126L345.536 382.872C345.268 383.593 344.621 383.961 343.776 383.961C342.503 383.961 341.648 383.136 341.608 381.664H347.037V381.137C347.037 378.378 345.387 377.299 343.657 377.299C341.529 377.299 340.127 378.92 340.127 381.266C340.127 383.638 341.509 385.189 343.761 385.189ZM341.613 380.55C341.673 379.466 342.459 378.527 343.667 378.527C344.82 378.527 345.576 379.382 345.581 380.55H341.613ZM352.511 385.035H354.047V381.182H356.135C356.17 381.182 356.2 381.182 356.235 381.182L358.303 385.035H360.053L357.796 380.913C359.044 380.451 359.665 379.412 359.665 378.045C359.665 376.17 358.502 374.853 356.14 374.853H352.511V385.035ZM354.047 379.859V376.17H355.976C357.493 376.17 358.119 376.891 358.119 378.045C358.119 379.193 357.493 379.859 355.996 379.859H354.047ZM364.611 385.189C366.276 385.189 367.455 384.368 367.793 383.126L366.386 382.872C366.117 383.593 365.471 383.961 364.626 383.961C363.353 383.961 362.498 383.136 362.458 381.664H367.887V381.137C367.887 378.378 366.237 377.299 364.506 377.299C362.379 377.299 360.977 378.92 360.977 381.266C360.977 383.638 362.359 385.189 364.611 385.189ZM362.463 380.55C362.523 379.466 363.308 378.527 364.516 378.527C365.67 378.527 366.425 379.382 366.43 380.55H362.463ZM375.837 377.398H374.241L372.312 383.275H372.232L370.298 377.398H368.702L371.477 385.035H373.067L375.837 377.398ZM380.251 385.189C381.917 385.189 383.095 384.368 383.433 383.126L382.026 382.872C381.758 383.593 381.112 383.961 380.266 383.961C378.994 383.961 378.138 383.136 378.099 381.664H383.528V381.137C383.528 378.378 381.877 377.299 380.147 377.299C378.019 377.299 376.617 378.92 376.617 381.266C376.617 383.638 377.999 385.189 380.251 385.189ZM378.104 380.55C378.163 379.466 378.949 378.527 380.157 378.527C381.31 378.527 382.066 379.382 382.071 380.55H378.104ZM386.664 380.501C386.664 379.283 387.409 378.587 388.443 378.587C389.453 378.587 390.064 379.248 390.064 380.356V385.035H391.551V380.177C391.551 378.288 390.512 377.299 388.95 377.299C387.802 377.299 387.051 377.831 386.698 378.641H386.604V377.398H385.177V385.035H386.664V380.501ZM398.382 381.868C398.387 383.165 397.422 383.782 396.587 383.782C395.667 383.782 395.031 383.116 395.031 382.077V377.398H393.544V382.256C393.544 384.15 394.583 385.134 396.05 385.134C397.198 385.134 397.979 384.528 398.332 383.712H398.411V385.035H399.873V377.398H398.382V381.868ZM405.162 385.189C406.827 385.189 408.005 384.368 408.343 383.126L406.936 382.872C406.668 383.593 406.022 383.961 405.176 383.961C403.904 383.961 403.049 383.136 403.009 381.664H408.438V381.137C408.438 378.378 406.787 377.299 405.057 377.299C402.929 377.299 401.527 378.92 401.527 381.266C401.527 383.638 402.909 385.189 405.162 385.189ZM403.014 380.55C403.074 379.466 403.859 378.527 405.067 378.527C406.221 378.527 406.976 379.382 406.981 380.55H403.014Z" fill="#768A8D"/>
<path d="M279.228 428.77H281.574L281.594 426.473C285.9 426.145 288.395 423.858 288.405 420.407C288.395 417.017 285.84 415.217 282.3 414.422L281.713 414.282L281.753 409.311C283.076 409.619 283.881 410.464 284 411.717H288.127C288.077 408.426 285.621 406.069 281.793 405.652L281.813 403.315H279.466L279.446 405.632C275.559 406.01 272.814 408.356 272.834 411.747C272.824 414.75 274.942 416.47 278.382 417.295L279.337 417.534L279.287 422.794C277.667 422.485 276.573 421.491 276.463 419.831H272.297C272.397 423.848 275.032 426.095 279.248 426.463L279.228 428.77ZM281.634 422.794L281.674 418.15C283.215 418.637 284.05 419.264 284.06 420.397C284.05 421.601 283.135 422.495 281.634 422.794ZM279.367 413.676C278.124 413.248 277.229 412.602 277.249 411.458C277.249 410.395 278.005 409.569 279.407 409.281L279.367 413.676ZM298.619 426.503C303.153 426.503 306.236 423.549 306.226 419.433C306.236 415.535 303.511 412.731 299.842 412.731C298.053 412.731 296.511 413.477 295.795 414.481H295.676L296.203 409.38H305.102V405.86H292.653L291.689 416.599L295.517 417.285C296.143 416.44 297.357 415.913 298.56 415.913C300.608 415.923 302.08 417.405 302.08 419.542C302.08 421.66 300.638 423.122 298.619 423.122C296.909 423.122 295.527 422.048 295.428 420.467H291.251C291.331 423.987 294.403 426.503 298.619 426.503ZM317.213 426.672C322.334 426.672 325.426 422.774 325.436 416.062C325.446 409.4 322.314 405.582 317.213 405.582C312.102 405.582 309 409.39 308.99 416.062C308.97 422.754 312.082 426.662 317.213 426.672ZM317.213 423.102C314.876 423.102 313.365 420.755 313.375 416.062C313.385 411.439 314.886 409.112 317.213 409.112C319.53 409.112 321.041 411.439 321.041 416.062C321.051 420.755 319.54 423.102 317.213 423.102ZM328.546 426.224H332.782V421.372L333.925 420.069L338.091 426.224H343.053L337.097 417.564L342.765 410.951H337.902L333.01 416.748H332.782V405.86H328.546V426.224Z" fill="#151A23"/>
</g>
<g filter="url(#filter3_d_1764_6245)">
<rect x="65" y="215.828" width="188.719" height="105.47" rx="8" fill="white"/>
<path d="M96.2569 241.457C95.9089 239.28 94.2037 238.007 92.051 238.007C89.416 238.007 87.4721 239.981 87.4721 243.237C87.4721 246.494 89.4061 248.467 92.051 248.467C94.2882 248.467 95.9238 247.065 96.2569 245.052L94.7058 245.047C94.4423 246.349 93.3485 247.065 92.0609 247.065C90.3159 247.065 88.9984 245.728 88.9984 243.237C88.9984 240.766 90.3109 239.409 92.0659 239.409C93.3635 239.409 94.4522 240.14 94.7058 241.457H96.2569ZM102.813 245.161C102.818 246.459 101.854 247.075 101.018 247.075C100.099 247.075 99.4624 246.409 99.4624 245.37V240.692H97.9759V245.549C97.9759 247.443 99.0149 248.428 100.482 248.428C101.63 248.428 102.411 247.821 102.763 247.006H102.843V248.328H104.305V240.692H102.813V245.161ZM112.024 242.556C111.716 241.368 110.786 240.592 109.136 240.592C107.411 240.592 106.188 241.502 106.188 242.854C106.188 243.938 106.844 244.659 108.276 244.977L109.568 245.261C110.304 245.425 110.647 245.753 110.647 246.23C110.647 246.822 110.016 247.284 109.041 247.284C108.151 247.284 107.58 246.901 107.401 246.151L105.964 246.369C106.213 247.722 107.336 248.482 109.051 248.482C110.896 248.482 112.173 247.503 112.173 246.121C112.173 245.042 111.487 244.376 110.085 244.053L108.872 243.774C108.032 243.575 107.669 243.292 107.674 242.775C107.669 242.188 108.306 241.771 109.151 241.771C110.075 241.771 110.503 242.283 110.677 242.795L112.024 242.556ZM117.373 240.692H115.806V238.862H114.32V240.692H113.201V241.885H114.32V246.394C114.315 247.781 115.374 248.452 116.547 248.428C117.02 248.423 117.338 248.333 117.512 248.268L117.243 247.04C117.144 247.06 116.96 247.105 116.721 247.105C116.239 247.105 115.806 246.946 115.806 246.086V241.885H117.373V240.692ZM122.151 248.482C124.304 248.482 125.711 246.906 125.711 244.545C125.711 242.168 124.304 240.592 122.151 240.592C119.999 240.592 118.592 242.168 118.592 244.545C118.592 246.906 119.999 248.482 122.151 248.482ZM122.156 247.234C120.749 247.234 120.093 246.006 120.093 244.54C120.093 243.078 120.749 241.835 122.156 241.835C123.553 241.835 124.21 243.078 124.21 244.54C124.21 246.006 123.553 247.234 122.156 247.234ZM127.37 248.328H128.857V243.62C128.857 242.591 129.578 241.875 130.423 241.875C131.248 241.875 131.82 242.422 131.82 243.252V248.328H133.301V243.461C133.301 242.541 133.863 241.875 134.833 241.875C135.618 241.875 136.265 242.312 136.265 243.347V248.328H137.751V243.207C137.751 241.462 136.777 240.592 135.395 240.592C134.296 240.592 133.471 241.119 133.103 241.935H133.023C132.69 241.099 131.989 240.592 130.97 240.592C129.961 240.592 129.21 241.094 128.892 241.935H128.797V240.692H127.37V248.328ZM143.035 248.482C144.7 248.482 145.878 247.662 146.216 246.419L144.809 246.165C144.541 246.886 143.895 247.254 143.05 247.254C141.777 247.254 140.922 246.429 140.882 244.957H146.311V244.43C146.311 241.671 144.66 240.592 142.93 240.592C140.802 240.592 139.4 242.213 139.4 244.56C139.4 246.931 140.782 248.482 143.035 248.482ZM140.887 243.844C140.947 242.76 141.732 241.82 142.94 241.82C144.094 241.82 144.849 242.675 144.854 243.844H140.887ZM147.96 248.328H149.447V243.665C149.447 242.665 150.217 241.945 151.271 241.945C151.58 241.945 151.928 241.999 152.047 242.034V240.612C151.898 240.592 151.604 240.577 151.415 240.577C150.521 240.577 149.755 241.085 149.477 241.905H149.397V240.692H147.96V248.328ZM160.255 248.482C162.408 248.482 163.815 246.906 163.815 244.545C163.815 242.168 162.408 240.592 160.255 240.592C158.102 240.592 156.695 242.168 156.695 244.545C156.695 246.906 158.102 248.482 160.255 248.482ZM160.26 247.234C158.853 247.234 158.197 246.006 158.197 244.54C158.197 243.078 158.853 241.835 160.26 241.835C161.657 241.835 162.313 243.078 162.313 244.54C162.313 246.006 161.657 247.234 160.26 247.234ZM166.96 243.794C166.96 242.576 167.706 241.88 168.74 241.88C169.749 241.88 170.361 242.541 170.361 243.65V248.328H171.847V243.471C171.847 241.582 170.808 240.592 169.247 240.592C168.099 240.592 167.348 241.124 166.995 241.935H166.901V240.692H165.474V248.328H166.96V243.794ZM173.96 248.328H175.412V247.14H175.536C175.805 247.627 176.352 248.477 177.744 248.477C179.593 248.477 180.936 246.996 180.936 244.525C180.936 242.049 179.573 240.592 177.729 240.592C176.312 240.592 175.8 241.457 175.536 241.93H175.447V238.146H173.96V248.328ZM175.417 244.51C175.417 242.914 176.113 241.855 177.411 241.855C178.758 241.855 179.434 242.994 179.434 244.51C179.434 246.041 178.738 247.21 177.411 247.21C176.133 247.21 175.417 246.116 175.417 244.51ZM185.821 248.482C187.974 248.482 189.381 246.906 189.381 244.545C189.381 242.168 187.974 240.592 185.821 240.592C183.669 240.592 182.262 242.168 182.262 244.545C182.262 246.906 183.669 248.482 185.821 248.482ZM185.826 247.234C184.419 247.234 183.763 246.006 183.763 244.54C183.763 243.078 184.419 241.835 185.826 241.835C187.223 241.835 187.88 243.078 187.88 244.54C187.88 246.006 187.223 247.234 185.826 247.234ZM193.263 248.497C194.525 248.497 195.236 247.856 195.52 247.284H195.579V248.328H197.031V243.257C197.031 241.035 195.281 240.592 194.068 240.592C192.686 240.592 191.413 241.149 190.916 242.541L192.313 242.859C192.532 242.317 193.089 241.795 194.088 241.795C195.047 241.795 195.54 242.298 195.54 243.163V243.197C195.54 243.739 194.983 243.729 193.611 243.888C192.164 244.058 190.682 244.435 190.682 246.17C190.682 247.672 191.811 248.497 193.263 248.497ZM193.586 247.304C192.746 247.304 192.139 246.926 192.139 246.19C192.139 245.395 192.845 245.112 193.705 244.997C194.187 244.933 195.331 244.803 195.545 244.589V245.574C195.545 246.479 194.824 247.304 193.586 247.304ZM199.011 248.328H200.498V243.665C200.498 242.665 201.268 241.945 202.322 241.945C202.63 241.945 202.978 241.999 203.098 242.034V240.612C202.949 240.592 202.655 240.577 202.466 240.577C201.571 240.577 200.806 241.085 200.527 241.905H200.448V240.692H199.011V248.328ZM206.969 248.477C208.361 248.477 208.908 247.627 209.177 247.14H209.301V248.328H210.753V238.146H209.266V241.93H209.177C208.908 241.457 208.401 240.592 206.979 240.592C205.135 240.592 203.778 242.049 203.778 244.525C203.778 246.996 205.115 248.477 206.969 248.477ZM207.297 247.21C205.97 247.21 205.279 246.041 205.279 244.51C205.279 242.994 205.955 241.855 207.297 241.855C208.595 241.855 209.291 242.914 209.291 244.51C209.291 246.116 208.58 247.21 207.297 247.21ZM212.874 248.328H214.361V240.692H212.874V248.328ZM213.625 239.513C214.137 239.513 214.565 239.116 214.565 238.629C214.565 238.141 214.137 237.739 213.625 237.739C213.108 237.739 212.685 238.141 212.685 238.629C212.685 239.116 213.108 239.513 213.625 239.513ZM217.847 243.794C217.847 242.576 218.593 241.88 219.627 241.88C220.636 241.88 221.248 242.541 221.248 243.65V248.328H222.734V243.471C222.734 241.582 221.695 240.592 220.134 240.592C218.986 240.592 218.235 241.124 217.882 241.935H217.787V240.692H216.361V248.328H217.847V243.794ZM227.93 251.351C229.873 251.351 231.375 250.461 231.375 248.497V240.692H229.918V241.93H229.809C229.545 241.457 229.018 240.592 227.596 240.592C225.752 240.592 224.395 242.049 224.395 244.48C224.395 246.916 225.782 248.214 227.586 248.214C228.988 248.214 229.53 247.423 229.799 246.936H229.893V248.438C229.893 249.636 229.073 250.153 227.944 250.153C226.706 250.153 226.224 249.531 225.961 249.094L224.683 249.621C225.086 250.555 226.105 251.351 227.93 251.351ZM227.915 246.981C226.587 246.981 225.896 245.962 225.896 244.46C225.896 242.994 226.572 241.855 227.915 241.855C229.212 241.855 229.908 242.914 229.908 244.46C229.908 246.036 229.197 246.981 227.915 246.981Z" fill="#768A8D"/>
<path d="M95.1584 289.965C100.279 289.965 103.371 286.067 103.381 279.356C103.391 272.694 100.259 268.876 95.1584 268.876C90.0476 268.876 86.9453 272.684 86.9354 279.356C86.9155 286.047 90.0277 289.955 95.1584 289.965ZM95.1584 286.395C92.8217 286.395 91.3104 284.049 91.3203 279.356C91.3303 274.732 92.8317 272.405 95.1584 272.405C97.4751 272.405 98.9865 274.732 98.9865 279.356C98.9964 284.049 97.4851 286.395 95.1584 286.395ZM113.889 289.796C118.423 289.796 121.505 286.843 121.495 282.726C121.505 278.829 118.781 276.025 115.112 276.025C113.322 276.025 111.781 276.77 111.065 277.775H110.946L111.473 272.674H120.372V269.154H107.923L106.958 279.893L110.787 280.579C111.413 279.733 112.626 279.206 113.829 279.206C115.877 279.216 117.349 280.698 117.349 282.836C117.349 284.954 115.907 286.415 113.889 286.415C112.179 286.415 110.797 285.341 110.697 283.76H106.521C106.6 287.28 109.673 289.796 113.889 289.796Z" fill="#151A23"/>
</g>
<defs>
<filter id="filter0_d_1764_6245" x="0.61171" y="0.560974" width="726.829" height="568.829" filterUnits="userSpaceOnUse" color-interpolation-filters="sRGB">
<feFlood flood-opacity="0" result="BackgroundImageFix"/>
<feColorMatrix in="SourceAlpha" type="matrix" values="0 0 0 0 0 0 0 0 0 0 0 0 0 0 0 0 0 0 127 0" result="hardAlpha"/>
<feOffset dx="-30.9756" dy="30.9756"/>
<feGaussianBlur stdDeviation="54.2073"/>
<feComposite in2="hardAlpha" operator="out"/>
<feColorMatrix type="matrix" values="0 0 0 0 0.870677 0 0 0 0 0.895771 0 0 0 0 0.9125 0 0 0 1 0"/>
<feBlend mode="normal" in2="BackgroundImageFix" result="effect1_dropShadow_1764_6245"/>
<feBlend mode="normal" in="SourceGraphic" in2="effect1_dropShadow_1764_6245" result="shape"/>
</filter>
<filter id="filter1_d_1764_6245" x="425.745" y="162.766" width="38.5955" height="21.1227" filterUnits="userSpaceOnUse" color-interpolation-filters="sRGB">
<feFlood flood-opacity="0" result="BackgroundImageFix"/>
<feColorMatrix in="SourceAlpha" type="matrix" values="0 0 0 0 0 0 0 0 0 0 0 0 0 0 0 0 0 0 127 0" result="hardAlpha"/>
<feOffset dy="1.245"/>
<feGaussianBlur stdDeviation="0.622498"/>
<feColorMatrix type="matrix" values="0 0 0 0 0 0 0 0 0 0 0 0 0 0 0 0 0 0 0.08 0"/>
<feBlend mode="normal" in2="BackgroundImageFix" result="effect1_dropShadow_1764_6245"/>
<feBlend mode="normal" in="SourceGraphic" in2="effect1_dropShadow_1764_6245" result="shape"/>
</filter>
<filter id="filter2_d_1764_6245" x="227.715" y="329.379" width="327.653" height="244.404" filterUnits="userSpaceOnUse" color-interpolation-filters="sRGB">
<feFlood flood-opacity="0" result="BackgroundImageFix"/>
<feColorMatrix in="SourceAlpha" type="matrix" values="0 0 0 0 0 0 0 0 0 0 0 0 0 0 0 0 0 0 127 0" result="hardAlpha"/>
<feOffset dx="46.3115" dy="46.3115"/>
<feGaussianBlur stdDeviation="34.7336"/>
<feComposite in2="hardAlpha" operator="out"/>
<feColorMatrix type="matrix" values="0 0 0 0 0 0 0 0 0 0 0 0 0 0 0 0 0 0 0.06 0"/>
<feBlend mode="normal" in2="BackgroundImageFix" result="effect1_dropShadow_1764_6245"/>
<feBlend mode="normal" in="SourceGraphic" in2="effect1_dropShadow_1764_6245" result="shape"/>
</filter>
<filter id="filter3_d_1764_6245" x="41.8443" y="192.672" width="327.653" height="244.404" filterUnits="userSpaceOnUse" color-interpolation-filters="sRGB">
<feFlood flood-opacity="0" result="BackgroundImageFix"/>
<feColorMatrix in="SourceAlpha" type="matrix" values="0 0 0 0 0 0 0 0 0 0 0 0 0 0 0 0 0 0 127 0" result="hardAlpha"/>
<feOffset dx="46.3115" dy="46.3115"/>
<feGaussianBlur stdDeviation="34.7336"/>
<feComposite in2="hardAlpha" operator="out"/>
<feColorMatrix type="matrix" values="0 0 0 0 0 0 0 0 0 0 0 0 0 0 0 0 0 0 0.06 0"/>
<feBlend mode="normal" in2="BackgroundImageFix" result="effect1_dropShadow_1764_6245"/>
<feBlend mode="normal" in="SourceGraphic" in2="effect1_dropShadow_1764_6245" result="shape"/>
</filter>
</defs>
</svg>
