<svg width="797" height="528" viewBox="0 0 797 528" fill="none" xmlns="http://www.w3.org/2000/svg">
<g filter="url(#filter0_d_1823_3879)">
<path fill-rule="evenodd" clip-rule="evenodd" d="M48 47C48 41.3995 48 38.5992 49.0899 36.4601C50.0487 34.5785 51.5785 33.0487 53.4601 32.0899C55.5992 31 58.3995 31 64 31H677C682.601 31 685.401 31 687.54 32.0899C689.422 33.0487 690.951 34.5785 691.91 36.4601C693 38.5992 693 41.3995 693 47V383C693 388.601 693 391.401 691.91 393.54C690.951 395.422 689.422 396.951 687.54 397.91C685.401 399 682.601 399 677 399H64C58.3995 399 55.5992 399 53.4601 397.91C51.5785 396.951 50.0487 395.422 49.0899 393.54C48 391.401 48 388.601 48 383V47Z" fill="white"/>
</g>
<path fill-rule="evenodd" clip-rule="evenodd" d="M88 164H142V324H88V164Z" fill="url(#paint0_linear_1823_3879)"/>
<path fill-rule="evenodd" clip-rule="evenodd" d="M152 147H206V324H152V147Z" fill="url(#paint1_linear_1823_3879)"/>
<path fill-rule="evenodd" clip-rule="evenodd" d="M216 168H270V324H216V168Z" fill="url(#paint2_linear_1823_3879)"/>
<path fill-rule="evenodd" clip-rule="evenodd" d="M280 122H334V324H280V122Z" fill="url(#paint3_linear_1823_3879)"/>
<path fill-rule="evenodd" clip-rule="evenodd" d="M344 103H398V324H344V103Z" fill="url(#paint4_linear_1823_3879)"/>
<path fill-rule="evenodd" clip-rule="evenodd" d="M408 72H462V324H408V72Z" fill="url(#paint5_linear_1823_3879)"/>
<path fill-rule="evenodd" clip-rule="evenodd" d="M472 147H526V324H472V147Z" fill="url(#paint6_linear_1823_3879)"/>
<path fill-rule="evenodd" clip-rule="evenodd" d="M536 51H590V324H536V51Z" fill="url(#paint7_linear_1823_3879)"/>
<path fill-rule="evenodd" clip-rule="evenodd" d="M600 31H654V324H600V31Z" fill="url(#paint8_linear_1823_3879)"/>
<path d="M121.858 353.273V362H122.846V355.369H122.931L125.659 362H126.613L129.341 355.369H129.426V362H130.414V353.273H129.153L126.187 360.517H126.085L123.119 353.273H121.858ZM135.056 362.136C136.829 362.136 138.022 360.79 138.022 358.761C138.022 356.716 136.829 355.369 135.056 355.369C133.283 355.369 132.09 356.716 132.09 358.761C132.09 360.79 133.283 362.136 135.056 362.136ZM135.056 361.233C133.71 361.233 133.096 360.074 133.096 358.761C133.096 357.449 133.71 356.273 135.056 356.273C136.403 356.273 137.016 357.449 137.016 358.761C137.016 360.074 136.403 361.233 135.056 361.233ZM140.563 358.062C140.563 356.92 141.27 356.273 142.233 356.273C143.167 356.273 143.733 356.882 143.733 357.909V362H144.739V357.841C144.739 356.17 143.848 355.369 142.523 355.369C141.534 355.369 140.921 355.812 140.614 356.477H140.529V355.455H139.557V362H140.563V358.062ZM149.423 355.455H148.026V353.886H147.02V355.455H146.031V356.307H147.02V360.398C147.02 361.54 147.94 362.085 148.793 362.085C149.168 362.085 149.406 362.017 149.543 361.966L149.338 361.062C149.253 361.08 149.116 361.114 148.895 361.114C148.452 361.114 148.026 360.977 148.026 360.125V356.307H149.423V355.455ZM152.082 358.062C152.082 356.92 152.811 356.273 153.804 356.273C154.75 356.273 155.321 356.869 155.321 357.909V362H156.327V357.841C156.327 356.158 155.432 355.369 154.094 355.369C153.062 355.369 152.474 355.8 152.168 356.477H152.082V353.273H151.077V362H152.082V358.062ZM159.172 353.273H158.167V362H159.172V353.273ZM161.662 364.455C162.57 364.455 163.209 363.973 163.588 362.955L166.375 355.472L165.276 355.455L163.469 360.67H163.401L161.594 355.455H160.503L162.923 362.034L162.736 362.545C162.369 363.543 161.918 363.636 161.185 363.449L160.929 364.335C161.031 364.386 161.321 364.455 161.662 364.455ZM171.217 362H172.274V358.812H174.183C176.216 358.812 177.132 357.577 177.132 356.034C177.132 354.491 176.216 353.273 174.166 353.273H171.217V362ZM172.274 357.875V354.21H174.132C175.551 354.21 176.092 354.986 176.092 356.034C176.092 357.082 175.551 357.875 174.149 357.875H172.274ZM180.624 362.153C181.766 362.153 182.363 361.54 182.567 361.114H182.618V362H183.624V357.688C183.624 355.608 182.039 355.369 181.203 355.369C180.215 355.369 179.09 355.71 178.578 356.903L179.533 357.244C179.755 356.767 180.279 356.256 181.238 356.256C182.162 356.256 182.618 356.746 182.618 357.585V357.619C182.618 358.105 182.124 358.062 180.931 358.216C179.716 358.374 178.391 358.642 178.391 360.142C178.391 361.42 179.38 362.153 180.624 362.153ZM180.777 361.25C179.976 361.25 179.397 360.892 179.397 360.193C179.397 359.426 180.096 359.188 180.88 359.085C181.306 359.034 182.448 358.915 182.618 358.71V359.631C182.618 360.449 181.971 361.25 180.777 361.25ZM185.873 364.455C186.781 364.455 187.42 363.973 187.799 362.955L190.586 355.472L189.487 355.455L187.68 360.67H187.612L185.805 355.455H184.714L187.134 362.034L186.947 362.545C186.58 363.543 186.129 363.636 185.396 363.449L185.14 364.335C185.242 364.386 185.532 364.455 185.873 364.455ZM191.917 362H192.922V357.909C192.922 356.95 193.621 356.273 194.405 356.273C195.168 356.273 195.701 356.771 195.701 357.517V362H196.723V357.739C196.723 356.895 197.252 356.273 198.172 356.273C198.888 356.273 199.502 356.652 199.502 357.619V362H200.507V357.619C200.507 356.081 199.681 355.369 198.513 355.369C197.576 355.369 196.89 355.8 196.553 356.477H196.485C196.161 355.778 195.59 355.369 194.729 355.369C193.877 355.369 193.246 355.778 192.973 356.477H192.888V355.455H191.917V362ZM205.091 362.136C206.42 362.136 207.392 361.472 207.699 360.483L206.727 360.21C206.471 360.892 205.879 361.233 205.091 361.233C203.91 361.233 203.096 360.47 203.049 359.068H207.801V358.642C207.801 356.205 206.352 355.369 204.988 355.369C203.216 355.369 202.039 356.767 202.039 358.778C202.039 360.79 203.199 362.136 205.091 362.136ZM203.049 358.199C203.118 357.18 203.838 356.273 204.988 356.273C206.079 356.273 206.778 357.091 206.778 358.199H203.049ZM210.336 358.062C210.336 356.92 211.044 356.273 212.007 356.273C212.94 356.273 213.507 356.882 213.507 357.909V362H214.512V357.841C214.512 356.17 213.622 355.369 212.297 355.369C211.308 355.369 210.694 355.812 210.387 356.477H210.302V355.455H209.331V362H210.336V358.062ZM219.197 355.455H217.799V353.886H216.793V355.455H215.805V356.307H216.793V360.398C216.793 361.54 217.714 362.085 218.566 362.085C218.941 362.085 219.18 362.017 219.316 361.966L219.112 361.062C219.026 361.08 218.89 361.114 218.668 361.114C218.225 361.114 217.799 360.977 217.799 360.125V356.307H219.197V355.455Z" fill="#496572"/>
<path d="M290.858 362H294.011C296.074 362 296.926 360.994 296.926 359.682C296.926 358.301 295.971 357.551 295.17 357.5V357.415C295.92 357.21 296.585 356.716 296.585 355.591C296.585 354.312 295.733 353.273 293.909 353.273H290.858V362ZM291.914 361.062V358.028H294.062C295.204 358.028 295.92 358.795 295.92 359.682C295.92 360.449 295.392 361.062 294.011 361.062H291.914ZM291.914 357.108V354.21H293.909C295.068 354.21 295.579 354.824 295.579 355.591C295.579 356.511 294.829 357.108 293.875 357.108H291.914ZM302.651 359.324C302.651 360.551 301.713 361.114 300.963 361.114C300.128 361.114 299.532 360.5 299.532 359.545V355.455H298.526V359.614C298.526 361.284 299.412 362.085 300.64 362.085C301.628 362.085 302.276 361.557 302.583 360.892H302.651V362H303.657V355.455H302.651V359.324ZM310.135 356.92C309.82 355.991 309.112 355.369 307.817 355.369C306.436 355.369 305.413 356.153 305.413 357.261C305.413 358.165 305.95 358.77 307.152 359.051L308.243 359.307C308.903 359.46 309.214 359.776 309.214 360.227C309.214 360.79 308.618 361.25 307.68 361.25C306.858 361.25 306.342 360.896 306.163 360.193L305.209 360.432C305.443 361.544 306.359 362.136 307.697 362.136C309.219 362.136 310.254 361.305 310.254 360.176C310.254 359.264 309.683 358.689 308.516 358.403L307.544 358.165C306.768 357.973 306.419 357.713 306.419 357.21C306.419 356.648 307.016 356.239 307.817 356.239C308.695 356.239 309.057 356.724 309.232 357.176L310.135 356.92ZM311.768 362H312.774V355.455H311.768V362ZM312.279 354.364C312.672 354.364 312.995 354.057 312.995 353.682C312.995 353.307 312.672 353 312.279 353C311.887 353 311.564 353.307 311.564 353.682C311.564 354.057 311.887 354.364 312.279 354.364ZM315.621 358.062C315.621 356.92 316.329 356.273 317.292 356.273C318.225 356.273 318.792 356.882 318.792 357.909V362H319.798V357.841C319.798 356.17 318.907 355.369 317.582 355.369C316.593 355.369 315.979 355.812 315.673 356.477H315.587V355.455H314.616V362H315.621V358.062ZM324.38 362.136C325.709 362.136 326.681 361.472 326.988 360.483L326.016 360.21C325.76 360.892 325.168 361.233 324.38 361.233C323.199 361.233 322.385 360.47 322.338 359.068H327.09V358.642C327.09 356.205 325.641 355.369 324.277 355.369C322.505 355.369 321.328 356.767 321.328 358.778C321.328 360.79 322.488 362.136 324.38 362.136ZM322.338 358.199C322.407 357.18 323.127 356.273 324.277 356.273C325.368 356.273 326.067 357.091 326.067 358.199H322.338ZM333.256 356.92C332.941 355.991 332.233 355.369 330.938 355.369C329.557 355.369 328.534 356.153 328.534 357.261C328.534 358.165 329.071 358.77 330.273 359.051L331.364 359.307C332.025 359.46 332.336 359.776 332.336 360.227C332.336 360.79 331.739 361.25 330.801 361.25C329.979 361.25 329.463 360.896 329.284 360.193L328.33 360.432C328.564 361.544 329.48 362.136 330.819 362.136C332.34 362.136 333.375 361.305 333.375 360.176C333.375 359.264 332.804 358.689 331.637 358.403L330.665 358.165C329.89 357.973 329.54 357.713 329.54 357.21C329.54 356.648 330.137 356.239 330.938 356.239C331.816 356.239 332.178 356.724 332.353 357.176L333.256 356.92ZM339.526 356.92C339.21 355.991 338.503 355.369 337.207 355.369C335.827 355.369 334.804 356.153 334.804 357.261C334.804 358.165 335.341 358.77 336.543 359.051L337.634 359.307C338.294 359.46 338.605 359.776 338.605 360.227C338.605 360.79 338.009 361.25 337.071 361.25C336.249 361.25 335.733 360.896 335.554 360.193L334.599 360.432C334.834 361.544 335.75 362.136 337.088 362.136C338.609 362.136 339.645 361.305 339.645 360.176C339.645 359.264 339.074 358.689 337.906 358.403L336.935 358.165C336.159 357.973 335.81 357.713 335.81 357.21C335.81 356.648 336.406 356.239 337.207 356.239C338.085 356.239 338.447 356.724 338.622 357.176L339.526 356.92ZM344.67 362H345.727V358.591H347.636C347.713 358.591 347.785 358.591 347.858 358.587L349.699 362H350.926L348.953 358.395C350.065 358.016 350.585 357.108 350.585 355.949C350.585 354.406 349.664 353.273 347.619 353.273H344.67V362ZM345.727 357.636V354.21H347.585C349 354.21 349.545 354.901 349.545 355.949C349.545 356.997 349 357.636 347.602 357.636H345.727ZM354.884 362.136C356.213 362.136 357.185 361.472 357.491 360.483L356.52 360.21C356.264 360.892 355.672 361.233 354.884 361.233C353.703 361.233 352.889 360.47 352.842 359.068H357.594V358.642C357.594 356.205 356.145 355.369 354.781 355.369C353.009 355.369 351.832 356.767 351.832 358.778C351.832 360.79 352.991 362.136 354.884 362.136ZM352.842 358.199C352.911 357.18 353.631 356.273 354.781 356.273C355.872 356.273 356.571 357.091 356.571 358.199H352.842ZM364.277 355.455H363.186L361.379 360.67H361.311L359.504 355.455H358.413L360.833 362H361.856L364.277 355.455ZM368.114 362.136C369.444 362.136 370.415 361.472 370.722 360.483L369.75 360.21C369.495 360.892 368.902 361.233 368.114 361.233C366.934 361.233 366.12 360.47 366.073 359.068H370.824V358.642C370.824 356.205 369.375 355.369 368.012 355.369C366.239 355.369 365.063 356.767 365.063 358.778C365.063 360.79 366.222 362.136 368.114 362.136ZM366.073 358.199C366.141 357.18 366.861 356.273 368.012 356.273C369.103 356.273 369.801 357.091 369.801 358.199H366.073ZM373.36 358.062C373.36 356.92 374.067 356.273 375.03 356.273C375.963 356.273 376.53 356.882 376.53 357.909V362H377.536V357.841C377.536 356.17 376.645 355.369 375.32 355.369C374.331 355.369 373.718 355.812 373.411 356.477H373.326V355.455H372.354V362H373.36V358.062ZM383.499 359.324C383.499 360.551 382.561 361.114 381.811 361.114C380.976 361.114 380.379 360.5 380.379 359.545V355.455H379.374V359.614C379.374 361.284 380.26 362.085 381.487 362.085C382.476 362.085 383.124 361.557 383.43 360.892H383.499V362H384.504V355.455H383.499V359.324ZM389.091 362.136C390.42 362.136 391.392 361.472 391.699 360.483L390.727 360.21C390.471 360.892 389.879 361.233 389.091 361.233C387.91 361.233 387.096 360.47 387.049 359.068H391.801V358.642C391.801 356.205 390.352 355.369 388.988 355.369C387.216 355.369 386.039 356.767 386.039 358.778C386.039 360.79 387.199 362.136 389.091 362.136ZM387.049 358.199C387.118 357.18 387.838 356.273 388.988 356.273C390.079 356.273 390.778 357.091 390.778 358.199H387.049Z" fill="#496572"/>
<path fill-rule="evenodd" clip-rule="evenodd" d="M88 350C88 348.895 88.8954 348 90 348H106.8C107.905 348 108.8 348.895 108.8 350V366.8C108.8 367.905 107.905 368.8 106.8 368.8H90C88.8954 368.8 88 367.905 88 366.8V350Z" fill="#05ABC4"/>
<path fill-rule="evenodd" clip-rule="evenodd" d="M257 350C257 348.895 257.895 348 259 348H275.8C276.905 348 277.8 348.895 277.8 350V366.8C277.8 367.905 276.905 368.8 275.8 368.8H259C257.895 368.8 257 367.905 257 366.8V350Z" fill="#C8E8EE"/>
<path fill-rule="evenodd" clip-rule="evenodd" d="M234 2C228.477 2 224 6.47715 224 12V38C224 43.5228 228.477 48 234 48H430.514L440.571 60L449.714 48H496C501.523 48 506 43.5228 506 38V12C506 6.47715 501.523 2 496 2H234Z" fill="#ECF3F8"/>
<path d="M245.119 30H246.655V26.4205H248.743C251.104 26.4205 252.273 24.9936 252.273 23.1143C252.273 21.2401 251.114 19.8182 248.748 19.8182H245.119V30ZM246.655 25.1179V21.1357H248.584C250.105 21.1357 250.727 21.9609 250.727 23.1143C250.727 24.2678 250.105 25.1179 248.604 25.1179H246.655ZM256.108 30.169C257.371 30.169 258.082 29.5277 258.365 28.956H258.425V30H259.877V24.929C259.877 22.7067 258.127 22.2642 256.914 22.2642C255.532 22.2642 254.259 22.821 253.762 24.2131L255.159 24.5312C255.377 23.9893 255.934 23.4673 256.934 23.4673C257.893 23.4673 258.385 23.9695 258.385 24.8345V24.8693C258.385 25.4112 257.828 25.4013 256.456 25.5604C255.01 25.7294 253.528 26.1072 253.528 27.8423C253.528 29.3438 254.657 30.169 256.108 30.169ZM256.431 28.9759C255.591 28.9759 254.985 28.598 254.985 27.8622C254.985 27.0668 255.691 26.7834 256.551 26.669C257.033 26.6044 258.176 26.4751 258.39 26.2614V27.2457C258.39 28.1506 257.669 28.9759 256.431 28.9759ZM262.523 32.8636C263.751 32.8636 264.526 32.2223 264.969 31.0192L268.126 22.3786L266.52 22.3636L264.586 28.2898H264.507L262.573 22.3636H260.982L263.776 30.0994L263.592 30.6065C263.214 31.6207 262.682 31.7053 261.867 31.4815L261.509 32.6996C261.688 32.7791 262.075 32.8636 262.523 32.8636ZM269.527 30H271.013V25.2919C271.013 24.2628 271.734 23.5469 272.579 23.5469C273.404 23.5469 273.976 24.0938 273.976 24.924V30H275.458V25.1328C275.458 24.2131 276.02 23.5469 276.989 23.5469C277.775 23.5469 278.421 23.9844 278.421 25.0185V30H279.907V24.8793C279.907 23.1342 278.933 22.2642 277.551 22.2642C276.452 22.2642 275.627 22.7912 275.259 23.6065H275.179C274.846 22.7713 274.145 22.2642 273.126 22.2642C272.117 22.2642 271.366 22.7663 271.048 23.6065H270.953V22.3636H269.527V30ZM285.191 30.1541C286.856 30.1541 288.035 29.3338 288.373 28.0909L286.966 27.8374C286.697 28.5582 286.051 28.9261 285.206 28.9261C283.933 28.9261 283.078 28.1009 283.038 26.6293H288.467V26.1023C288.467 23.343 286.817 22.2642 285.086 22.2642C282.959 22.2642 281.557 23.8849 281.557 26.2315C281.557 28.603 282.939 30.1541 285.191 30.1541ZM283.043 25.5156C283.103 24.4318 283.888 23.4922 285.096 23.4922C286.25 23.4922 287.006 24.3473 287.01 25.5156H283.043ZM291.603 25.4659C291.603 24.2479 292.349 23.5518 293.383 23.5518C294.392 23.5518 295.004 24.2131 295.004 25.3217V30H296.49V25.1428C296.49 23.2536 295.451 22.2642 293.89 22.2642C292.741 22.2642 291.991 22.7962 291.638 23.6065H291.543V22.3636H290.116V30H291.603V25.4659ZM302.048 22.3636H300.482V20.5341H298.996V22.3636H297.877V23.5568H298.996V28.0661C298.991 29.4531 300.05 30.1243 301.223 30.0994C301.695 30.0945 302.013 30.005 302.188 29.9403L301.919 28.7124C301.82 28.7322 301.636 28.777 301.397 28.777C300.915 28.777 300.482 28.6179 300.482 27.7578V23.5568H302.048V22.3636ZM309.62 30.169C310.883 30.169 311.594 29.5277 311.877 28.956H311.937V30H313.388V24.929C313.388 22.7067 311.638 22.2642 310.425 22.2642C309.043 22.2642 307.771 22.821 307.273 24.2131L308.67 24.5312C308.889 23.9893 309.446 23.4673 310.445 23.4673C311.405 23.4673 311.897 23.9695 311.897 24.8345V24.8693C311.897 25.4112 311.34 25.4013 309.968 25.5604C308.521 25.7294 307.04 26.1072 307.04 27.8423C307.04 29.3438 308.168 30.169 309.62 30.169ZM309.943 28.9759C309.103 28.9759 308.496 28.598 308.496 27.8622C308.496 27.0668 309.202 26.7834 310.062 26.669C310.545 26.6044 311.688 26.4751 311.902 26.2614V27.2457C311.902 28.1506 311.181 28.9759 309.943 28.9759ZM315.368 30H316.855V25.3366C316.855 24.3374 317.626 23.6165 318.68 23.6165C318.988 23.6165 319.336 23.6712 319.455 23.706V22.2841C319.306 22.2642 319.013 22.2493 318.824 22.2493C317.929 22.2493 317.163 22.7564 316.885 23.5767H316.805V22.3636H315.368V30ZM323.759 30.1541C325.425 30.1541 326.603 29.3338 326.941 28.0909L325.534 27.8374C325.266 28.5582 324.619 28.9261 323.774 28.9261C322.501 28.9261 321.646 28.1009 321.607 26.6293H327.036V26.1023C327.036 23.343 325.385 22.2642 323.655 22.2642C321.527 22.2642 320.125 23.8849 320.125 26.2315C320.125 28.603 321.507 30.1541 323.759 30.1541ZM321.612 25.5156C321.671 24.4318 322.457 23.4922 323.665 23.4922C324.818 23.4922 325.574 24.3473 325.579 25.5156H321.612ZM332.39 32.8636H333.876V28.8118H333.966C334.234 29.299 334.781 30.1491 336.173 30.1491C338.023 30.1491 339.365 28.6676 339.365 26.1967C339.365 23.7209 338.003 22.2642 336.158 22.2642C334.741 22.2642 334.229 23.1293 333.966 23.6016H333.842V22.3636H332.39V32.8636ZM333.847 26.1818C333.847 24.5859 334.543 23.527 335.84 23.527C337.188 23.527 337.864 24.6655 337.864 26.1818C337.864 27.7131 337.168 28.8814 335.84 28.8814C334.562 28.8814 333.847 27.7876 333.847 26.1818ZM341.031 30H342.517V25.3366C342.517 24.3374 343.288 23.6165 344.342 23.6165C344.65 23.6165 344.998 23.6712 345.117 23.706V22.2841C344.968 22.2642 344.675 22.2493 344.486 22.2493C343.591 22.2493 342.825 22.7564 342.547 23.5767H342.467V22.3636H341.031V30ZM349.347 30.1541C351.499 30.1541 352.906 28.5781 352.906 26.2166C352.906 23.8402 351.499 22.2642 349.347 22.2642C347.194 22.2642 345.787 23.8402 345.787 26.2166C345.787 28.5781 347.194 30.1541 349.347 30.1541ZM349.352 28.9062C347.945 28.9062 347.289 27.6783 347.289 26.2116C347.289 24.75 347.945 23.5071 349.352 23.5071C350.749 23.5071 351.405 24.75 351.405 26.2116C351.405 27.6783 350.749 28.9062 349.352 28.9062ZM354.566 32.8636H356.052V28.8118H356.142C356.41 29.299 356.957 30.1491 358.349 30.1491C360.199 30.1491 361.541 28.6676 361.541 26.1967C361.541 23.7209 360.179 22.2642 358.334 22.2642C356.917 22.2642 356.405 23.1293 356.142 23.6016H356.017V22.3636H354.566V32.8636ZM356.022 26.1818C356.022 24.5859 356.718 23.527 358.016 23.527C359.363 23.527 360.039 24.6655 360.039 26.1818C360.039 27.7131 359.343 28.8814 358.016 28.8814C356.738 28.8814 356.022 27.7876 356.022 26.1818ZM366.423 30.1541C368.576 30.1541 369.983 28.5781 369.983 26.2166C369.983 23.8402 368.576 22.2642 366.423 22.2642C364.27 22.2642 362.863 23.8402 362.863 26.2166C362.863 28.5781 364.27 30.1541 366.423 30.1541ZM366.428 28.9062C365.021 28.9062 364.365 27.6783 364.365 26.2116C364.365 24.75 365.021 23.5071 366.428 23.5071C367.825 23.5071 368.481 24.75 368.481 26.2116C368.481 27.6783 367.825 28.9062 366.428 28.9062ZM371.642 30H373.128V25.3366C373.128 24.3374 373.899 23.6165 374.953 23.6165C375.261 23.6165 375.609 23.6712 375.729 23.706V22.2841C375.579 22.2642 375.286 22.2493 375.097 22.2493C374.202 22.2493 373.437 22.7564 373.158 23.5767H373.079V22.3636H371.642V30ZM381.031 22.3636H379.465V20.5341H377.978V22.3636H376.86V23.5568H377.978V28.0661C377.973 29.4531 379.032 30.1243 380.205 30.0994C380.678 30.0945 380.996 30.005 381.17 29.9403L380.901 28.7124C380.802 28.7322 380.618 28.777 380.379 28.777C379.897 28.777 379.465 28.6179 379.465 27.7578V23.5568H381.031V22.3636ZM382.675 30H384.162V22.3636H382.675V30ZM383.426 21.1854C383.938 21.1854 384.365 20.7876 384.365 20.3004C384.365 19.8132 383.938 19.4105 383.426 19.4105C382.909 19.4105 382.486 19.8132 382.486 20.3004C382.486 20.7876 382.909 21.1854 383.426 21.1854ZM389.378 30.1541C391.531 30.1541 392.938 28.5781 392.938 26.2166C392.938 23.8402 391.531 22.2642 389.378 22.2642C387.225 22.2642 385.818 23.8402 385.818 26.2166C385.818 28.5781 387.225 30.1541 389.378 30.1541ZM389.383 28.9062C387.976 28.9062 387.32 27.6783 387.32 26.2116C387.32 24.75 387.976 23.5071 389.383 23.5071C390.78 23.5071 391.436 24.75 391.436 26.2116C391.436 27.6783 390.78 28.9062 389.383 28.9062ZM396.083 25.4659C396.083 24.2479 396.829 23.5518 397.863 23.5518C398.873 23.5518 399.484 24.2131 399.484 25.3217V30H400.971V25.1428C400.971 23.2536 399.931 22.2642 398.37 22.2642C397.222 22.2642 396.471 22.7962 396.118 23.6065H396.024V22.3636H394.597V30H396.083V25.4659ZM405.186 30.169C406.449 30.169 407.16 29.5277 407.444 28.956H407.503V30H408.955V24.929C408.955 22.7067 407.205 22.2642 405.992 22.2642C404.61 22.2642 403.337 22.821 402.84 24.2131L404.237 24.5312C404.456 23.9893 405.012 23.4673 406.012 23.4673C406.971 23.4673 407.463 23.9695 407.463 24.8345V24.8693C407.463 25.4112 406.907 25.4013 405.534 25.5604C404.088 25.7294 402.606 26.1072 402.606 27.8423C402.606 29.3438 403.735 30.169 405.186 30.169ZM405.51 28.9759C404.669 28.9759 404.063 28.598 404.063 27.8622C404.063 27.0668 404.769 26.7834 405.629 26.669C406.111 26.6044 407.255 26.4751 407.468 26.2614V27.2457C407.468 28.1506 406.748 28.9759 405.51 28.9759ZM412.421 19.8182H410.935V30H412.421V19.8182ZM421.691 22.3636H420.125V20.5341H418.638V22.3636H417.52V23.5568H418.638V28.0661C418.633 29.4531 419.692 30.1243 420.866 30.0994C421.338 30.0945 421.656 30.005 421.83 29.9403L421.562 28.7124C421.462 28.7322 421.278 28.777 421.04 28.777C420.557 28.777 420.125 28.6179 420.125 27.7578V23.5568H421.691V22.3636ZM426.47 30.1541C428.623 30.1541 430.029 28.5781 430.029 26.2166C430.029 23.8402 428.623 22.2642 426.47 22.2642C424.317 22.2642 422.91 23.8402 422.91 26.2166C422.91 28.5781 424.317 30.1541 426.47 30.1541ZM426.475 28.9062C425.068 28.9062 424.412 27.6783 424.412 26.2116C424.412 24.75 425.068 23.5071 426.475 23.5071C427.872 23.5071 428.528 24.75 428.528 26.2116C428.528 27.6783 427.872 28.9062 426.475 28.9062ZM435.394 30H436.88V25.3366C436.88 24.3374 437.651 23.6165 438.705 23.6165C439.013 23.6165 439.361 23.6712 439.48 23.706V22.2841C439.331 22.2642 439.038 22.2493 438.849 22.2493C437.954 22.2493 437.189 22.7564 436.91 23.5767H436.831V22.3636H435.394V30ZM443.785 30.1541C445.45 30.1541 446.628 29.3338 446.966 28.0909L445.559 27.8374C445.291 28.5582 444.645 28.9261 443.8 28.9261C442.527 28.9261 441.672 28.1009 441.632 26.6293H447.061V26.1023C447.061 23.343 445.41 22.2642 443.68 22.2642C441.552 22.2642 440.15 23.8849 440.15 26.2315C440.15 28.603 441.532 30.1541 443.785 30.1541ZM441.637 25.5156C441.697 24.4318 442.482 23.4922 443.69 23.4922C444.844 23.4922 445.599 24.3473 445.604 25.5156H441.637ZM455.01 22.3636H453.415L451.486 28.2401H451.406L449.472 22.3636H447.876L450.65 30H452.241L455.01 22.3636ZM459.425 30.1541C461.091 30.1541 462.269 29.3338 462.607 28.0909L461.2 27.8374C460.932 28.5582 460.285 28.9261 459.44 28.9261C458.167 28.9261 457.312 28.1009 457.273 26.6293H462.702V26.1023C462.702 23.343 461.051 22.2642 459.321 22.2642C457.193 22.2642 455.791 23.8849 455.791 26.2315C455.791 28.603 457.173 30.1541 459.425 30.1541ZM457.278 25.5156C457.337 24.4318 458.123 23.4922 459.331 23.4922C460.484 23.4922 461.24 24.3473 461.245 25.5156H457.278ZM465.837 25.4659C465.837 24.2479 466.583 23.5518 467.617 23.5518C468.626 23.5518 469.238 24.2131 469.238 25.3217V30H470.724V25.1428C470.724 23.2536 469.685 22.2642 468.124 22.2642C466.976 22.2642 466.225 22.7962 465.872 23.6065H465.778V22.3636H464.351V30H465.837V25.4659ZM477.555 26.8331C477.56 28.1307 476.596 28.7472 475.761 28.7472C474.841 28.7472 474.205 28.081 474.205 27.0419V22.3636H472.718V27.2209C472.718 29.1151 473.757 30.0994 475.224 30.0994C476.372 30.0994 477.153 29.4929 477.506 28.6776H477.585V30H479.047V22.3636H477.555V26.8331ZM484.335 30.1541C486.001 30.1541 487.179 29.3338 487.517 28.0909L486.11 27.8374C485.842 28.5582 485.195 28.9261 484.35 28.9261C483.078 28.9261 482.222 28.1009 482.183 26.6293H487.612V26.1023C487.612 23.343 485.961 22.2642 484.231 22.2642C482.103 22.2642 480.701 23.8849 480.701 26.2315C480.701 28.603 482.083 30.1541 484.335 30.1541ZM482.188 25.5156C482.247 24.4318 483.033 23.4922 484.241 23.4922C485.394 23.4922 486.15 24.3473 486.155 25.5156H482.188Z" fill="#1B3F4F"/>
<defs>
<filter id="filter0_d_1823_3879" x="0" y="0" width="805" height="528" filterUnits="userSpaceOnUse" color-interpolation-filters="sRGB">
<feFlood flood-opacity="0" result="BackgroundImageFix"/>
<feColorMatrix in="SourceAlpha" type="matrix" values="0 0 0 0 0 0 0 0 0 0 0 0 0 0 0 0 0 0 127 0" result="hardAlpha"/>
<feOffset dx="32" dy="49"/>
<feGaussianBlur stdDeviation="40"/>
<feColorMatrix type="matrix" values="0 0 0 0 0.491354 0 0 0 0 0.584802 0 0 0 0 0.6625 0 0 0 0.12 0"/>
<feBlend mode="normal" in2="BackgroundImageFix" result="effect1_dropShadow_1823_3879"/>
<feBlend mode="normal" in="SourceGraphic" in2="effect1_dropShadow_1823_3879" result="shape"/>
</filter>
<linearGradient id="paint0_linear_1823_3879" x1="88" y1="164" x2="88" y2="324" gradientUnits="userSpaceOnUse">
<stop stop-color="#D0EDF1"/>
<stop offset="0.176983" stop-color="#BEE2EA"/>
<stop offset="0.177083" stop-color="#04AAC4"/>
<stop offset="1" stop-color="#04AAC4"/>
</linearGradient>
<linearGradient id="paint1_linear_1823_3879" x1="152" y1="147" x2="152" y2="324" gradientUnits="userSpaceOnUse">
<stop stop-color="#D0EDF1"/>
<stop offset="0.176983" stop-color="#BEE2EA"/>
<stop offset="0.177083" stop-color="#04AAC4"/>
<stop offset="1" stop-color="#04AAC4"/>
</linearGradient>
<linearGradient id="paint2_linear_1823_3879" x1="216" y1="168" x2="216" y2="324" gradientUnits="userSpaceOnUse">
<stop stop-color="#D0EDF1"/>
<stop offset="0.15615" stop-color="#BEE2EA"/>
<stop offset="0.15625" stop-color="#04AAC4"/>
<stop offset="1" stop-color="#04AAC4"/>
</linearGradient>
<linearGradient id="paint3_linear_1823_3879" x1="280" y1="122" x2="280" y2="324" gradientUnits="userSpaceOnUse">
<stop stop-color="#D0EDF1"/>
<stop offset="0.145833" stop-color="#BEE2EA"/>
<stop offset="0.145933" stop-color="#04AAC4"/>
<stop offset="1" stop-color="#04AAC4"/>
</linearGradient>
<linearGradient id="paint4_linear_1823_3879" x1="344" y1="103" x2="344" y2="324" gradientUnits="userSpaceOnUse">
<stop stop-color="#D0EDF1"/>
<stop offset="0.1249" stop-color="#BEE2EA"/>
<stop offset="0.125" stop-color="#04AAC4"/>
<stop offset="1" stop-color="#04AAC4"/>
</linearGradient>
<linearGradient id="paint5_linear_1823_3879" x1="408" y1="72" x2="408" y2="324" gradientUnits="userSpaceOnUse">
<stop stop-color="#D0EDF1"/>
<stop offset="0.15615" stop-color="#BEE2EA"/>
<stop offset="0.15625" stop-color="#04AAC4"/>
<stop offset="1" stop-color="#04AAC4"/>
</linearGradient>
<linearGradient id="paint6_linear_1823_3879" x1="472" y1="147" x2="472" y2="324" gradientUnits="userSpaceOnUse">
<stop stop-color="#D0EDF1"/>
<stop offset="0.140525" stop-color="#BEE2EA"/>
<stop offset="0.140625" stop-color="#04AAC4"/>
<stop offset="1" stop-color="#04AAC4"/>
</linearGradient>
<linearGradient id="paint7_linear_1823_3879" x1="536" y1="51" x2="536" y2="324" gradientUnits="userSpaceOnUse">
<stop stop-color="#D0EDF1"/>
<stop offset="0.176983" stop-color="#BEE2EA"/>
<stop offset="0.177083" stop-color="#04AAC4"/>
<stop offset="1" stop-color="#04AAC4"/>
</linearGradient>
<linearGradient id="paint8_linear_1823_3879" x1="600" y1="31" x2="600" y2="324" gradientUnits="userSpaceOnUse">
<stop stop-color="#D0EDF1"/>
<stop offset="0.176983" stop-color="#BEE2EA"/>
<stop offset="0.177083" stop-color="#04AAC4"/>
<stop offset="1" stop-color="#04AAC4"/>
</linearGradient>
</defs>
</svg>
