<svg width="1440" height="518" viewBox="0 0 1440 518" fill="none" xmlns="http://www.w3.org/2000/svg">
<path d="M1440.99 190H0V503.55H1440.99V190Z" fill="url(#paint0_linear_1991_2063)"/>
<path d="M0 219.055V261.619C0 261.619 13.1998 262.914 42.6233 247.997C72.0468 233.054 133.27 210.343 235.916 227.875C338.562 245.408 552.303 283.063 657.037 277.21C761.771 271.357 929.361 220.08 1074.58 222.022C1219.8 223.964 1332.65 269.792 1440 261.619C1440 234.349 1440 198.366 1440 198.366L146.182 151.918L0 219.055Z" fill="#19629E"/>
<path d="M1440 262H0V97.6826L93.283 87.9865C130.972 84.0691 168.985 84.4486 206.588 89.1179L306.932 101.578C375.564 110.1 445.218 104.291 511.49 84.5196L551.995 72.4353C637.442 46.9428 728.152 44.7647 814.724 66.1266L913.5 90.5L977.555 99.7253C1056.73 111.128 1137.37 106.656 1214.8 86.5698V86.5698C1285.41 68.2514 1359.82 70.8318 1429 93.9974L1440 97.6826V262Z" fill="url(#paint1_linear_1991_2063)"/>
<path d="M7.41682 99.2253C7.41682 99.2253 31.2724 104.958 31.6804 106.795C32.0644 108.631 12.6007 105.164 12.5047 107.344C12.4087 109.524 32.3764 113.815 32.5684 119.393C32.7604 124.972 1.12892 122.654 1.63291 126.001C2.1369 129.331 13.8967 133.348 30.0964 132.335C46.3202 131.322 57 129.142 55.512 134.24C54.024 139.338 35.8323 147.302 8.3048 151.044C54.336 149.413 97.9193 132.61 97.9193 132.61L96.2393 129.743L33.1684 104.289L7.41682 99.2253Z" fill="#3785CB"/>
<path d="M1440 141.748V98.4412C1424.75 96.3082 1408.69 94.6706 1390.42 94.6431C1327.61 94.533 1276.3 109.23 1230.82 106.946C1202.22 105.501 1183.95 101.111 1174.34 98.0421C1174.34 98.0421 1157.34 121.241 1153.6 113.768C1149.84 106.282 1152.21 101.342 1149.04 102.071C1145.88 102.801 1139.36 114.443 1156.36 123.896C1173.35 133.35 1197.83 110.358 1198.22 111.446C1198.62 112.533 1176.09 110.675 1163.26 107.193C1150.43 103.712 1139.17 118.034 1135.02 112.984C1130.87 107.933 1127.51 112.158 1127.51 115.502C1127.51 118.846 1132 123.511 1130.54 123.896C1129.07 124.296 1121.98 119.892 1117.04 112.984C1112.1 106.076 1101.62 105.718 1098.67 109.268C1095.7 112.832 1105 118.997 1100.86 119.19C1096.71 119.383 1082.68 113.094 1075.78 117.167C1068.87 121.241 1108.96 124.832 1155.97 135.208C1202.99 145.57 1261.25 133.092 1295.24 136.89C1329.21 140.688 1295.07 134.152 1279.15 131.743C1263.24 129.349 1260.48 126.184 1298.6 130.656C1330.05 134.344 1336.55 141.197 1379.1 142.766C1387.57 142.904 1396.39 142.986 1405.67 143C1417.94 142.986 1429.36 142.532 1440 141.748Z" fill="#3785CB"/>
<path d="M92.1002 159.808C92.1002 159.808 164.114 131.463 242.347 130.334C320.58 129.206 389.545 153.274 502.163 147.841C614.781 142.408 638.688 137.227 638.688 137.227C638.688 137.227 569.943 151.534 484.247 156.009C398.531 160.484 307.884 142.851 232.938 143.555C157.974 144.276 92.1002 159.808 92.1002 159.808Z" fill="#4897E5"/>
<path d="M914.576 161.023C914.576 161.023 989.575 138.71 1111.66 140.752C1233.72 142.795 1323.31 170.154 1431.86 167.288C1333.99 173.416 1213.85 154.02 1117.76 149.317C1021.66 144.614 976.567 149.66 914.576 161.023Z" fill="#4897E5"/>
<path d="M19.927 193.385C-0.0886665 193.127 -20.2243 193.814 -40 195.135V201.006C-21.4963 200.199 -1.88864 199.735 19.135 199.65C130.373 199.238 218.068 222.512 299.93 220.607C195.916 218.702 149.645 195.015 19.927 193.385Z" fill="#4897E5"/>
<path d="M1234.54 212.035C1301.24 197.462 1360.61 187.473 1439.98 183.989V178.119C1331.57 185.379 1234.54 212.035 1234.54 212.035Z" fill="#4897E5"/>
<path d="M798.898 154.535C798.898 154.535 938.888 128.446 1006.52 122.988C1074.15 117.547 1159.85 127.622 1159.85 127.622C1159.85 127.622 1080.46 112.38 1005.73 117.409C930.992 122.455 798.898 154.535 798.898 154.535Z" fill="#4897E5"/>
<path d="M597.038 200.878C595.118 200.655 684.973 208.31 755.507 199.333C826.042 190.357 897.897 177.895 990.943 188.039C907.281 182.925 865.474 188.366 815.674 196.467C765.851 204.603 680.989 210.627 597.038 200.878Z" fill="#4897E5"/>
<path opacity="0.5" d="M238.42 153.382C238.42 153.382 277.564 152.455 323.643 156.403C369.722 160.351 557.471 189.461 700.917 191.263C823.434 192.808 919.841 167.834 919.841 167.834C919.841 167.834 825.114 200.292 722.492 206.213C619.87 212.135 443.281 190.148 384.746 187.968C326.211 185.788 292.203 191.229 272.836 189.598C253.468 187.968 279.172 181.789 321.867 180.244C364.586 178.716 309.603 171.627 256.228 177.343C202.829 183.059 147.462 186.32 145.494 178.974C143.526 171.627 190.181 165.088 173.957 164.813C157.734 164.539 116.622 178.716 86.9587 175.438C57.2712 172.177 145.662 155.133 238.42 153.382Z" fill="#5CBFEA"/>
<path d="M745.092 219.055C745.092 219.055 840.658 196.913 990.92 200.209C1141.18 203.522 1148.93 213.185 1283.86 219.055C1215.51 219.055 1095.13 207.487 985.664 207.487C858.034 207.487 745.092 219.055 745.092 219.055Z" fill="#2E9BCC"/>
<path d="M969.537 170.635C969.537 170.635 1055.19 153.728 1133.89 159.598C1212.58 165.468 1319.36 180.985 1407.96 174.445C1326.48 186.426 1262.43 186.58 1177.81 176.024C1093.14 165.451 1006.09 168.455 969.537 170.635Z" fill="#2E9BCC"/>
<path d="M-40 203.151C-40 203.151 31.3268 197.642 108.462 207.031C185.596 216.419 221.764 221.122 256.467 222.547C200.116 227.25 125.453 217.243 69.0542 216.007C12.6551 214.789 -40 217.226 -40 217.226V203.151Z" fill="#2E9BCC"/>
<path d="M1439.98 186.151C1439.98 186.151 1419.12 187.473 1379.06 192.794C1339.03 198.098 1269.91 210.662 1269.91 210.662C1269.91 210.662 1300.97 208.894 1338.14 205.633C1375.32 202.371 1439.98 200.243 1439.98 200.243V186.151V186.151Z" fill="#2E9BCC"/>
<path opacity="0.4" d="M1183.54 119.589C1183.54 119.589 1241.74 137.148 1310.57 142.039C1379.38 146.931 1434.84 144.494 1434.84 144.494C1434.84 144.494 1397.76 154.912 1310.57 151.239C1223.38 147.566 1183.54 119.589 1183.54 119.589Z" fill="#2E9BCC"/>
<path d="M573.637 0.866221C573.278 0.509205 573.014 0.248291 573.014 0.248291C573.014 0.248291 573.182 0.550399 573.637 0.866221Z" fill="#2E9BCC"/>
<path opacity="0.8" d="M682.905 106.396C682.905 106.396 643.505 105.557 608.47 109.563C573.437 113.587 561.951 115.687 559.187 114.417C556.422 113.148 593.76 107.373 605.336 105.937C616.912 104.5 620.496 102.539 617.373 101.838C614.252 101.155 565.289 107.819 542.185 111.223C519.108 114.641 507.571 116.367 509.255 114.146C510.936 111.908 578.22 98.9044 621.763 94.7624C665.305 90.6204 690.682 89.505 689.432 87.6139C688.181 85.7227 628.803 90.7901 630.116 88.6887C631.428 86.5872 683.85 77.3911 727.152 81.8044C770.454 86.2177 799.387 99.3078 801.93 101.976C804.497 104.64 795.709 100.224 784.711 97.1825C773.713 94.141 753.977 88.3044 743.31 87.6949C732.642 87.0854 756.024 91.5942 761.88 93.6901C767.76 95.7826 762.885 98.2303 750.531 95.3732C738.177 92.5162 718.791 89.421 704.1 90.0347C689.409 90.6484 708.278 91.3715 726.192 95.3946C744.106 99.4177 732.502 101.534 722.772 99.9828C713.04 98.4145 695.145 97.5588 669.696 98.1469C644.221 98.7213 641.566 100.746 642.436 101.441C643.308 102.154 662.754 100.53 683.861 101.676C704.968 102.822 726.017 105.673 732.992 108.518C739.965 111.345 734.079 110.985 720.242 109.335C706.403 107.667 682.905 106.396 682.905 106.396Z" fill="#5CBFEA"/>
<path opacity="0.8" d="M729.868 69.3782C729.868 69.3782 697.031 67.646 674.833 69.1601C652.611 70.6776 636.49 72.1787 636.688 70.7834C636.885 69.388 677.68 67.1269 677.043 65.2909C676.406 63.4549 626.521 68.5121 613.321 71.9022C600.122 75.2923 614.869 76.5072 623.585 74.3508C632.302 72.1944 641.775 74.3522 618.347 78.2165C594.921 82.0977 567.183 87.9343 554.68 91.2816C542.154 94.632 559.701 92.9367 583.478 87.3621C607.255 81.7874 661.223 73.6282 688.841 72.6062C716.412 71.5907 744.825 72.1408 729.868 69.3782Z" fill="#5CBFEA"/>
<path opacity="0.8" d="M1398.37 107.337C1398.37 107.337 1373.5 103.939 1345.33 107.337C1317.15 110.736 1280.77 117.825 1262.17 118.769C1243.59 119.73 1264.74 116.863 1277.6 114.684C1290.47 112.504 1299.94 111.56 1297.76 109.912C1295.58 108.281 1277.39 114.306 1241 116.675C1204.62 119.043 1189.19 112.95 1190.58 112.384C1191.97 111.817 1220.05 113.225 1238.24 112.384C1256.43 111.543 1293.2 103.784 1315.57 100.523C1337.91 97.262 1321.9 97.3994 1311.01 97.7941C1300.14 98.2061 1270.28 99.562 1266.71 96.9702C1263.13 94.3784 1289.46 95.7516 1288.86 93.1598C1288.26 90.568 1259.19 92.3359 1251.87 90.7053C1244.55 89.0747 1287.49 87.8389 1320.58 89.1434C1353.7 90.4307 1369.52 92.4732 1368.73 94.6531C1367.94 96.8329 1353.9 94.0352 1345.3 94.4471C1336.71 94.859 1334.14 99.0127 1361.02 98.6695C1382.38 98.3948 1406.7 101.124 1424 105.003C1441.3 108.882 1443.08 110.65 1443.97 112.006C1444.85 113.362 1438.73 111.319 1432.4 109.689C1426.06 108.058 1403.53 103.63 1386.32 102.205C1369.11 100.781 1368.42 102.617 1384.74 104.179C1401.06 105.741 1408.16 106.977 1410.25 108.058C1412.36 109.174 1404.87 108.007 1398.37 107.337Z" fill="#5CBFEA"/>
<path d="M1133.19 174.308C1134.08 174.394 1207.92 184.109 1245.6 186.151C1283.28 188.194 1303.73 185.533 1288.9 191.455C1274.07 197.377 1202.88 209.632 1167.89 207.177C1132.9 204.723 1044.8 200.449 1051.04 196.57C1057.28 192.691 1096.13 197.994 1130.52 196.57C1164.94 195.145 1145.36 193.103 1114.8 189.43C1084.25 185.756 1081.59 181.259 1100.26 181.877C1118.96 182.495 1122.22 177.689 1073.26 178.153C1024.33 178.616 996.439 177.174 1008.61 172.283C1020.77 167.357 1093.44 170.429 1133.19 174.308Z" fill="#3680C9"/>
<path opacity="0.5" d="M565.222 169.261C565.222 169.261 668.156 167.012 741.115 155.598C814.073 144.184 830.681 138.674 836.921 141.129C843.161 143.583 801.042 151.513 778.506 155.598C755.946 159.7 783.834 159.7 799.554 157.658C815.273 155.615 835.145 151.032 835.433 154.036C835.721 157.04 817.169 161.709 774.546 167.029C731.923 172.35 685.652 173.38 683.564 174.599C681.476 175.818 701.971 175.817 701.371 177.465C700.771 179.079 558.406 179.233 565.222 169.261Z" fill="#4897E5"/>
<path d="M716.269 219.055C716.269 219.055 654.566 219.072 609.878 211.176C565.191 203.281 479.369 189.67 410.154 187.49C340.939 185.31 311.684 194.562 320.779 197.565C329.875 200.552 362.299 193.755 409.362 197.291C456.425 200.826 427.17 203.744 401.442 203.109C375.738 202.457 376.53 207.881 381.57 210.421C386.61 212.979 423.09 208.585 458.537 208.791C493.984 208.997 506.152 214.3 483.449 213.991C460.769 213.682 433.169 210.215 409.746 219.038C445.049 219.055 716.269 219.055 716.269 219.055Z" fill="#3680C9"/>
<path d="M320.017 136.854C320.017 136.854 380.317 144.032 402.523 146.414C424.729 148.795 416.226 152.155 394.019 149.721C371.812 147.288 361.262 144.904 350.618 146.353C339.974 147.802 323.318 147.054 310.164 144.944C297.029 142.817 279.899 143.739 283.238 141.148C286.576 138.54 306.029 140.653 313.126 140.328C320.242 140.002 303.023 136.843 268.719 135.822C234.415 134.801 246.275 132.421 258.112 131.672C269.987 130.905 320.017 136.854 320.017 136.854Z" fill="#4FA3E8"/>
<path d="M1214.81 147.996C1214.81 147.996 1273.32 154.913 1289.93 159.101C1306.54 163.289 1268.88 160.114 1237.73 157.367C1206.58 154.604 1169.81 152.167 1160.62 150.33C1151.43 148.476 1183.16 144.649 1214.81 147.996Z" fill="#4FA3E8"/>
<path d="M811.428 192.056C812.004 192.004 854.099 186.958 850.835 189.31C847.547 191.661 804.852 197.789 786.036 199.007C767.172 200.226 777.78 195.334 811.428 192.056Z" fill="#4FA3E8"/>
<path d="M1014.56 116.911C1016.5 116.825 1058.74 117.803 1054.88 119.588C1051.01 121.374 1034.12 120.515 999.703 122.953C965.288 125.407 944.528 129.99 941.12 128.668C937.712 127.347 969.632 118.833 1014.56 116.911Z" fill="#4FA3E8"/>
<path d="M339.93 235.67C339.93 235.67 540.83 274.62 631.189 270.736C721.547 266.852 922.04 228.522 922.04 228.522C922.04 228.522 716.747 253.851 610.501 255.793C504.231 257.735 339.93 235.67 339.93 235.67Z" fill="#2E9BCC"/>
<path d="M72.5977 249.778C72.5977 249.778 132.693 229.197 212.515 236.318C292.338 243.466 395.272 266.744 487.863 277.83C580.477 288.916 614.077 290.049 614.077 290.049C614.077 290.049 531.83 287.54 441.183 277.83C350.537 268.12 272.346 247.404 191.156 244.113C109.965 240.822 72.5977 249.778 72.5977 249.778Z" fill="#2474B5"/>
<path d="M814.547 262.294C814.547 262.294 970.064 224.639 1085.62 228.523C1201.18 232.407 1283.88 256.764 1283.88 256.764C1283.88 256.764 1188.27 234.7 1077.51 236.318C966.752 237.937 814.547 262.294 814.547 262.294Z" fill="#2474B5"/>
<path d="M319.172 332.424C319.172 332.424 410.01 336.956 492.833 351.252C575.68 365.548 736.549 385.67 868.019 377.875C999.489 370.079 1075.64 344.104 1173.22 341.838C1084.11 340.22 996.465 355.81 948.849 361.421C901.234 367.058 796.98 372.021 729.133 369.216C661.31 366.411 527.848 346.72 458.802 338.709C389.779 330.671 319.172 332.424 319.172 332.424Z" fill="#2474B5"/>
<path d="M963.656 298.438C963.656 298.438 1062.1 285.895 1154.96 298.438C1247.81 310.981 1345.44 334.474 1425.1 332.263C1346.26 336.093 1250.09 318.344 1169.76 305.802C1089.44 293.232 963.656 298.438 963.656 298.438Z" fill="#2474B5"/>
<path d="M58.918 326.571C58.918 326.571 194.444 304.939 343.337 317.481C492.231 330.024 615.877 351.252 615.877 351.252C615.877 351.252 472.215 316.618 333.329 308.823C194.492 301.027 76.2217 320.502 58.918 326.571Z" fill="#2474B5"/>
<path d="M496.238 286.758C496.238 286.758 603.9 300.164 701.147 295.417C798.393 290.643 894.08 256.413 1014.49 246.946C945.247 256.036 842 288.08 735.154 298.897C628.308 309.686 496.238 286.758 496.238 286.758Z" fill="#2474B5"/>
<path d="M614.104 344.32C614.104 344.32 711.95 365.521 820.812 362.5C929.675 359.479 998.097 337.387 976.09 338.682C954.082 339.977 891.659 344.751 844.02 344.32C796.381 343.888 808.405 343.78 832.404 338.628C856.404 333.476 856.38 327.785 793.957 329.107C731.534 330.455 585.064 315.026 529.841 301.755C474.618 288.458 447.811 291.506 463.002 298.842C478.194 306.179 600.664 325.789 643.479 332.235C686.295 338.682 617.464 334.258 581.056 329.107C544.673 323.982 575.296 337.441 614.104 344.32Z" fill="#2474B5"/>
<path d="M40.5108 343.133C40.5108 343.133 136.557 326.922 251.203 332.262C365.849 337.603 435.496 350.227 452.608 355.945C469.72 361.637 384.473 358.67 335.25 355.945C286.027 353.221 151.869 358.723 137.757 362.958C123.645 367.166 174.381 362.311 203.18 367.166C232.004 372.048 170.157 379.736 121.533 379.628C72.9103 379.52 64.5104 365.224 111.022 359.398C157.533 353.545 165.645 344.131 138.933 347.071C112.222 349.984 56.6866 362.338 35.0869 361.367C13.5113 360.342 10.7993 349.957 40.5108 343.133Z" fill="#2474B5"/>
<path d="M1173.22 247.674C1173.22 247.674 1238.98 254.822 1279.52 262.293C1320.03 269.765 1344.65 276.508 1374.05 277.83C1403.47 279.179 1373.14 287.298 1352.45 288.592C1331.74 289.887 1255.2 274.297 1251 281.768C1246.8 289.24 1338.05 301.567 1379.47 301.243C1420.9 300.919 1424.78 306.206 1423.9 312.815C1422.98 319.423 1313.45 318.452 1252.8 308.067C1192.18 297.683 1104.22 282.739 1040 284.681C975.776 286.623 932.553 298.654 910.641 300.272C888.73 301.89 907.329 283.063 996.176 276.239C1085.02 269.414 1153.45 281.121 1180.47 280.123C1207.49 279.152 1224.89 268.767 1196.67 264.208C1168.45 259.677 1138.45 257.06 1108.13 255.442C1077.82 253.851 1088.17 243.655 1173.22 247.674Z" fill="#2474B5"/>
<defs>
<linearGradient id="paint0_linear_1991_2063" x1="726" y1="124.5" x2="726" y2="456" gradientUnits="userSpaceOnUse">
<stop stop-color="#2674C0"/>
<stop offset="1" stop-color="#4B99D6"/>
</linearGradient>
<linearGradient id="paint1_linear_1991_2063" x1="720" y1="86" x2="720" y2="210.938" gradientUnits="userSpaceOnUse">
<stop stop-color="#3785CB"/>
<stop offset="1" stop-color="#3785CB"/>
</linearGradient>
</defs>
</svg>
