<svg width="329" height="358" viewBox="0 0 329 358" fill="none" xmlns="http://www.w3.org/2000/svg">
<g clip-path="url(#clip0_1852_2073)">
<path d="M328.273 125.688C328.2 124.255 327.787 122.859 327.069 121.617C326.351 120.374 325.348 119.319 324.143 118.54L120.536 0.985412C119.257 0.335223 117.841 -0.00366211 116.406 -0.00366211C114.971 -0.00366211 113.555 0.335223 112.276 0.985412L107.621 3.6701C106.422 4.45452 105.424 5.51056 104.709 6.75258C103.995 7.9946 103.583 9.38762 103.507 10.8187V172.662C103.589 174.092 104.003 175.482 104.718 176.723C105.432 177.964 106.426 179.022 107.621 179.811L311.244 297.444C312.523 298.087 313.935 298.422 315.366 298.422C316.798 298.422 318.21 298.087 319.489 297.444L324.143 294.76C325.343 293.974 326.341 292.918 327.059 291.677C327.776 290.435 328.192 289.043 328.273 287.611V125.688Z" fill="#04AAC4"/>
<g opacity="0.7">
<path opacity="0.7" d="M328.273 125.688C328.2 124.255 327.787 122.859 327.069 121.617C326.351 120.374 325.348 119.319 324.143 118.54L120.536 0.985412C119.257 0.335223 117.841 -0.00366211 116.406 -0.00366211C114.971 -0.00366211 113.555 0.335223 112.276 0.985412L107.621 3.6701C106.422 4.45452 105.424 5.51056 104.709 6.75258C103.995 7.9946 103.583 9.38762 103.507 10.8187V172.662C103.589 174.092 104.003 175.482 104.718 176.723C105.432 177.964 106.426 179.022 107.621 179.811L311.244 297.444C312.523 298.087 313.935 298.422 315.366 298.422C316.798 298.422 318.21 298.087 319.489 297.444L324.143 294.76C325.343 293.974 326.341 292.918 327.059 291.677C327.776 290.435 328.192 289.043 328.273 287.611V125.688Z" fill="white"/>
</g>
<path d="M327.066 121.621L315.359 128.372L104.714 6.73558C105.413 5.48301 106.412 4.4239 107.621 3.65375L112.292 0.984963C113.564 0.327493 114.975 -0.015625 116.406 -0.015625C117.838 -0.015625 119.249 0.327493 120.521 0.984963L324.143 118.539C325.369 119.295 326.376 120.357 327.066 121.621Z" fill="#04AAC4"/>
<path opacity="0.8" d="M327.066 121.621L315.359 128.372L104.714 6.73558C105.413 5.48301 106.412 4.4239 107.621 3.65375L112.292 0.984963C113.564 0.327493 114.975 -0.015625 116.406 -0.015625C117.838 -0.015625 119.249 0.327493 120.521 0.984963L324.143 118.539C325.369 119.295 326.376 120.357 327.066 121.621Z" fill="white"/>
<path opacity="0.1" d="M328.273 125.672V287.515C328.2 288.948 327.787 290.344 327.069 291.587C326.351 292.829 325.348 293.884 324.143 294.664L319.489 297.364C319.128 297.565 318.75 297.735 318.361 297.873C317.808 298.053 317.238 298.181 316.661 298.254C315.577 298.392 314.477 298.354 313.404 298.143L312.594 297.936L312.086 297.761C312.406 297.889 312.75 297.948 313.095 297.934C313.44 297.921 313.778 297.835 314.088 297.682C314.53 297.395 314.884 296.99 315.108 296.513C315.333 296.036 315.419 295.505 315.358 294.981V133.138C315.401 132.404 315.219 131.674 314.836 131.047C314.453 130.419 313.887 129.924 313.214 129.627L315.358 128.372L327.066 121.621C327.807 122.846 328.223 124.241 328.273 125.672Z" fill="#04AAC4"/>
<path opacity="0.05" d="M328.273 125.672V287.515C328.2 288.948 327.787 290.344 327.069 291.587C326.351 292.829 325.348 293.884 324.143 294.664L319.489 297.364C319.128 297.565 318.75 297.735 318.361 297.873C317.808 298.053 317.238 298.181 316.661 298.254C315.577 298.392 314.477 298.354 313.404 298.143L312.594 297.936L312.086 297.761C312.406 297.889 312.75 297.948 313.095 297.934C313.44 297.921 313.778 297.835 314.088 297.682C314.53 297.395 314.884 296.99 315.108 296.513C315.333 296.036 315.419 295.505 315.358 294.981V133.138C315.401 132.404 315.219 131.674 314.836 131.047C314.453 130.419 313.887 129.924 313.214 129.627L315.358 128.372L327.066 121.621C327.807 122.846 328.223 124.241 328.273 125.672Z" fill="black"/>
<path opacity="0.2" d="M315.359 128.372L217.583 164.909C214.2 166.174 210.487 166.247 207.056 165.118C203.625 163.989 200.682 161.725 198.711 158.698L183.016 134.631L104.715 6.7356L179.886 135.521L103.508 172.709C103.58 174.173 104.022 175.594 104.794 176.84L180.124 135.918L198.361 165.116C200.387 168.361 203.515 170.767 207.172 171.89C210.828 173.014 214.768 172.78 218.266 171.232L231.276 165.497L314.12 297.682C314.563 297.395 314.916 296.99 315.141 296.513C315.366 296.036 315.452 295.505 315.391 294.982V292.281L231.689 165.322L315.359 128.372Z" fill="#04AAC4"/>
<path opacity="0.05" d="M315.359 128.372L217.583 164.909C214.2 166.174 210.487 166.247 207.056 165.118C203.625 163.989 200.682 161.725 198.711 158.698L183.016 134.631L104.715 6.7356L179.886 135.521L103.508 172.709C103.58 174.173 104.022 175.594 104.794 176.84L180.124 135.918L198.361 165.116C200.387 168.361 203.515 170.767 207.172 171.89C210.828 173.014 214.768 172.78 218.266 171.232L231.276 165.497L314.12 297.682C314.563 297.395 314.916 296.99 315.141 296.513C315.366 296.036 315.452 295.505 315.391 294.982V292.281L231.689 165.322L315.359 128.372Z" fill="black"/>
<path d="M276.648 155.521C276.572 154.09 276.16 152.697 275.445 151.455C274.73 150.213 273.733 149.157 272.533 148.372L68.9105 30.8183C67.6335 30.1682 66.221 29.8293 64.7881 29.8293C63.3553 29.8293 61.9427 30.1682 60.6658 30.8183L56.0113 33.5029C54.8091 34.2856 53.8084 35.3408 53.0908 36.583C52.3731 37.8251 51.9586 39.219 51.881 40.6515V202.495C51.9611 203.927 52.3766 205.32 53.0941 206.562C53.8115 207.803 54.8108 208.859 56.0113 209.643L259.618 327.198C260.9 327.84 262.314 328.175 263.748 328.175C265.183 328.175 266.597 327.84 267.879 327.198L272.581 324.449C273.776 323.66 274.77 322.603 275.484 321.362C276.199 320.121 276.613 318.73 276.695 317.301L276.648 155.521Z" fill="#04AAC4"/>
<g opacity="0.5">
<path opacity="0.5" d="M276.648 155.521C276.572 154.09 276.16 152.697 275.445 151.455C274.73 150.213 273.733 149.157 272.533 148.372L68.9105 30.8183C67.6335 30.1682 66.221 29.8293 64.7881 29.8293C63.3553 29.8293 61.9427 30.1682 60.6658 30.8183L56.0113 33.5029C54.8091 34.2856 53.8084 35.3408 53.0908 36.583C52.3731 37.8251 51.9586 39.219 51.881 40.6515V202.495C51.9611 203.927 52.3766 205.32 53.0941 206.562C53.8115 207.803 54.8108 208.859 56.0113 209.643L259.618 327.198C260.9 327.84 262.314 328.175 263.748 328.175C265.183 328.175 266.597 327.84 267.879 327.198L272.581 324.449C273.776 323.66 274.77 322.603 275.484 321.362C276.199 320.121 276.613 318.73 276.695 317.301L276.648 155.521Z" fill="white"/>
</g>
<path d="M275.457 151.454L263.733 158.206L53.0891 36.5848C53.7874 35.3322 54.7865 34.2731 55.9962 33.503L60.6666 30.8342C61.9412 30.1766 63.3547 29.8335 64.7889 29.8335C66.2232 29.8335 67.6366 30.1766 68.9113 30.8342L272.582 148.372C273.789 149.136 274.779 150.197 275.457 151.454Z" fill="#04AAC4"/>
<path opacity="0.6" d="M275.457 151.454L263.733 158.206L53.0891 36.5848C53.7874 35.3322 54.7865 34.2731 55.9962 33.503L60.6666 30.8342C61.9412 30.1766 63.3547 29.8335 64.7889 29.8335C66.2232 29.8335 67.6366 30.1766 68.9113 30.8342L272.582 148.372C273.789 149.136 274.779 150.197 275.457 151.454Z" fill="white"/>
<path opacity="0.1" d="M276.664 155.505V317.348C276.587 318.769 276.177 320.152 275.468 321.385C274.759 322.618 273.77 323.668 272.581 324.449L267.943 327.15C267.576 327.351 267.194 327.521 266.799 327.658C266.246 327.841 265.677 327.968 265.099 328.039C264.015 328.177 262.915 328.14 261.843 327.928L261.048 327.706C260.878 327.659 260.713 327.595 260.556 327.515C260.867 327.651 261.202 327.721 261.541 327.721C261.88 327.721 262.215 327.651 262.526 327.515C262.967 327.223 263.319 326.815 263.543 326.336C263.768 325.857 263.855 325.325 263.797 324.799V162.971C263.84 162.237 263.657 161.508 263.274 160.88C262.891 160.253 262.325 159.757 261.652 159.46L263.797 158.206L275.52 151.454C276.232 152.688 276.625 154.081 276.664 155.505Z" fill="black"/>
<path opacity="0.4" d="M263.732 158.206L165.956 194.743C162.573 196.007 158.86 196.081 155.429 194.951C151.998 193.822 149.055 191.558 147.084 188.531L131.373 164.48L53.0721 36.5847L128.243 165.37L51.8648 202.558C51.9366 204.022 52.3794 205.443 53.1515 206.689L128.497 165.751L146.75 194.949C148.775 198.191 151.901 200.593 155.554 201.717C159.207 202.84 163.143 202.609 166.639 201.065L179.633 195.33L262.461 327.531C262.903 327.239 263.255 326.831 263.479 326.352C263.703 325.873 263.791 325.341 263.732 324.815V322.114L180.031 195.156L263.732 158.206Z" fill="#04AAC4"/>
<path opacity="0.05" d="M263.732 158.206L165.956 194.743C162.573 196.007 158.86 196.081 155.429 194.951C151.998 193.822 149.055 191.558 147.084 188.531L131.373 164.48L53.0721 36.5847L128.243 165.37L51.8648 202.558C51.9366 204.022 52.3794 205.443 53.1515 206.689L128.497 165.751L146.75 194.949C148.775 198.191 151.901 200.593 155.554 201.717C159.207 202.84 163.143 202.609 166.639 201.065L179.633 195.33L262.461 327.531C262.903 327.239 263.255 326.831 263.479 326.352C263.703 325.873 263.791 325.341 263.732 324.815V322.114L180.031 195.156L263.732 158.206Z" fill="black"/>
<path d="M224.602 186.657L12.7182 64.3369L4.2352 69.2297C3.07797 69.9873 2.11446 71.0056 1.422 72.2029C0.729538 73.4002 0.327438 74.7432 0.247925 76.1241V232.439C0.324966 233.821 0.726013 235.165 1.4187 236.362C2.11139 237.56 3.07623 238.578 4.2352 239.334L208.144 357.047C209.376 357.668 210.736 357.992 212.115 357.992C213.495 357.992 214.855 357.668 216.087 357.047L220.582 354.457C221.74 353.7 222.703 352.681 223.396 351.484C224.088 350.287 224.49 348.944 224.57 347.563L224.602 186.657Z" fill="#04AAC4"/>
<path opacity="0.2" d="M224.602 186.657L12.7182 64.3369L4.2352 69.2297C3.07797 69.9873 2.11446 71.0056 1.422 72.2029C0.729538 73.4002 0.327438 74.7432 0.247925 76.1241V232.439C0.324966 233.821 0.726013 235.165 1.4187 236.362C2.11139 237.56 3.07623 238.578 4.2352 239.334L208.144 357.047C209.376 357.668 210.736 357.992 212.115 357.992C213.495 357.992 214.855 357.668 216.087 357.047L220.582 354.457C221.74 353.7 222.703 352.681 223.396 351.484C224.088 350.287 224.49 348.944 224.57 347.563L224.602 186.657Z" fill="black"/>
<path d="M13.8778 50.58L13.02 50.1034L16.3083 48.1971C16.5851 48.0308 16.8779 47.8924 17.1821 47.7841L110.431 13.2168C111.714 12.7984 113.097 12.7942 114.382 13.2047C115.668 13.6153 116.792 14.4198 117.596 15.5044L221.901 167.832C223.533 170.455 224.462 173.452 224.602 176.538V186.641L221.424 188.531L12.7817 64.3211V54.2019C12.7987 52.9155 13.1787 51.66 13.8778 50.58Z" fill="#04AAC4"/>
<path opacity="0.1" d="M113.276 16.267C113.691 16.5921 114.056 16.9777 114.356 17.4108L218.678 169.739C219.535 171.086 220.188 172.553 220.616 174.091L223.793 172.217C223.558 171.433 223.277 170.664 222.951 169.913C222.808 169.596 222.665 169.294 222.506 168.992L222.427 168.849C222.262 168.53 222.076 168.223 221.871 167.928L117.565 15.5998C117.408 15.3741 117.233 15.1616 117.041 14.9644L116.485 14.4561L113.276 16.267Z" fill="black"/>
<path opacity="0.35" d="M13.0532 50.0875C13.3351 49.916 13.633 49.7724 13.9427 49.6586L107.208 15.0913C108.233 14.7503 109.328 14.6763 110.39 14.8765C111.452 15.0766 112.445 15.5442 113.276 16.2351L116.453 14.3606C115.616 13.6763 114.62 13.213 113.557 13.0132C112.494 12.8133 111.398 12.8834 110.369 13.2168L17.1199 47.7682C16.8152 47.8821 16.5226 48.0257 16.2462 48.1971L13.0532 50.0875Z" fill="white"/>
<path d="M222.461 168.77C222.292 168.453 222.107 168.145 221.905 167.848C222.107 168.145 222.292 168.453 222.461 168.77Z" fill="#04AAC4"/>
<path d="M117.074 14.8689L116.518 14.3606L117.074 14.8689Z" fill="#04AAC4"/>
<path d="M223.855 172.185C223.62 171.401 223.339 170.632 223.014 169.882C223.339 170.632 223.62 171.401 223.855 172.185Z" fill="#04AAC4"/>
<path d="M222.98 169.818C222.837 169.5 222.695 169.199 222.536 168.897C222.695 169.199 222.837 169.5 222.98 169.818Z" fill="#04AAC4"/>
<path opacity="0.2" d="M222.539 168.897C222.519 168.846 222.492 168.798 222.46 168.754C222.492 168.798 222.519 168.846 222.539 168.897Z" fill="black"/>
<path opacity="0.2" d="M117.594 15.5046C117.433 15.282 117.257 15.0697 117.069 14.8691C117.265 15.063 117.441 15.2758 117.594 15.5046Z" fill="black"/>
<path d="M114.353 17.3789L218.675 169.707C220.294 172.334 221.218 175.33 221.359 178.412V188.531L9.47606 66.2115V56.1082C9.55142 54.7376 10.0096 53.4156 10.7987 52.2923C11.5878 51.1691 12.6761 50.2897 13.9399 49.7539L107.205 15.1072C108.483 14.6784 109.865 14.6674 111.15 15.0758C112.435 15.4841 113.557 16.2907 114.353 17.3789Z" fill="#04AAC4"/>
<path opacity="0.05" d="M9.48016 56.0764C9.52257 54.8093 9.91275 53.5783 10.608 52.5181L220.617 174.059C221.063 175.458 221.309 176.913 221.348 178.38V188.5L9.46426 66.1797L9.48016 56.0764Z" fill="black"/>
<path d="M18.5336 13.0898C18.4911 12.6656 18.5596 12.2376 18.7322 11.8477C18.9049 11.4579 19.1759 11.1196 19.5185 10.8659L25.9999 7.13271C26.3914 6.95668 26.8225 6.88748 27.2494 6.93213C27.6763 6.97677 28.0838 7.13368 28.4304 7.38689L202.22 107.769C203.223 108.42 204.058 109.299 204.657 110.334C205.256 111.369 205.602 112.531 205.667 113.726V321.828C205.711 322.256 205.64 322.688 205.461 323.079C205.282 323.47 205.002 323.806 204.65 324.052L198.201 327.785C197.81 327.961 197.38 328.031 196.954 327.989C196.528 327.947 196.12 327.795 195.77 327.547L21.9649 227.229C20.9665 226.574 20.1358 225.694 19.5398 224.659C18.9438 223.624 18.5991 222.464 18.5336 221.272V13.0898Z" fill="#F0F0F0"/>
<path d="M195.768 327.627L21.9625 227.229C20.9641 226.574 20.1334 225.694 19.5374 224.659C18.9414 223.625 18.5968 222.464 18.5312 221.272V13.09C18.5312 10.8978 20.1198 10.0082 21.9625 11.1043L195.768 111.486C196.766 112.141 197.597 113.021 198.193 114.056C198.789 115.091 199.134 116.251 199.199 117.443V325.546C199.199 327.786 197.658 328.675 195.768 327.627Z" fill="#FAFAFA"/>
<path d="M134.178 146.004C132.716 147.853 131.046 149.527 129.2 150.993C127.544 152.311 125.75 153.448 123.851 154.383C122.197 155.208 120.447 155.823 118.642 156.215C117.142 156.548 115.597 156.632 114.07 156.462C112.302 156.432 110.6 155.788 109.255 154.641C108.529 153.891 108.089 152.911 108.011 151.87C107.23 152.338 106.437 152.797 105.63 153.246C104.766 153.725 103.855 154.116 102.913 154.412C101.848 154.756 100.747 154.98 99.632 155.079C98.275 155.207 96.9076 155.178 95.5573 154.992C94.0492 154.895 92.6193 154.287 91.5039 153.267C90.5851 152.282 90.0948 150.973 90.1406 149.627C90.189 147.806 90.6173 146.016 91.3981 144.37C92.4635 142.061 93.779 139.876 95.3211 137.854C96.9854 135.601 98.8396 133.495 100.863 131.558C102.688 129.819 104.674 128.257 106.794 126.892C108.655 125.699 110.672 124.771 112.789 124.135C114.629 123.562 116.568 123.378 118.482 123.594C119.175 123.584 119.862 123.713 120.503 123.975C121.144 124.237 121.725 124.626 122.212 125.118C122.71 125.928 122.927 126.88 122.827 127.825L123.31 127.117C123.748 126.539 124.312 126.068 124.959 125.741C125.517 125.413 126.159 125.256 126.806 125.289L130.59 125.773C130.811 125.776 131.025 125.856 131.194 126C131.363 126.143 131.477 126.341 131.516 126.559C131.543 126.842 131.512 127.128 131.423 127.398C131.335 127.669 131.191 127.918 131.002 128.131L118.998 144.384C118.086 145.608 117.759 146.596 118.015 147.348C118.162 147.726 118.42 148.051 118.755 148.279C119.09 148.508 119.487 148.629 119.892 148.627C121.034 148.723 122.178 148.471 123.174 147.903C124.663 147.077 125.957 145.939 126.967 144.568C128.091 143.2 129.203 141.767 130.325 140.263C131.446 138.758 132.422 137.328 133.251 135.97C134.824 133.592 136.066 131.011 136.944 128.298C137.618 126.424 137.661 124.38 137.066 122.479C136.365 120.733 135.027 119.319 133.322 118.523C130.836 117.342 128.162 116.606 125.423 116.348C122.585 116.002 119.711 116.106 116.907 116.656C114.014 117.242 111.205 118.18 108.541 119.451C105.752 120.806 103.117 122.458 100.682 124.379C98.1567 126.352 95.8221 128.558 93.7095 130.969C93.1254 131.628 92.4203 132.493 91.5761 133.59C90.732 134.687 89.8741 135.833 88.9804 137.031C88.0867 138.229 87.2331 139.396 86.4193 140.533C85.6056 141.671 85.0144 142.594 84.5401 143.29C83.1539 145.449 82.1042 147.806 81.4272 150.281C80.8674 152.171 80.8283 154.177 81.3141 156.087C81.8166 157.835 82.9298 159.344 84.4511 160.341C86.4453 161.604 88.7155 162.367 91.0681 162.564C92.8593 162.798 94.6644 162.911 96.4709 162.902C97.9605 162.891 99.4474 162.774 100.92 162.552C102.163 162.343 103.393 162.065 104.604 161.718C105.704 161.372 106.735 161.017 107.704 160.639C108.672 160.262 109.181 160.051 109.637 159.919C110.114 159.767 110.62 159.73 111.114 159.811L116.447 160.448C116.671 160.438 116.891 160.501 117.076 160.627C117.26 160.753 117.399 160.935 117.471 161.146C117.599 161.579 117.404 162.119 116.855 162.783C116.496 163.216 116.047 163.566 115.54 163.81C113.728 164.747 111.749 165.704 109.633 166.665C107.425 167.66 105.138 168.467 102.796 169.079C100.17 169.745 97.4933 170.191 94.7935 170.41C91.6505 170.652 88.4908 170.56 85.3672 170.136C81.9013 169.875 78.5626 168.718 75.6777 166.779C73.5655 165.247 72.0774 163.003 71.487 160.461C70.9439 157.663 71.1333 154.772 72.0368 152.069C73.0921 148.693 74.6303 145.487 76.6035 142.551C77.0867 141.842 77.7489 140.871 78.5901 139.637C79.4223 138.416 80.3649 137.175 81.3302 135.872C82.2955 134.569 83.238 133.327 84.1269 132.164C85.0158 131.002 85.7437 130.075 86.2836 129.424C88.9866 126.169 92.008 123.193 95.3027 120.538C98.6911 117.77 102.371 115.379 106.278 113.408C110.147 111.447 114.248 109.98 118.484 109.041C122.639 108.091 126.929 107.879 131.158 108.415C135.099 108.713 138.92 109.91 142.326 111.915C144.612 113.342 146.264 115.59 146.945 118.197C147.493 121.007 147.214 123.916 146.14 126.569C144.868 130.012 143.198 133.293 141.165 136.348C140.27 137.66 139.187 139.249 137.861 140.997C136.534 142.746 135.325 144.575 134.178 146.004ZM102.978 138.806C101.482 140.508 100.469 142.579 100.043 144.804C99.9259 146.3 100.71 147.181 102.426 147.371C104.401 147.555 106.375 147.015 107.981 145.851C110.204 144.293 112.136 142.356 113.689 140.129C115.185 138.407 116.216 136.33 116.686 134.098C116.834 132.583 116.006 131.711 114.215 131.49C112.251 131.345 110.3 131.913 108.721 133.09C106.508 134.636 104.577 136.552 103.014 138.754L102.978 138.806Z" fill="#04AAC4"/>
<path d="M199.217 325.593C199.248 325.981 199.191 326.371 199.051 326.734C198.911 327.097 198.69 327.424 198.406 327.69L204.649 324.1C205.003 323.854 205.284 323.518 205.463 323.127C205.641 322.736 205.712 322.304 205.666 321.876V113.773C205.627 112.576 205.277 111.41 204.649 110.39L198.2 114.107C198.828 115.133 199.178 116.304 199.217 117.506V325.593Z" fill="#E0E0E0"/>
<path d="M5.61853 234.505C5.68176 234.618 5.75624 234.724 5.8409 234.822L94.1495 206.895C97.5022 205.416 101.276 205.195 104.778 206.275C108.28 207.355 111.275 209.662 113.212 212.773L207.621 353.044L211.116 355.061C211.505 355.333 211.956 355.503 212.428 355.555C212.899 355.608 213.377 355.542 213.816 355.363L116.739 210.803C114.795 207.7 111.801 205.398 108.302 204.316C104.803 203.234 101.033 203.445 97.6761 204.91L5.61853 234.505Z" fill="#04AAC4"/>
<path opacity="0.4" d="M121.918 226.467L121.695 226.276L207.621 353.044L211.116 355.061C211.507 355.329 211.958 355.497 212.428 355.549C212.899 355.602 213.376 355.538 213.816 355.363L125.317 224.37L121.918 226.467Z" fill="white"/>
<path opacity="0.4" d="M5.61838 234.505C5.68161 234.618 5.7561 234.724 5.84075 234.822L94.1493 206.895C97.5015 205.412 101.277 205.19 104.78 206.27C108.283 207.35 111.277 209.66 113.212 212.773L116.707 210.74C114.76 207.64 111.763 205.343 108.263 204.27C104.763 203.197 100.994 203.418 97.6442 204.894L5.61838 234.505Z" fill="white"/>
<path d="M0.331024 75.1234C0.521652 73.9797 1.12532 73.662 1.9196 74.2021C2.31227 74.4951 2.65553 74.849 2.93631 75.2505L3.3811 75.8701L90.5141 208.325L103.524 226.451C104.362 227.507 105.472 228.315 106.734 228.788C107.996 229.261 109.363 229.381 110.689 229.135L121.92 226.466L207.703 194.917C208.279 194.8 208.874 194.8 209.45 194.917C209.674 194.963 209.893 195.032 210.102 195.124L206.924 193.249L124.732 223.432L113.914 227.293C112.588 227.542 111.22 227.423 109.957 226.95C108.694 226.477 107.585 225.667 106.749 224.608L93.7389 206.498L6.17696 73.4237C5.91002 73.0612 5.57561 72.7538 5.19205 72.5182L12.7695 68.1496L9.59242 66.3228L4.35011 69.3411C3.32915 69.989 2.44777 70.8342 1.75763 71.8271C1.0675 72.82 0.582504 73.9407 0.331024 75.1234Z" fill="#04AAC4"/>
<path opacity="0.4" d="M90.512 208.325L103.522 226.451C104.36 227.507 105.469 228.315 106.732 228.788C107.994 229.261 109.361 229.381 110.687 229.135L121.918 226.467L121.696 226.276L121.155 225.418L113.8 227.166C112.475 227.415 111.106 227.296 109.843 226.823C108.581 226.35 107.471 225.54 106.636 224.481L93.7526 206.562L90.512 208.325Z" fill="white"/>
<path opacity="0.1" d="M4.23798 69.1982L9.48029 66.1799L12.6574 68.0068L5.07993 72.3754C5.466 72.6076 5.80109 72.9156 6.06488 73.2808L93.6268 206.355L93.7539 206.53L90.5768 208.293L3.4437 75.8226L2.9989 75.203C2.71812 74.8015 2.37491 74.4476 1.98224 74.1546C1.20384 73.6144 0.600189 73.9322 0.393669 75.0759C0.612427 73.8901 1.06499 72.7598 1.72501 71.7506C2.38503 70.7415 3.23926 69.8739 4.23798 69.1982Z" fill="black"/>
<path d="M205.857 197.443L224.555 186.657V347.563C224.475 348.944 224.073 350.287 223.381 351.484C222.688 352.682 221.725 353.7 220.567 354.458L216.072 357.047C214.84 357.668 213.48 357.992 212.1 357.992C210.721 357.992 209.36 357.668 208.129 357.047L205.889 355.76L205.857 197.443Z" fill="#04AAC4"/>
<path opacity="0.15" d="M205.857 197.443L224.555 186.657V347.563C224.475 348.944 224.073 350.287 223.381 351.484C222.688 352.682 221.725 353.7 220.567 354.458L216.072 357.047C214.84 357.668 213.48 357.992 212.1 357.992C210.721 357.992 209.36 357.668 208.129 357.047L205.889 355.76L205.857 197.443Z" fill="black"/>
<path d="M0.249878 76.1244V232.424C0.299881 233.854 0.727356 235.246 1.48895 236.459C2.08128 237.482 2.87584 238.374 3.82416 239.08L3.98302 239.159C4.06396 239.223 4.1488 239.281 4.23715 239.334L208.146 357.047C208.536 357.324 208.989 357.498 209.463 357.554C209.938 357.609 210.419 357.544 210.862 357.365C211.201 357.167 211.486 356.891 211.693 356.559C211.901 356.227 212.025 355.849 212.054 355.458C212.071 355.22 212.071 354.982 212.054 354.744V198.428C212.089 197.869 211.988 197.309 211.759 196.797C211.53 196.285 211.18 195.836 210.74 195.489C210.299 195.142 209.781 194.907 209.229 194.805C208.678 194.703 208.11 194.736 207.574 194.902L121.791 226.451L110.56 229.119C109.235 229.365 107.867 229.245 106.605 228.772C105.343 228.299 104.233 227.491 103.396 226.435L90.3853 208.309L3.25224 75.8543L2.80745 75.2348C1.45717 73.2014 0.249878 73.5827 0.249878 76.1244Z" fill="#04AAC4"/>
<path d="M4.23676 239.334L3.96674 239.159L3.82377 239.064C2.87217 238.368 2.07673 237.48 1.48857 236.458C0.737572 235.265 0.310524 233.896 0.249489 232.487L90.4961 208.341L30.1305 254.235L4.23676 239.334Z" fill="#04AAC4"/>
<path opacity="0.2" d="M4.23676 239.334L3.96674 239.159L3.82377 239.064C2.87217 238.368 2.07673 237.48 1.48857 236.458C0.737572 235.265 0.310524 233.896 0.249489 232.487L90.4961 208.341L30.1305 254.235L4.23676 239.334Z" fill="black"/>
<path d="M212.134 354.744C212.193 355.253 212.108 355.768 211.889 356.231C211.67 356.694 211.326 357.087 210.895 357.365C210.454 357.548 209.973 357.617 209.498 357.564C209.023 357.511 208.569 357.339 208.179 357.063L137.948 316.507L121.904 226.451L212.134 352.138V354.744Z" fill="#04AAC4"/>
<path opacity="0.15" d="M113.262 212.678L210.895 357.365C211.326 357.087 211.67 356.694 211.889 356.231C212.108 355.768 212.193 355.253 212.134 354.744V352.154L116.82 210.771L113.262 212.678Z" fill="black"/>
<path d="M1.48985 236.459C2.078 237.48 2.87346 238.368 3.82506 239.064L3.96802 239.159L208.147 357.047C208.537 357.323 208.991 357.495 209.466 357.548C209.941 357.601 210.422 357.532 210.863 357.349L113.214 212.646C111.259 209.52 108.242 207.204 104.718 206.121C101.193 205.039 97.3967 205.263 94.024 206.752L1.48985 236.459Z" fill="#04AAC4"/>
<path opacity="0.15" d="M223.855 172.185L220.678 174.06C221.128 175.469 221.379 176.934 221.424 178.412V188.516L224.602 186.641V176.522C224.555 175.049 224.304 173.589 223.855 172.185Z" fill="black"/>
<path d="M206.808 193.186L210.033 195.061L213.305 193.17L221.359 188.531L218.23 186.673L206.808 193.186Z" fill="#04AAC4"/>
<path opacity="0.1" d="M206.668 193.25L218.249 186.673L221.426 188.532L213.372 193.17L210.099 195.061L209.48 194.87C208.903 194.752 208.309 194.752 207.732 194.87L201.092 197.364L126.255 224.926L125.079 223.194L206.668 193.25Z" fill="black"/>
</g>
<defs>
<clipPath id="clip0_1852_2073">
<rect width="328.04" height="358" fill="white" transform="matrix(-1 0 0 1 328.273 0)"/>
</clipPath>
</defs>
</svg>
