<svg width="50" height="50" viewBox="0 0 50 50" fill="none" xmlns="http://www.w3.org/2000/svg">
<path d="M14.0625 31.1035H6.25C5.81855 31.1035 5.46875 31.4533 5.46875 31.8848V49.0723C5.46875 49.5037 5.81855 49.8535 6.25 49.8535H14.0625C14.4939 49.8535 14.8438 49.5037 14.8438 49.0723V31.8848C14.8438 31.4533 14.4939 31.1035 14.0625 31.1035Z" fill="#FEC7B0"/>
<path d="M7.8125 49.0723V31.8848C7.8125 31.4533 8.1623 31.1035 8.59375 31.1035H6.25C5.81855 31.1035 5.46875 31.4533 5.46875 31.8848V49.0723C5.46875 49.5037 5.81855 49.8535 6.25 49.8535H8.59375C8.1623 49.8535 7.8125 49.5037 7.8125 49.0723Z" fill="#FEAA88"/>
<path d="M28.9062 27.1973H21.0938C20.6623 27.1973 20.3125 27.5471 20.3125 27.9785V49.0723C20.3125 49.5037 20.6623 49.8535 21.0938 49.8535H28.9062C29.3377 49.8535 29.6875 49.5037 29.6875 49.0723V27.9785C29.6875 27.5471 29.3377 27.1973 28.9062 27.1973Z" fill="#FEAA88"/>
<path d="M22.6562 49.0723V27.9785C22.6562 27.5471 23.0061 27.1973 23.4375 27.1973H21.0938C20.6623 27.1973 20.3125 27.5471 20.3125 27.9785V49.0723C20.3125 49.5037 20.6623 49.8535 21.0938 49.8535H23.4375C23.0061 49.8535 22.6562 49.5037 22.6562 49.0723Z" fill="#FD8E61"/>
<path d="M43.75 18.6035H35.9375C35.5061 18.6035 35.1562 18.9533 35.1562 19.3848V49.0723C35.1562 49.5037 35.5061 49.8535 35.9375 49.8535H43.75C44.1814 49.8535 44.5312 49.5037 44.5312 49.0723V19.3848C44.5312 18.9533 44.1814 18.6035 43.75 18.6035Z" fill="#FD8E61"/>
<path d="M37.5 49.0723V19.3848C37.5 18.9533 37.8498 18.6035 38.2812 18.6035H35.9375C35.5061 18.6035 35.1562 18.9533 35.1562 19.3848V49.0723C35.1562 49.5037 35.5061 49.8535 35.9375 49.8535H38.2812C37.8498 49.8535 37.5 49.5037 37.5 49.0723Z" fill="#FD7239"/>
<path d="M49.2188 49.8535H0.78125C0.349805 49.8535 0 49.5037 0 49.0723C0 48.6408 0.349805 48.291 0.78125 48.291H49.2188C49.6502 48.291 50 48.6408 50 49.0723C50 49.5037 49.6502 49.8535 49.2188 49.8535Z" fill="#AAB4BD"/>
<path d="M47.1278 0.537686C46.7919 0.241007 46.3443 0.102921 45.9 0.158585L39.65 0.939835C38.7936 1.04687 38.1863 1.82782 38.2933 2.68407C38.4003 3.54052 39.1822 4.14726 40.0375 4.04071L42.3878 3.74696C34.4382 13.6384 24.664 18.6802 17.6506 21.1944C9.46304 24.1296 3.13911 24.3641 3.07612 24.366C2.21431 24.3929 1.53706 25.113 1.56323 25.9751C1.58882 26.8215 2.28306 27.4902 3.12407 27.4902C3.14009 27.4902 3.15611 27.49 3.17222 27.4895C3.44546 27.4812 9.96235 27.2515 18.5908 24.1769C23.6522 22.3734 28.3948 19.9576 32.6866 16.9966C37.1393 13.9245 41.1109 10.2551 44.5312 6.06415V7.95898C44.5312 8.82187 45.2307 9.52148 46.0937 9.52148C46.9567 9.52148 47.6562 8.82187 47.6562 7.95898V1.70898C47.6562 1.26083 47.4637 0.834268 47.1278 0.537686Z" fill="#55697A"/>
</svg>
