<svg width="48" height="48" viewBox="0 0 48 48" fill="none" xmlns="http://www.w3.org/2000/svg">
<path d="M21 39.444H27V45.9277H21V39.444Z" fill="#365E7D"/>
<path d="M26.9995 39.4436V42.3127H23.5879C23.2254 42.3127 22.9316 42.6065 22.9316 42.969V45.9274H21V39.4437H26.9995V39.4436Z" fill="#2B4D66"/>
<path d="M47.3436 40.3815H0.65625C0.293812 40.3815 0 40.0877 0 39.7252V6.68577C0 6.32333 0.293812 6.02952 0.65625 6.02952H47.3436C47.706 6.02952 47.9998 6.32333 47.9998 6.68577V39.7252C47.9998 40.0877 47.706 40.3815 47.3436 40.3815Z" fill="#46778C"/>
<path d="M4.82897 6.02952V40.381H0.65625C0.293813 40.381 0 40.0872 0 39.7248V6.68577C0 6.32333 0.293813 6.02952 0.65625 6.02952H4.82897Z" fill="#3A6684"/>
<path d="M44.3436 34.3816H37.4998L35.406 33.4441H12.4548L10.523 34.3816H3.65625C3.29381 34.3816 3 34.0878 3 33.7253V12.0099L6.00019 9.02952H44.3436C44.706 9.02952 44.9998 9.32333 44.9998 9.68577V33.7253C44.9998 34.0878 44.706 34.3816 44.3436 34.3816Z" fill="#9BD8F9"/>
<path d="M4.82916 9.02952V34.3818H3.65625C3.29381 34.3818 3 34.088 3 33.7255V12.01L4.82916 9.02952Z" fill="#73C3F9"/>
<path d="M25.4997 38.1059H22.4997C22.0997 38.1059 21.7754 37.7816 21.7754 37.3816C21.7754 36.9816 22.0997 36.6573 22.4997 36.6573H25.4997C25.8997 36.6573 26.224 36.9816 26.224 37.3816C26.224 37.7816 25.8997 38.1059 25.4997 38.1059Z" fill="#2B4D66"/>
<path d="M44.3434 9.02952H6V12.0099H44.9996V9.68577C44.9996 9.32333 44.7058 9.02952 44.3434 9.02952Z" fill="#EAF6FF"/>
<path d="M5.99981 9.02952H3.65625C3.29381 9.02952 3 9.32333 3 9.68577V12.0099H5.99981V9.02952Z" fill="#F25A74"/>
<path d="M4.82822 9.02952V12.0099H3V9.68577C3 9.32333 3.29381 9.02952 3.65625 9.02952H4.82822Z" fill="#E83D5A"/>
<path d="M37.5004 34.3813H10.5234V0.666008C10.5234 0.303571 10.8173 0.009758 11.1797 0.009758H36.8441C37.2066 0.009758 37.5004 0.303571 37.5004 0.666008V34.3813Z" fill="#EAF6FF"/>
<path d="M12.4551 0.009758V34.3816H10.5234V0.666008C10.5234 0.303571 10.8173 0.009758 11.1797 0.009758H12.4551Z" fill="#D8ECFE"/>
<path d="M29.9993 12.0098C29.9993 14.2302 28.793 16.1695 26.9994 17.2068V17.2077C26.1176 17.7176 25.0929 17.0728 23.9996 17.0728C22.9063 17.0728 21.8816 17.7177 20.9998 17.2077C19.2063 16.1695 18 14.2301 18 12.0097C18 8.69606 20.6858 6.01022 23.9995 6.01022C27.3132 6.01022 29.9993 8.69625 29.9993 12.0098Z" fill="#365E7D"/>
<path d="M29.9997 21.7343H17.9997C17.5997 21.7343 17.2754 21.4101 17.2754 21.01C17.2754 20.61 17.5997 20.2857 17.9997 20.2857H29.9996C30.3996 20.2857 30.7239 20.61 30.7239 21.01C30.7239 21.4101 30.3997 21.7343 29.9997 21.7343Z" fill="#365E7D"/>
<path d="M20.8707 27.7233H17.8649C17.4649 27.7233 17.1406 27.399 17.1406 26.999C17.1406 26.599 17.4649 26.2747 17.8649 26.2747H20.8707C21.2707 26.2747 21.595 26.599 21.595 26.999C21.595 27.399 21.2707 27.7233 20.8707 27.7233Z" fill="#365E7D"/>
<path d="M29.9997 27.7343H23.9997C23.5997 27.7343 23.2754 27.4101 23.2754 27.01C23.2754 26.6099 23.5997 26.2857 23.9997 26.2857H29.9997C30.3997 26.2857 30.724 26.61 30.724 27.01C30.724 27.4102 30.3997 27.7343 29.9997 27.7343Z" fill="#365E7D"/>
<path d="M20.8707 24.7233H17.8649C17.4649 24.7233 17.1406 24.399 17.1406 23.999C17.1406 23.5989 17.4649 23.2747 17.8649 23.2747H20.8707C21.2707 23.2747 21.595 23.599 21.595 23.999C21.595 24.399 21.2707 24.7233 20.8707 24.7233Z" fill="#365E7D"/>
<path d="M29.9997 24.7343H23.9997C23.5997 24.7343 23.2754 24.4101 23.2754 24.01C23.2754 23.6099 23.5997 23.2857 23.9997 23.2857H29.9997C30.3997 23.2857 30.724 23.61 30.724 24.01C30.724 24.4102 30.3997 24.7343 29.9997 24.7343Z" fill="#365E7D"/>
<path d="M26.9996 14.1366V17.2079C26.1178 17.7178 25.0931 18.0105 23.9998 18.0105C22.9065 18.0105 21.8818 17.7179 21 17.2079V14.1366C21 13.8324 21.2086 13.5619 21.5196 13.4625L23.1817 13.0433H24.8178L26.4799 13.4625C26.7909 13.562 26.9996 13.8324 26.9996 14.1366Z" fill="#9BD8F9"/>
<path d="M33 47.9028V47.99H15V47.9028C15 46.2941 16.3041 44.99 17.9119 44.99H30.0881C31.6959 44.99 33 46.2941 33 47.9028Z" fill="#46778C"/>
<path d="M20.8978 44.99C20.0691 44.99 19.3191 45.3266 18.7762 45.8684C18.2334 46.4112 17.8969 47.1612 17.8969 47.99H15V47.9028C15 46.2941 16.3041 44.99 17.9119 44.99H20.8978Z" fill="#3A6684"/>
<path d="M22.4863 10.9926V11.9976C22.4863 12.8337 23.1642 13.5116 24.0004 13.5116C24.8365 13.5116 25.5145 12.8337 25.5145 11.9976V10.9926C25.5145 10.1564 24.8366 9.47851 24.0004 9.47851C23.1642 9.4786 22.4863 10.1564 22.4863 10.9926Z" fill="#FFCEBF"/>
</svg>
