<svg width="50" height="50" viewBox="0 0 50 50" fill="none" xmlns="http://www.w3.org/2000/svg">
<g clip-path="url(#clip0_1991_3741)">
<path d="M22.4715 9.20015C22.2398 9.20015 22.0112 9.0938 21.8632 8.89273C21.1771 7.9605 19.9562 6.89107 18.035 7.09624C15.7732 7.33716 14.0935 6.61733 13.0826 5.97114C12.7315 5.74673 12.6289 5.28023 12.8532 4.92915C13.0775 4.57798 13.5442 4.47544 13.8952 4.69976C14.7027 5.21577 16.0487 5.79067 17.8753 5.59575C20.6475 5.30142 22.3252 6.97446 23.0786 7.99839C23.3255 8.33394 23.2537 8.8063 22.918 9.05327C22.7834 9.1523 22.6268 9.20015 22.4715 9.20015Z" fill="#FFD064"/>
<path d="M14.5723 13.2063C14.4376 13.2063 14.3014 13.1703 14.1782 13.0946C13.823 12.8767 13.712 12.4121 13.93 12.0569C14.8971 10.4815 16.6693 9.39864 19.0553 8.9256C20.7949 8.58077 22.2546 8.6752 22.3157 8.6795C22.7314 8.70802 23.0453 9.06808 23.0168 9.4838C22.9883 9.89923 22.6273 10.2108 22.2134 10.185C22.161 10.1815 17.038 9.87774 15.2159 12.8463C15.0735 13.0784 14.8258 13.2063 14.5723 13.2063Z" fill="#FFD064"/>
<path d="M25.9443 42.1169C38.335 42.1169 45.1864 23.9421 25.6195 9.90469C25.1328 9.55547 24.8437 8.99326 24.8503 8.39424C24.8556 7.89922 25.0125 7.41865 25.2964 7.01309C26.2124 5.70498 27.5309 3.46729 28.3217 1.66494C28.511 1.2333 28.24 0.769043 27.7335 0.769043C26.5582 0.769141 26.5582 0 25.3829 0C24.2076 0 24.2076 0.769141 23.0322 0.769141C22.0306 0.769141 21.6197 -0.0925782 21.1328 0.53418C19.7127 2.36191 24.5767 8.78936 24.5767 8.78936C3.0949 22.9114 10.0214 42.117 22.7046 42.117H25.9443V42.1169Z" fill="#EABC6B"/>
<path d="M30.8143 8.78926C30.8143 8.78926 35.7505 2.38262 34.3311 0.544824C33.8473 -0.081543 33.4348 0.769141 32.4343 0.769141C31.2588 0.769043 31.2588 0 30.0833 0C28.9079 0 28.9079 0.769043 27.7325 0.769043C27.6746 0.769043 27.6218 0.76582 27.5693 0.762207C27.0971 2.78662 24.9688 5.94043 23.751 7.6291C24.2306 8.33291 24.5759 8.78916 24.5759 8.78916C24.2894 8.97754 24.0089 9.16699 23.7324 9.35713C44.2569 23.4645 37.3894 42.1168 24.8369 42.1168H32.7625C45.4841 42.1169 52.3677 22.9583 30.8143 8.78926Z" fill="#E8AE4D"/>
<path d="M31.7321 11.0678C28.8638 11.7922 26.0301 11.7922 23.1614 11.0678C22.1629 10.8156 21.5969 9.69285 21.9562 8.67225C21.9602 8.66082 21.9642 8.64939 21.9682 8.63797C22.2695 7.78231 23.1239 7.30213 23.9613 7.51238C26.3099 8.10203 28.5828 8.10223 30.9321 7.51238C31.7695 7.30213 32.6239 7.78231 32.9251 8.63797C32.9292 8.64939 32.9332 8.66082 32.9372 8.67225C33.2965 9.69285 32.7305 10.8156 31.7321 11.0678Z" fill="#FFE07D"/>
<path d="M4.76367 45.4117L15.6871 49.4775C16.6148 49.8228 17.5968 49.9997 18.5867 49.9997H29.8441C31.4195 49.9997 32.9625 49.552 34.2933 48.7088L48.3887 39.7771C49.3187 38.9513 49.491 37.5636 48.7914 36.5354C48.0259 35.4104 46.7596 35.2149 45.3661 35.8738L31.6429 41.9162L31.6591 39.6897C31.4773 37.8622 30.0702 36.3955 28.2519 36.1382L19.8948 35.176C17.967 34.9033 17.0037 34.2572 15.323 33.2741C13.0286 31.9319 10.4183 31.2245 7.76006 31.2245H4.76367V45.4117Z" fill="#FFDDCE"/>
<path d="M15.0237 47.3111C15.999 47.6741 17.0313 47.86 18.072 47.86H29.9065C31.1665 47.86 32.4063 47.587 33.5436 47.0664L41.8188 41.8226C42.5877 41.3354 43.0758 40.4874 43.0508 39.5775C43.0375 39.095 42.89 38.612 42.6011 38.1874C42.6011 38.1874 42.3491 37.7556 42.0902 37.3162L31.6429 41.9162L31.6591 39.6897C31.4773 37.8622 30.0702 36.3955 28.2519 36.1382L19.8948 35.176C17.967 34.9033 17.0037 34.2572 15.323 33.2741C13.0286 31.9319 10.4183 31.2245 7.76006 31.2245H4.76367V43.4922L15.0237 47.3111Z" fill="#FFDDCE"/>
<path d="M48.7913 36.5355C48.0258 35.4105 46.7595 35.215 45.366 35.8739L41.5913 37.5359C41.7741 37.8252 41.9195 38.0562 41.9195 38.0562C42.6191 39.0844 42.4468 40.4721 41.5168 41.2979L33.3036 46.5022C32.2219 46.9974 31.0425 47.2572 29.8439 47.2572H18.5867C17.5968 47.2572 16.6148 47.0803 15.6871 46.735L4.76367 42.6691V45.4117L15.6871 49.4776C16.6148 49.8229 17.5968 49.9997 18.5867 49.9997H27.7842H29.8442C31.4196 49.9997 32.9626 49.5521 34.2934 48.7088L48.3888 39.7772C49.3186 38.9514 49.491 37.5636 48.7913 36.5355Z" fill="#FFCBBE"/>
<path d="M30.6352 37.3961L30.6348 37.4498L30.6702 37.4342C30.6587 37.4213 30.6468 37.4089 30.6352 37.3961Z" fill="#F5DBCC"/>
<path d="M31.6431 41.9151H23.11C22.6933 41.9151 22.3555 41.5774 22.3555 41.1606C22.3555 40.7438 22.6932 40.4061 23.11 40.4061H31.6541L31.6431 41.9151Z" fill="#FFCBBE"/>
<path d="M7.11484 47.5878C7.11484 48.3804 6.47236 49.0229 5.67979 49.0229H2.21631C1.42373 49.0229 0.78125 48.3804 0.78125 47.5878V30.0159C0.78125 29.2234 1.42373 28.5809 2.21631 28.5809H5.67979C6.47236 28.5809 7.11484 29.2234 7.11484 30.0159V47.5878Z" fill="#407093"/>
<path d="M29.357 23.3815C29.0115 23.2594 28.6935 23.1426 28.4001 23.0298V18.2192C29.2925 18.3672 29.8283 18.8288 29.8675 18.8637C30.1741 19.1424 30.6483 19.1219 30.9295 18.8169C31.2121 18.5105 31.1928 18.0334 30.8865 17.7508C30.8334 17.7017 29.9094 16.8692 28.4 16.6954V15.6227C28.4 15.206 28.0624 14.8682 27.6456 14.8682C27.2288 14.8682 26.8911 15.2059 26.8911 15.6227V16.7565C26.7091 16.7914 26.5228 16.8357 26.3313 16.8934C25.0514 17.2788 24.0948 18.3763 23.8345 19.7572C23.5984 21.0104 23.9957 22.2155 24.8714 22.9024C25.3742 23.2968 26.0072 23.6578 26.8911 24.0437V30.0107C26.0179 29.9741 25.4817 29.8097 24.5445 29.1967C24.1958 28.9687 23.7283 29.0663 23.5001 29.415C23.272 29.7637 23.3698 30.2312 23.7185 30.4594C24.9501 31.2651 25.7735 31.4753 26.8911 31.5187V32.7164C26.8911 33.1331 27.2288 33.4709 27.6456 33.4709C28.0624 33.4709 28.4 33.1332 28.4 32.7164V31.4657C30.518 31.1221 31.754 29.4077 32.0227 27.8085C32.3588 25.8104 31.3123 24.0728 29.357 23.3815ZM25.8027 21.715C25.3719 21.3772 25.1861 20.7341 25.3175 20.0366C25.4393 19.3898 25.884 18.604 26.7667 18.3382C26.8086 18.3255 26.85 18.3145 26.8913 18.3035V22.379C26.4394 22.1535 26.0851 21.9365 25.8027 21.715ZM30.5348 27.5581C30.3683 28.5482 29.6416 29.6053 28.4001 29.9234V24.6408C28.5469 24.6945 28.6969 24.7487 28.854 24.8042C30.7316 25.4679 30.6152 27.0799 30.5348 27.5581Z" fill="white"/>
</g>
<defs>
<clipPath id="clip0_1991_3741">
<rect width="50" height="50" fill="white"/>
</clipPath>
</defs>
</svg>
