<svg width="24" height="24" viewBox="0 0 24 24" fill="none" xmlns="http://www.w3.org/2000/svg">
<path d="M21.5641 18.5155C21.5623 18.5108 21.5604 18.5062 21.5585 18.5016C21.127 17.4919 20.1151 17.1188 18.9175 17.5278L15.6515 18.431C15.4627 17.8591 14.9917 17.3725 14.3257 17.1254C14.3216 17.1239 14.3174 17.1224 14.3133 17.121L10.7232 15.9025C10.4244 15.5163 9.48841 14.528 7.73592 14.528C6.5112 14.528 5.42778 15.3681 4.80794 16.2839H0.468793C0.209879 16.2839 0 16.4938 0 16.7527V22.6631C0 22.922 0.209879 23.1319 0.468793 23.1319H3.25609C3.51501 23.1319 3.72489 22.922 3.72489 22.6631V22.2583H5.03202C5.29094 22.2583 5.50081 22.0485 5.50081 21.7896V21.6546C6.26279 21.7211 6.51341 21.8656 7.21322 22.2692C7.75139 22.5795 8.5648 23.0485 10.0296 23.7072C10.0364 23.7102 10.0433 23.7131 10.0502 23.7158C10.3313 23.8264 10.8809 24.0001 11.5584 24.0001C12.03 24.0001 12.5637 23.9159 13.1116 23.6676L20.3306 21.0828C20.3434 21.0783 20.3561 21.0731 20.3684 21.0674C21.0584 20.75 22.0865 19.8554 21.5641 18.5155ZM2.7873 22.1943H0.937586V17.2214H2.7873V22.1943ZM4.56323 21.3207H3.72489V17.2214H4.56323V21.3207ZM19.9938 20.2075L12.7781 22.791C12.7717 22.7933 12.7632 22.7967 12.7569 22.7992C12.7506 22.8018 12.7443 22.8045 12.738 22.8073C11.7331 23.2692 10.7778 22.9927 10.4034 22.8471C8.98854 22.2105 8.23336 21.775 7.68159 21.4569C6.91446 21.0145 6.54482 20.8013 5.50081 20.7151V16.9393C5.94518 16.211 6.80692 15.4655 7.73597 15.4655C9.32921 15.4655 10.0043 16.5018 10.0309 16.5436C10.0881 16.6367 10.1761 16.7069 10.2795 16.742L14.0053 18.0065C14.6003 18.2298 14.9148 18.7394 14.7703 19.2476C14.7035 19.4822 14.5494 19.6769 14.3363 19.7956C14.125 19.9134 13.8808 19.9425 13.648 19.8781L9.44791 18.5471C9.20095 18.4688 8.93758 18.6055 8.85939 18.8523C8.78115 19.0992 8.91784 19.3626 9.16466 19.4409L13.372 20.7741C13.3765 20.7756 13.3809 20.7769 13.3854 20.7782C13.5534 20.826 13.7244 20.8496 13.8944 20.8496C14.2056 20.8496 14.5134 20.7703 14.7927 20.6147C15.2246 20.374 15.5369 19.9796 15.6721 19.504C15.6829 19.466 15.6924 19.4281 15.7007 19.3901L19.2206 18.415C19.7289 18.2414 20.3962 18.1788 20.6934 18.8631C21.0009 19.6664 20.2016 20.1084 19.9938 20.2075Z" fill="white"/>
<path d="M23.5321 1.5877H20.7448C20.4859 1.5877 20.276 1.79757 20.276 2.05649V2.46124H18.9689C18.71 2.46124 18.5001 2.67112 18.5001 2.93004V3.06496C17.7381 2.99843 17.4875 2.85395 16.7878 2.45041C16.2496 2.14007 15.4362 1.67105 13.9713 1.01244C13.9646 1.00935 13.9577 1.00649 13.9507 1.00377C13.4739 0.816156 12.2243 0.447029 10.8896 1.05191L9.00313 1.72735L7.41303 0.137298C7.22997 -0.0457659 6.93313 -0.0457659 6.75006 0.137298L1.52968 5.35763C1.36082 5.52654 1.32843 5.81939 1.52968 6.02065L10.4502 14.9412C10.5929 15.084 10.9272 15.1271 11.1132 14.9412L15.8792 10.1752C16.0031 10.1859 16.1317 10.1917 16.265 10.1917C17.4897 10.1917 18.5731 9.35151 19.1929 8.43577H23.5321C23.7911 8.43577 24.0009 8.22589 24.0009 7.96698V2.05649C24.0009 1.79757 23.7911 1.5877 23.5321 1.5877ZM7.0815 1.13175L8.14997 2.20022C7.83237 2.39664 7.46516 2.50175 7.0815 2.50175C6.69779 2.50175 6.33064 2.39669 6.01303 2.20022L7.0815 1.13175ZM3.59265 6.75764L2.52418 5.68912L3.59265 4.62064C3.78908 4.93825 3.89418 5.30546 3.89418 5.68912C3.89418 6.07278 3.78912 6.43998 3.59265 6.75764ZM10.7817 13.9467L9.71344 12.8784C10.3657 12.4759 11.1977 12.4759 11.85 12.8784L10.7817 13.9467ZM12.5254 12.203C11.4895 11.4516 10.074 11.4516 9.03805 12.203L4.26804 7.43298C4.63412 6.92949 4.83176 6.32471 4.83176 5.68912C4.83176 5.05348 4.63417 4.44874 4.26804 3.94525L5.33769 2.87566C5.84117 3.24174 6.44591 3.43938 7.08155 3.43938C7.71718 3.43938 8.32193 3.24174 8.82541 2.87566L9.83936 3.88961C9.62058 3.92191 9.40723 3.99401 9.20827 4.10488C8.87224 4.29211 8.60859 4.5725 8.44442 4.91172C7.91562 5.00965 7.42606 5.26566 7.04203 5.64964C6.00014 6.69158 6.00014 8.38688 7.04208 9.42882C7.563 9.94974 8.24729 10.2102 8.93164 10.2102C9.61593 10.2102 10.3003 9.94979 10.8212 9.42882C11.1602 9.08988 11.3976 8.67331 11.5166 8.21933L13.0994 8.75652C12.9212 9.58197 13.1037 10.4504 13.596 11.1325L12.5254 12.203ZM9.67524 7.5942C9.67936 7.5957 9.68349 7.5972 9.68766 7.5986L10.6251 7.91677C10.5543 8.23625 10.3941 8.53 10.1583 8.76585C9.48191 9.44213 8.38137 9.44222 7.70509 8.76585C7.02871 8.08952 7.02871 6.98903 7.70509 6.31266C7.86823 6.14942 8.06076 6.02187 8.27055 5.93537C8.35709 6.65553 8.87562 7.29745 9.67524 7.5942ZM14.2715 10.4569C14.0905 10.1621 13.9881 9.82551 13.972 9.48203C14.1965 9.64437 14.4709 9.80343 14.7987 9.92968L14.2715 10.4569ZM18.5001 7.78007C18.0558 8.50848 17.194 9.254 16.265 9.254C16.0911 9.254 15.9282 9.24163 15.7759 9.21959C15.7753 9.2195 15.7747 9.21941 15.7741 9.21931C14.7617 9.07225 14.2171 8.49686 14.0376 8.26902C14.028 8.25496 13.9873 8.20166 13.9812 8.1928C13.9266 8.0952 13.8371 8.01672 13.7229 7.97795L9.99561 6.71291C9.40081 6.48967 9.08639 5.98033 9.23049 5.47235C9.23059 5.47202 9.23068 5.47169 9.23077 5.47136C9.23092 5.47099 9.23101 5.47057 9.2311 5.47019C9.29809 5.23626 9.45195 5.04223 9.6646 4.92377C9.87583 4.80605 10.12 4.77685 10.3529 4.8414L14.553 6.17235C14.7998 6.25068 15.0633 6.11389 15.1415 5.86707C15.2197 5.62025 15.083 5.35679 14.8362 5.27855L11.4958 4.22001L11.4667 4.19086C11.4664 4.19057 11.4661 4.19025 11.4658 4.18996L9.73641 2.46059L11.2229 1.92832C11.2279 1.92649 11.2341 1.9242 11.239 1.92218C11.2403 1.92166 11.2427 1.92073 11.244 1.92021C11.2503 1.91763 11.2566 1.91491 11.2629 1.91205C12.2678 1.4502 13.223 1.72665 13.5974 1.87225C15.0123 2.50892 15.7676 2.94438 16.3193 3.26255C17.0865 3.70495 17.4561 3.91811 18.5001 4.00432V7.78007ZM20.276 7.49809H19.4377V3.39883H20.276V7.49809ZM23.0633 7.49809H21.2136V2.52528H23.0633V7.49809Z" fill="white"/>
</svg>
