<svg width="26" height="24" viewBox="0 0 26 24" fill="none" xmlns="http://www.w3.org/2000/svg">
<path d="M25.8629 9.7942L17.2286 0.167832C17.1326 0.0607843 16.9984 0 16.8578 0C16.7173 0 16.5831 0.0607311 16.4871 0.167779L11.4346 5.80068C10.6319 5.55182 9.7824 5.41753 8.90327 5.41753C3.994 5.41753 0 9.58557 0 14.7088C0 19.832 3.994 24 8.90327 24C10.4989 24 11.9976 23.5594 13.2941 22.789H20.5583C20.8387 22.789 21.0661 22.5518 21.0661 22.2591V20.1393C21.0661 19.8466 20.8387 19.6094 20.5583 19.6094C20.2779 19.6094 20.0505 19.8466 20.0505 20.1393V21.7292H14.7292C16.6131 20.0242 17.8066 17.5092 17.8066 14.7088C17.8066 10.9087 15.6089 7.63475 12.4705 6.19681L16.8578 1.30546L24.3213 9.62642H20.5583C20.2779 9.62642 20.0505 9.86368 20.0505 10.1564V20.9342C20.0505 21.2269 20.2779 21.4626 20.5583 21.4626C20.8387 21.4626 21.0661 21.0134 21.0661 20.7207V10.6863H25.4922C25.6945 10.6863 25.8776 10.5609 25.958 10.3672C26.0386 10.1735 26.0012 9.94836 25.8629 9.7942ZM16.7909 14.7088C16.7909 19.2475 13.2525 22.9401 8.90327 22.9401C4.55401 22.9401 1.01562 19.2475 1.01562 14.7088C1.01562 10.17 4.55401 6.47741 8.90327 6.47741C13.2526 6.47741 16.7909 10.17 16.7909 14.7088Z" fill="white"/>
<path d="M2.03125 14.7981C2.03125 18.7502 5.11225 21.9654 8.89926 21.9654C12.6863 21.9654 15.7673 18.7502 15.7673 14.7981C15.7673 10.8461 12.6863 7.63086 8.89926 7.63086C5.11225 7.63086 2.03125 10.8461 2.03125 14.7981ZM14.7516 14.7981C14.7516 18.1658 12.1263 20.9055 8.89926 20.9055C5.67221 20.9055 3.04687 18.1658 3.04687 14.7981C3.04687 11.4305 5.67221 8.69074 8.89926 8.69074C12.1263 8.69074 14.7516 11.4305 14.7516 14.7981Z" fill="white"/>
<path d="M9.95503 15.8909C9.45771 16.4129 9.4577 17.2623 9.95499 17.7843C10.1967 18.038 10.5183 18.1777 10.8604 18.1777C11.2026 18.1777 11.5241 18.038 11.7658 17.7843C12.0145 17.5232 12.1389 17.1804 12.1388 16.8376C12.1388 16.4948 12.0145 16.1518 11.7658 15.8909C11.5241 15.6371 11.2026 15.4974 10.8605 15.4974C10.5183 15.4974 10.1967 15.6372 9.95503 15.8909ZM11.1619 16.5175C11.33 16.694 11.33 16.9811 11.1619 17.1576C11.0812 17.2423 10.9742 17.2889 10.8605 17.2889C10.7468 17.2889 10.6397 17.2423 10.559 17.1576C10.475 17.0694 10.4329 16.9535 10.4329 16.8376C10.4329 16.7217 10.475 16.6057 10.559 16.5175L10.5591 16.5175C10.6397 16.4329 10.7468 16.3862 10.8605 16.3862C10.9741 16.3862 11.0812 16.4329 11.1619 16.5175Z" fill="white"/>
<path d="M8.24421 12.7518C8.24421 12.4089 8.11987 12.0661 7.87123 11.8051C7.62953 11.5514 7.30799 11.4117 6.96588 11.4117C6.62372 11.4117 6.30222 11.5514 6.06052 11.8051C6.06048 11.8051 6.06048 11.8051 6.06048 11.8051C5.5632 12.3271 5.56315 13.1765 6.06048 13.6985C6.30218 13.9522 6.62372 14.0919 6.96588 14.0919C7.30803 14.0919 7.62957 13.9522 7.87127 13.6985C8.11987 13.4375 8.24421 13.0947 8.24421 12.7518ZM6.66443 13.0719C6.58033 12.9837 6.53834 12.8677 6.53834 12.7518C6.53834 12.6359 6.58037 12.52 6.66443 12.4317C6.74508 12.3471 6.85214 12.3005 6.96583 12.3005C7.07957 12.3005 7.18663 12.3471 7.26723 12.4317C7.43544 12.6082 7.43535 12.8954 7.26723 13.0719C7.18658 13.1565 7.07953 13.2032 6.96583 13.2032C6.85214 13.2032 6.74508 13.1566 6.66443 13.0719Z" fill="white"/>
<path d="M6.3504 16.8546C6.18463 17.0286 6.18535 17.31 6.35219 17.4831C6.51894 17.6561 6.78858 17.6553 6.9544 17.4812L11.4771 12.7338C11.5597 12.6471 11.6009 12.5337 11.6009 12.4204C11.6009 12.3063 11.559 12.1921 11.4753 12.1053C11.3085 11.9323 11.0389 11.9331 10.8731 12.1071L6.3504 16.8546Z" fill="white"/>
</svg>
