<svg width="24" height="24" viewBox="0 0 24 24" fill="none" xmlns="http://www.w3.org/2000/svg">
<path d="M11.5364 14.2412V14.7697H12.4594V14.2412C12.9715 14.0819 13.3352 13.6273 13.378 13.0928C13.4208 12.5582 13.1344 12.0514 12.6541 11.8125L11.7547 11.3627C11.5911 11.2809 11.5053 11.0976 11.5472 10.9196C11.5891 10.7418 11.7477 10.616 11.9305 10.6158H12.0653C12.2828 10.616 12.4592 10.7925 12.4594 11.01V11.0774H13.3825V11.01C13.3805 10.4364 13.0068 9.9305 12.4594 9.75967V9.2312H11.5364V9.75967C11.0243 9.919 10.6606 10.3736 10.6178 10.9081C10.575 11.4427 10.8614 11.9495 11.3416 12.1884L12.2411 12.6382C12.4047 12.72 12.4905 12.9032 12.4486 13.0813C12.4067 13.2591 12.248 13.3848 12.0653 13.385H11.9305C11.713 13.3848 11.5366 13.2084 11.5364 12.9909V12.9235H10.6133V12.9909C10.6153 13.5644 10.989 14.0704 11.5364 14.2412Z" fill="white"/>
<path d="M11.9994 17.5388C15.0582 17.5388 17.5379 15.0592 17.5379 12.0004C17.5379 8.94156 15.0582 6.46191 11.9994 6.46191C8.94058 6.46191 6.46094 8.94156 6.46094 12.0004C6.46432 15.0578 8.94193 17.5355 11.9994 17.5388ZM11.9994 7.38499C14.5485 7.38499 16.6148 9.45132 16.6148 12.0004C16.6148 14.5494 14.5485 16.6158 11.9994 16.6158C9.45035 16.6158 7.38401 14.5494 7.38401 12.0004C7.38672 9.45245 9.45147 7.3877 11.9994 7.38499Z" fill="white"/>
<path d="M1.84766 2.30811H6.92458V3.23118H1.84766V2.30811Z" fill="white"/>
<path d="M0.921875 4.1543H5.9988V5.07737H0.921875V4.1543Z" fill="white"/>
<path d="M1.52267 20.3076L3.44544 17.9999H7.71017C10.2712 19.846 13.7264 19.846 16.2874 17.9999H22.1535V17.0768H17.3484C20.0629 14.2364 20.0629 9.76341 17.3484 6.92296H20.7689C20.9057 6.92296 21.0357 6.86234 21.1234 6.75732L23.4311 3.98809C23.5742 3.81682 23.5742 3.56757 23.4311 3.3963L21.1234 0.627066C21.0357 0.522048 20.9057 0.461426 20.7689 0.461426H5.0766V1.3845H20.553L22.4767 3.69219L20.5539 5.99989H16.2892C13.7282 4.15373 10.273 4.15373 7.71197 5.99989H1.84583V6.92296H6.65097C3.9365 9.76341 3.9365 14.2364 6.65097 17.0768H3.23045C3.09366 17.0768 2.96362 17.1374 2.87596 17.2424L0.568265 20.0117C0.425162 20.183 0.425162 20.4322 0.568265 20.6035L2.87596 23.3727C2.96362 23.4777 3.09366 23.5383 3.23045 23.5383H18.9228V22.6153H3.44635L1.52267 20.3076ZM11.9997 5.53835C15.5683 5.53835 18.4612 8.4313 18.4612 11.9999C18.4612 15.5685 15.5683 18.4614 11.9997 18.4614C8.4311 18.4614 5.53814 15.5685 5.53814 11.9999C5.54197 8.43288 8.43267 5.54218 11.9997 5.53835Z" fill="white"/>
<path d="M17.0781 20.7694H22.155V21.6925H17.0781V20.7694Z" fill="white"/>
<path d="M18 18.9232H23.0769V19.8463H18V18.9232Z" fill="white"/>
</svg>
